<?xml version="1.0" encoding="UTF-8" standalone="no"?>
<svg
   xmlns:dc="http://purl.org/dc/elements/1.1/"
   xmlns:cc="http://creativecommons.org/ns#"
   xmlns:rdf="http://www.w3.org/1999/02/22-rdf-syntax-ns#"
   xmlns:svg="http://www.w3.org/2000/svg"
   xmlns="http://www.w3.org/2000/svg"
   xmlns:sodipodi="http://sodipodi.sourceforge.net/DTD/sodipodi-0.dtd"
   xmlns:inkscape="http://www.inkscape.org/namespaces/inkscape"
   inkscape:version="1.0 (4035a4f, 2020-05-01)"
   sodipodi:docname="p1um-icon.svg"
   viewBox="0 0 816 1056"
   height="1056"
   width="816"
   xml:space="preserve"
   id="svg28"
   version="1.1"><metadata
     id="metadata34"><rdf:RDF><cc:Work
         rdf:about=""><dc:format>image/svg+xml</dc:format><dc:type
           rdf:resource="http://purl.org/dc/dcmitype/StillImage" /><dc:title></dc:title></cc:Work></rdf:RDF></metadata><defs
     id="defs32"><clipPath
       id="clipPath46"
       clipPathUnits="userSpaceOnUse"><path
         id="path44"
         d="M 0.1043182,111.733 H 611.80532 V 679.9785 H 0.1043182 Z" /></clipPath><clipPath
       id="clipPath66"
       clipPathUnits="userSpaceOnUse"><path
         id="path64"
         d="M 0,111.733 H 612 V 680.2671 H 0 Z" /></clipPath><clipPath
       id="clipPath82"
       clipPathUnits="userSpaceOnUse"><path
         id="path80"
         d="m 204.4254,339.6595 c -0.3599,0.2382 -0.6468,0.6676 -0.9354,1.0866 -2.2133,3.2061 -3.4008,6.8989 -4.9864,10.4006 -1.5943,3.5242 -3.5955,6.9875 -4.4335,10.6995 -1.1753,5.2194 -4.0806,9.6651 -5.5671,14.7454 -1.7074,5.8244 -3.7972,11.5706 -5.8123,17.3168 -0.5007,1.4274 -1.4535,2.5871 -2.5488,3.6199 -1.3597,3.133 -2.1229,6.5651 -4.5692,9.1574 -1.5508,2.441 -3.8458,3.7815 -6.5964,4.4526 -0.1912,0.226 -0.4103,0.2851 -0.6381,0.2851 -0.1269,0 -0.2555,-0.0173 -0.3825,-0.0365 -0.1286,-0.0174 -0.2573,-0.0365 -0.3824,-0.0365 -0.009,0 -0.0192,0 -0.0296,0.002 -0.2069,0.005 -0.4121,0.007 -0.619,0.007 -2.6357,0 -5.2367,-0.412 -7.8499,-0.7163 h -0.002 c -0.3078,0 -0.6086,0.0661 -0.9111,0.1304 -0.3008,0.0661 -0.6016,0.1321 -0.9093,0.1321 -0.2625,0 -0.5285,-0.0487 -0.8015,-0.1843 -0.3808,-0.1912 -0.7181,-0.2816 -1.0136,-0.2816 -0.7233,0 -1.2049,0.5424 -1.5057,1.49 -0.2677,0.8397 -0.6624,1.9316 -1.5526,1.9316 -0.0939,0 -0.1947,-0.0122 -0.299,-0.0365 -2.4428,-0.6033 -5.1064,-0.3303 -7.3527,-1.5978 -3.4599,-1.9542 -7.2554,-2.6514 -11.0838,-3.3069 -0.1426,-0.0243 -0.2817,-0.0365 -0.4138,-0.0365 -0.5529,0 -1.0015,0.226 -1.264,0.7946 -0.3251,0.7041 -0.005,1.2552 0.4798,1.8029 0.0661,0.0748 0.1357,0.1443 0.2069,0.2069 -0.9075,-0.4659 -1.7716,-1.0449 -2.6931,-1.4883 -1.9821,-0.9562 -3.8528,-2.3193 -6.1461,-2.3193 -0.306,0 -0.6207,0.0243 -0.9441,0.0765 -1.1735,1.1423 -0.5824,1.7595 0.6485,2.1803 2.4115,0.8275 4.5709,2.1072 6.6208,3.6041 0.9406,0.6868 1.5421,1.5144 1.417,2.7367 0.2729,1.4413 1.796,1.9142 2.401,3.0965 0.7789,0.8206 1.6256,1.6134 1.1458,2.9209 -0.0261,0.8954 0.193,1.7664 0.3095,2.6497 0.7736,2.0446 0.459,2.9852 -1.3336,4.0753 -0.5842,0.3564 -1.2275,0.5338 -1.8708,0.7285 -0.8971,0.273 -1.4535,0.8485 -1.2309,1.8221 0.1982,0.8676 0.7789,1.4239 1.5891,1.4239 0.1252,0 0.2573,-0.0139 0.3929,-0.0399 2.2568,-0.4573 4.6787,-0.1896 6.7651,-1.3405 1.104,-0.6103 2.1767,-0.885 3.2738,-0.885 0.9458,0 1.909,0.2052 2.9262,0.5755 3.3086,1.2118 4.011,2.4028 2.8861,5.6958 -1.2049,3.5242 -2.102,7.0345 0.8989,10.2075 0.299,0.3182 0.379,0.8102 0.6137,1.1892 1.1614,1.8778 2.7088,3.7503 4.1953,4.7535 -0.645,-0.4104 -1.3265,-0.9319 -2.0133,-1.417 -2.1855,-1.5457 -4.5552,-2.5002 -7.2154,-2.7645 -1.2257,-0.1234 -2.3002,-0.5911 -3.1973,-1.4535 -0.4312,-0.412 -0.8676,-0.8206 -1.4483,-1.031 -0.2625,-0.0939 -0.5129,-0.146 -0.7493,-0.146 -0.4816,0 -0.8972,0.2173 -1.191,0.7319 -0.3842,0.6799 -0.193,1.3284 0.4503,1.7526 0.5685,0.3755 1.0623,0.8154 1.5022,1.3248 4.9186,2.0203 9.4182,4.9273 14.2429,7.0537 17.3933,7.6622 35.5481,13.198 53.7795,18.473 4.7013,1.3596 9.4425,2.5384 14.229,3.5433 2.4132,0.8485 5.1168,0.5268 7.4101,1.8586 l -0.004,-0.003 c 1.2275,0.4364 2.5732,0.6067 3.7989,0.7267 7.5509,0.7528 14.7662,3.1504 22.2354,4.3066 4.4961,0.6972 8.9975,1.5057 13.464,2.4411 3.0948,0.6485 6.2209,1.1353 9.3348,1.6812 7.5839,1.3196 15.2096,2.2498 22.8596,2.9644 5.9739,0.5598 11.9618,0.9875 17.9531,1.3683 4.357,0.2764 8.7106,0.6746 13.078,0.6746 1.4309,0 2.8653,-0.0435 4.2979,-0.1478 -0.3042,-0.6624 -0.718,-0.8571 -1.1614,-0.8763 0.7703,-0.1269 1.3701,-0.5268 1.1667,-2.0376 -0.6155,-1.1232 -1.7613,-0.9163 -2.754,-1.1145 -1.3005,-0.2591 -2.6271,-0.2904 -3.9502,-0.3512 0.0226,-0.004 0.0452,-0.007 0.0695,-0.0122 2.2568,-0.4225 4.3831,-1.3474 6.6816,-1.6047 0.3217,-0.0366 0.572,-0.1983 0.7337,-0.4434 -3.4581,-0.0574 -6.9771,-0.2695 -10.6335,-0.6676 l -4.3605,0.1547 -26.5125,-0.5112 c -22.5762,-1.5247 -45.6183,-2.7279 -70.2861,-11.3393 0,0 -38.0066,-9.0914 -45.6357,-16.6944 -6.0365,-6.0122 -0.0243,-43.3112 2.1681,-52.3 4.7882,-19.6483 15.533,-52.6406 21.5643,-67.8311 m -68.8604,72.8419 c -0.4573,0 -0.8902,-0.0626 -1.3058,-0.1721 0.16,0.0156 0.3234,0.0243 0.4869,0.0261 0.4537,0.009 0.8971,0.033 1.3178,0.1217 -0.1686,0.0173 -0.3355,0.0243 -0.4989,0.0243 m 2.0463,0.7702 c -0.0799,-0.0661 -0.1599,-0.1391 -0.2416,-0.2121 0.0817,0.0661 0.1617,0.1356 0.2416,0.2121 m 18.7929,40.8232 c -0.2799,0 -0.5789,-0.0765 -0.8936,-0.2069 0.3112,0.1217 0.6155,0.193 0.9058,0.2069 -0.004,0 -0.009,0 -0.0122,0 m 173.3282,36.7635 c -0.7685,-0.0522 -1.5335,-0.1339 -2.2881,-0.2991 0.2,-0.0678 0.393,-0.0956 0.5825,-0.0956 0.3877,0 0.758,0.1165 1.1336,0.233 0.1877,0.0591 0.3773,0.1182 0.572,0.1617 m 4.9012,3.7519 c -0.0695,0 -0.1373,-0.005 -0.2017,-0.0156 0.3251,-0.0922 0.7216,-0.1009 1.1162,-0.1235 -0.066,0.014 -0.1339,0.0261 -0.1999,0.04 -0.2486,0.0487 -0.4921,0.0991 -0.7146,0.0991 m -127.136,-37.0607 c -0.0765,1.909 -0.1409,3.5537 -0.193,4.8577 4.2092,2.2655 8.6045,4.5848 11.9131,4.5848 0.8224,0 1.5769,-0.1426 2.2446,-0.466 -4.1953,-2.9313 -9.5834,-5.5392 -13.9647,-8.9765" /></clipPath><linearGradient
       id="linearGradient96"
       spreadMethod="pad"
       gradientTransform="matrix(216.0864,0,0,-216.0864,122.234,417.0236)"
       gradientUnits="userSpaceOnUse"
       y2="0"
       x2="1"
       y1="0"
       x1="0"><stop
         id="stop92"
         offset="0"
         style="stop-opacity:1;stop-color:#65686d" /><stop
         id="stop94"
         offset="1"
         style="stop-opacity:1;stop-color:#211c1c" /></linearGradient><clipPath
       id="clipPath106"
       clipPathUnits="userSpaceOnUse"><path
         id="path104"
         d="M 0,111.733 H 612 V 680.2671 H 0 Z" /></clipPath><clipPath
       id="clipPath212"
       clipPathUnits="userSpaceOnUse"><path
         id="path210"
         d="M 0.1043182,111.733 H 611.80532 V 679.9785 H 0.1043182 Z" /></clipPath><clipPath
       id="clipPath224"
       clipPathUnits="userSpaceOnUse"><path
         id="path222"
         d="m 557.2712,336.6638 c -0.2156,26.1595 -5.1533,53.3518 -14.8132,81.5716 -3.8128,8.8966 -7.9734,17.4212 -12.4782,25.5701 l 58.4426,18.6417 c 7.6778,-34.352 10.6543,-83.6788 -8.4377,-111.4553 -3.8197,-4.2231 -8.3524,-7.8482 -13.6708,-10.8073 -2.1577,-1.2014 -4.3119,-2.3611 -6.6573,-3.1383 -0.7406,-0.3042 -1.61,-0.193 -2.3854,-0.3825 m -45.9017,136.0727 c -4.3466,5.8296 -8.9158,11.4106 -13.7144,16.7517 14.8445,4.9169 33.7348,11.0699 50.4778,11.0699 7.1441,0 13.897,-1.1214 19.7805,-3.9363 l -56.5439,-23.8853" /></clipPath><linearGradient
       id="linearGradient238"
       spreadMethod="pad"
       gradientTransform="matrix(93.38946,133.3739,133.3739,-93.38946,492.2132,362.1261)"
       gradientUnits="userSpaceOnUse"
       y2="0"
       x2="1"
       y1="0"
       x1="0"><stop
         id="stop234"
         offset="0"
         style="stop-opacity:1;stop-color:#ba37a2" /><stop
         id="stop236"
         offset="1"
         style="stop-opacity:1;stop-color:#53b3e8" /></linearGradient><clipPath
       id="clipPath248"
       clipPathUnits="userSpaceOnUse"><path
         id="path246"
         d="m 547.0724,334.9756 c -4.3362,0 -8.9401,0.5564 -13.8326,1.7439 -0.6068,0.0956 -1.2171,0.226 -1.8273,0.3894 -1.3214,0.4312 -2.608,0.9197 -3.872,1.4657 -12.5147,6.0417 -24.7738,23.9393 -30.8156,31.824 -2.1315,4.9464 -4.3431,9.8633 -6.3251,14.8705 -3.9224,9.9016 -7.2467,20.0117 -10.258,30.2314 -2.1663,7.358 -4.0632,14.775 -5.5567,22.2981 -0.1582,0.7876 -0.5737,1.5247 -0.871,2.2845 -0.4469,2.6671 -0.8937,5.3324 -1.3422,7.9995 0.9614,0.8624 0.9388,1.9803 0.7493,3.1017 -1.3527,7.9891 -1.2083,15.8494 1.9734,23.456 l 0.0139,0.4381 c -0.0313,0.3303 -0.1739,0.6033 -0.346,0.8658 0.1217,0.2417 0.2469,0.4782 0.3755,0.7129 0.7494,1.0605 1.5005,2.1211 2.2498,3.1817 0.2295,-0.0522 0.4625,-0.0852 0.6955,-0.0852 0.2312,0 0.4624,0.0313 0.6972,0.113 1.0362,1.3457 2.1646,2.5628 3.3712,3.6668 2.9539,1.4639 6.2852,2.8374 10.025,4.1449 1.7525,0.5737 3.5815,1.1805 5.4784,1.8099 4.7986,-5.3411 9.3678,-10.9221 13.7144,-16.7517 l -6.014,-2.5402 13.1059,-30.0645 11.5184,3.6737 c 4.5048,-8.1489 8.6654,-16.6735 12.4782,-25.5701 9.6599,-28.2198 14.5976,-55.4121 14.8132,-81.5716 -0.3877,-0.0956 -0.7511,-0.2677 -1.0658,-0.6033 -0.2573,-0.0574 -0.5129,-0.1095 -0.7737,-0.1634 -0.0643,-0.004 -0.1286,-0.009 -0.193,-0.0139 -1.4795,-0.2347 -2.9591,-0.4712 -4.437,-0.7059 -0.002,0 -0.003,-0.002 -0.005,-0.002 -0.6989,-0.073 -1.4031,-0.1304 -2.0898,-0.1738 -0.5407,-0.0174 -1.0867,-0.0261 -1.6343,-0.0261" /></clipPath><linearGradient
       id="linearGradient262"
       spreadMethod="pad"
       gradientTransform="matrix(93.38946,133.3739,133.3739,-93.38946,492.2132,362.1261)"
       gradientUnits="userSpaceOnUse"
       y2="0"
       x2="1"
       y1="0"
       x1="0"><stop
         id="stop258"
         offset="0"
         style="stop-opacity:1;stop-color:#b533a0" /><stop
         id="stop260"
         offset="1"
         style="stop-opacity:1;stop-color:#4ca6e1" /></linearGradient><clipPath
       id="clipPath272"
       clipPathUnits="userSpaceOnUse"><path
         id="path270"
         d="m 518.4614,440.1318 -13.1059,30.0645 62.5579,26.4255 c 6.5599,-3.1399 12.047,-8.3593 15.7694,-16.5187 1.6709,-5.1794 3.2878,-11.1551 4.7396,-17.6559 l -69.961,-22.3154" /></clipPath><linearGradient
       id="linearGradient286"
       spreadMethod="pad"
       gradientTransform="matrix(93.38946,133.3739,133.3739,-93.38946,492.2132,362.1261)"
       gradientUnits="userSpaceOnUse"
       y2="0"
       x2="1"
       y1="0"
       x1="0"><stop
         id="stop282"
         offset="0"
         style="stop-opacity:1;stop-color:#b633a0" /><stop
         id="stop284"
         offset="1"
         style="stop-opacity:1;stop-color:#4ca8e2" /></linearGradient><clipPath
       id="clipPath296"
       clipPathUnits="userSpaceOnUse"><path
         id="path294"
         d="m 555.2231,335.8571 c 0.005,0.009 0.0104,0.0174 0.0156,0.0261 0.0644,0.005 0.1287,0.0104 0.193,0.0139 -0.0695,-0.0139 -0.1391,-0.0278 -0.2086,-0.04 m 0.9823,0.2034 c 0.3147,0.3356 0.6781,0.5077 1.0658,0.6033 0.7754,0.1895 1.6448,0.0783 2.3854,0.3825 2.3454,0.7772 4.4996,1.9369 6.6573,3.1383 5.3184,2.9591 9.8511,6.5842 13.6708,10.8073 -1.4778,-2.1489 -3.0895,-4.1727 -4.8386,-6.047 29.3187,23.2456 29.2717,81.3665 22.4024,120.4128 -1.1197,6.3599 -2.4133,12.233 -3.7972,17.3481 -0.5807,1.4552 -1.2205,2.8235 -1.9143,4.1119 0.002,-0.002 0.002,-0.002 0.002,-0.003 0.6937,-1.2866 1.3318,-2.6532 1.9125,-4.1084 11.4193,-42.1932 17.1447,-134.7704 -37.5459,-146.6453" /></clipPath><linearGradient
       id="linearGradient310"
       spreadMethod="pad"
       gradientTransform="matrix(93.38946,133.3739,133.3739,-93.38946,492.2132,362.1261)"
       gradientUnits="userSpaceOnUse"
       y2="0"
       x2="1"
       y1="0"
       x1="0"><stop
         id="stop306"
         offset="0"
         style="stop-opacity:1;stop-color:#b632a0" /><stop
         id="stop308"
         offset="1"
         style="stop-opacity:1;stop-color:#4ba9e3" /></linearGradient><clipPath
       id="clipPath320"
       clipPathUnits="userSpaceOnUse"><path
         id="path318"
         d="m 550.7965,335.1755 c 0.002,0 0.003,0.002 0.005,0.002 1.4779,0.2347 2.9575,0.4712 4.437,0.7059 -0.005,-0.009 -0.0104,-0.0174 -0.0156,-0.0261 -1.4309,-0.2817 -2.907,-0.5112 -4.4196,-0.6816 -0.004,0 -0.004,0 -0.007,0" /></clipPath><linearGradient
       id="linearGradient334"
       spreadMethod="pad"
       gradientTransform="matrix(93.38946,133.3739,133.3739,-93.38946,492.2132,362.1261)"
       gradientUnits="userSpaceOnUse"
       y2="0"
       x2="1"
       y1="0"
       x1="0"><stop
         id="stop330"
         offset="0"
         style="stop-opacity:1;stop-color:#b633a0" /><stop
         id="stop332"
         offset="1"
         style="stop-opacity:1;stop-color:#4ca9e3" /></linearGradient><clipPath
       id="clipPath344"
       clipPathUnits="userSpaceOnUse"><path
         id="path342"
         d="m 475.138,476.6571 c 0.6138,1.1249 1.304,2.1976 2.076,3.2234 0.0573,-0.0156 0.1164,-0.0295 0.1738,-0.0417 -0.7493,-1.0606 -1.5004,-2.1212 -2.2498,-3.1817" /></clipPath><linearGradient
       id="linearGradient358"
       spreadMethod="pad"
       gradientTransform="matrix(93.38946,133.3739,133.3739,-93.38946,492.2132,362.1261)"
       gradientUnits="userSpaceOnUse"
       y2="0"
       x2="1"
       y1="0"
       x1="0"><stop
         id="stop354"
         offset="0"
         style="stop-opacity:1;stop-color:#b633a0" /><stop
         id="stop356"
         offset="1"
         style="stop-opacity:1;stop-color:#4caae3" /></linearGradient><clipPath
       id="clipPath368"
       clipPathUnits="userSpaceOnUse"><path
         id="path366"
         d="m 545.5371,334.9008 c -5.0333,0 -9.7346,0.7755 -14.1246,2.2081 0.6102,-0.1634 1.2205,-0.2938 1.8273,-0.3894 4.8925,-1.1875 9.4964,-1.7439 13.8326,-1.7439 0.5476,0 1.0936,0.009 1.6343,0.0261 -1.071,-0.0678 -2.1281,-0.1009 -3.1696,-0.1009 m -17.9966,3.6738 c -35.5586,15.3678 -49.5042,75.2829 -55.8937,109.4923 -1.1562,11.8767 -0.4433,20.8602 3.1157,27.8773 0.1721,-0.2625 0.3147,-0.5355 0.346,-0.8658 l -0.0139,-0.4381 c -3.1817,-7.6066 -3.3261,-15.4669 -1.9734,-23.456 0.1895,-1.1214 0.2121,-2.2393 -0.7493,-3.1017 0.4485,-2.6671 0.8953,-5.3324 1.3422,-7.9995 0.2973,-0.7598 0.7128,-1.4969 0.871,-2.2845 1.4935,-7.5231 3.3904,-14.9401 5.5567,-22.2981 3.0113,-10.2197 6.3356,-20.3298 10.258,-30.2314 1.982,-5.0072 4.1936,-9.9241 6.3251,-14.8705 6.0418,-7.8847 18.3009,-25.7823 30.8156,-31.824 m -49.4572,141.179 c -0.233,0 -0.466,0.033 -0.6955,0.0852 -0.0574,0.0122 -0.1165,0.0261 -0.1738,0.0417 4.7986,6.3756 12.7355,10.9117 24.8381,14.5802 -10.9151,-3.3103 -18.4313,-7.3283 -23.3221,-12.7616 1.0797,0.6277 2.2203,1.2379 3.4217,1.8343 -1.2066,-1.104 -2.335,-2.3211 -3.3712,-3.6668 -0.2348,-0.0817 -0.466,-0.113 -0.6972,-0.113 m 113.7555,7.0606 c 0,0.002 0,0.002 -0.002,0.003 -3.5416,6.5772 -8.4949,11.0125 -14.3559,13.8465 -6.379,3.0861 -13.8361,4.2788 -21.7173,4.2788 -5.967,0 -12.1757,-0.6833 -18.3513,-1.7422 6.1756,1.0589 12.386,1.7422 18.353,1.7422 15.1244,0 28.6771,-4.3866 36.0733,-18.1288 m -89.778,7.6483 c 0.0174,0.005 0.0348,0.0104 0.0522,0.0156 -0.0174,-0.005 -0.0348,-0.0104 -0.0522,-0.0156 m 0.0713,0.0226 c 0.0174,0.003 0.0365,0.0104 0.0522,0.0156 -0.0157,-0.005 -0.0348,-0.0122 -0.0522,-0.0156 m 0.0678,0.0191 c 0.0174,0.005 0.033,0.0104 0.0522,0.0156 -0.0174,-0.005 -0.0348,-0.0104 -0.0522,-0.0156 m 0.08,0.0243 c 0.0208,0.007 0.0452,0.0139 0.066,0.0209 -0.0208,-0.007 -0.0434,-0.0139 -0.066,-0.0209 m 0.113,0.0331 c 0.007,0.003 0.0174,0.007 0.0261,0.009 -0.009,-0.002 -0.0174,-0.005 -0.0261,-0.009 m 0.0713,0.0226 c 0.0104,0.003 0.0191,0.005 0.0295,0.009 -0.009,-0.003 -0.0208,-0.007 -0.0295,-0.009 m 0.0782,0.0226 c 0.007,0.003 0.0157,0.005 0.0243,0.007 -0.009,-0.002 -0.0156,-0.003 -0.0243,-0.007 m 0.073,0.0226 c 0.009,0.002 0.0174,0.005 0.0261,0.007 -0.009,-0.002 -0.0174,-0.005 -0.0261,-0.007" /></clipPath><linearGradient
       id="linearGradient382"
       spreadMethod="pad"
       gradientTransform="matrix(93.38946,133.3739,133.3739,-93.38946,492.2132,362.1261)"
       gradientUnits="userSpaceOnUse"
       y2="0"
       x2="1"
       y1="0"
       x1="0"><stop
         id="stop378"
         offset="0"
         style="stop-opacity:1;stop-color:#b532a0" /><stop
         id="stop380"
         offset="1"
         style="stop-opacity:1;stop-color:#4aa5e1" /></linearGradient><clipPath
       id="clipPath392"
       clipPathUnits="userSpaceOnUse"><path
         id="path390"
         d="m 294.0017,297.8053 c -9.8233,0 -19.6223,0.9145 -29.0978,2.4984 -48.4211,13.5127 -70.2914,79.1671 -69.5073,120.87 1.417,55.4608 65.2267,59.1832 121.4873,61.2052 -41.7204,-1.5021 -87.5891,-3.9449 -109.0873,-27.7225 28.4128,20.9662 81.3021,21.1714 122.972,24.5095 4.2979,0.3443 8.3802,0.5112 12.2313,0.5112 74.5388,0 67.2557,-62.4518 51.827,-110.2296 -7.8795,-24.3982 -20.3994,-41.8089 -35.5412,-53.8612 15.0218,9.8598 28.0477,24.3722 37.4503,44.942 -21.6391,-47.3639 -62.4449,-62.7247 -102.7343,-62.723 m 118.8966,125.6669 c 1.0084,21.7503 -4.8525,41.2491 -24.4052,51.787 8.0081,-4.3153 13.7178,-10.131 17.6002,-16.9934 2.0655,-3.6494 3.6181,-7.6013 4.7187,-11.7741 0.0278,-0.1043 0.0539,-0.2016 0.0817,-0.306 0.066,-0.259 0.1321,-0.5216 0.1947,-0.7823 1.6639,-6.8329 2.1663,-14.2395 1.8099,-21.9312" /></clipPath><linearGradient
       id="linearGradient406"
       spreadMethod="pad"
       gradientTransform="matrix(125.2531,178.8796,178.8796,-125.2531,238.0489,314.4284)"
       gradientUnits="userSpaceOnUse"
       y2="0"
       x2="1"
       y1="0"
       x1="0"><stop
         id="stop402"
         offset="0"
         style="stop-opacity:1;stop-color:#b936a2" /><stop
         id="stop404"
         offset="1"
         style="stop-opacity:1;stop-color:#51aee5" /></linearGradient><clipPath
       id="clipPath416"
       clipPathUnits="userSpaceOnUse"><path
         id="path414"
         d="M 0,111.733 H 612 V 680.2671 H 0 Z" /></clipPath><clipPath
       id="clipPath426"
       clipPathUnits="userSpaceOnUse"><path
         id="path424"
         d="m 579.9847,350.9919 c 19.092,27.7765 16.1155,77.1033 8.4377,111.4553 -1.4518,6.5008 -3.0687,12.4765 -4.7396,17.6559 -3.7224,8.1594 -9.2095,13.3788 -15.7694,16.5187 -5.8835,2.8149 -12.6364,3.9363 -19.7805,3.9363 -16.743,0 -35.6333,-6.153 -50.4778,-11.0699 -0.579,0.6433 -1.1545,1.2779 -1.7404,1.916 9.905,3.6337 21.0567,5.1881 29.7568,9.3539 7.2379,1.6569 13.8326,2.7296 19.8222,3.2512 -0.073,-0.0191 -0.1461,-0.04 -0.2191,-0.0591 2.4393,0.1408 4.8786,0.2834 7.3179,0.4242 0.3773,0.005 0.7529,0.009 1.1249,0.009 11.0352,0 19.7231,-2.2081 26.5351,-6.3391 3.5955,-2.3732 6.7268,-5.3984 9.253,-9.2391 3.6251,-5.5167 4.7569,-11.9479 6.2296,-18.2748 3.2755,-14.0586 3.6946,-28.3936 4.1379,-42.6852 0.2973,-9.5782 -0.146,-19.1928 -1.483,-28.764 -1.4223,-10.1693 -3.646,-20.09 -7.318,-29.6577 -2.6809,-6.9858 -6.3321,-13.1736 -11.0873,-18.4313" /></clipPath><linearGradient
       id="linearGradient440"
       spreadMethod="pad"
       gradientTransform="matrix(93.38946,133.3739,133.3739,-93.38946,492.2132,362.1261)"
       gradientUnits="userSpaceOnUse"
       y2="0"
       x2="1"
       y1="0"
       x1="0"><stop
         id="stop436"
         offset="0"
         style="stop-opacity:1;stop-color:#a22899" /><stop
         id="stop438"
         offset="1"
         style="stop-opacity:1;stop-color:#3884b6" /></linearGradient><clipPath
       id="clipPath450"
       clipPathUnits="userSpaceOnUse"><path
         id="path448"
         d="m 482.1517,483.5334 c 3.9258,3.592 8.681,6.0052 13.763,7.8708 0.5859,-0.6381 1.1614,-1.2727 1.7404,-1.916 -1.8969,-0.6294 -3.7259,-1.2362 -5.4784,-1.8099 -3.7398,-1.3075 -7.0711,-2.681 -10.025,-4.1449" /></clipPath><linearGradient
       id="linearGradient464"
       spreadMethod="pad"
       gradientTransform="matrix(93.38946,133.3739,133.3739,-93.38946,492.2132,362.1261)"
       gradientUnits="userSpaceOnUse"
       y2="0"
       x2="1"
       y1="0"
       x1="0"><stop
         id="stop460"
         offset="0"
         style="stop-opacity:1;stop-color:#9f2598" /><stop
         id="stop462"
         offset="1"
         style="stop-opacity:1;stop-color:#357cb2" /></linearGradient><clipPath
       id="clipPath474"
       clipPathUnits="userSpaceOnUse"><path
         id="path472"
         d="m 575.1461,344.9449 c 1.7491,1.8743 3.3608,3.8981 4.8386,6.047 4.7552,5.2577 8.4064,11.4455 11.0873,18.4313 3.672,9.5677 5.8957,19.4884 7.318,29.6577 1.337,9.5712 1.7803,19.1858 1.483,28.764 -0.4433,14.2916 -0.8624,28.6266 -4.1379,42.6852 -1.4727,6.3269 -2.6045,12.7581 -6.2296,18.2748 -2.5262,3.8407 -5.6575,6.8659 -9.253,9.2391 4.7048,-2.8548 8.5141,-6.6276 11.5845,-11.2263 0.6938,-1.2884 1.3336,-2.6567 1.9143,-4.1119 1.3839,-5.1151 2.6775,-10.9882 3.7972,-17.3481 6.8693,-39.0463 6.9163,-97.1672 -22.4024,-120.4128" /></clipPath><linearGradient
       id="linearGradient488"
       spreadMethod="pad"
       gradientTransform="matrix(93.38946,133.3739,133.3739,-93.38946,492.2132,362.1261)"
       gradientUnits="userSpaceOnUse"
       y2="0"
       x2="1"
       y1="0"
       x1="0"><stop
         id="stop484"
         offset="0"
         style="stop-opacity:1;stop-color:#9f2497" /><stop
         id="stop486"
         offset="1"
         style="stop-opacity:1;stop-color:#347daf" /></linearGradient><clipPath
       id="clipPath498"
       clipPathUnits="userSpaceOnUse"><path
         id="path496"
         d="m 545.2746,503.9502 c 0.073,0.0191 0.1461,0.04 0.2191,0.0591 2.4671,0.2139 4.8299,0.3356 7.0988,0.3651 -2.4393,-0.1408 -4.8786,-0.2834 -7.3179,-0.4242" /></clipPath><linearGradient
       id="linearGradient512"
       spreadMethod="pad"
       gradientTransform="matrix(93.38946,133.3739,133.3739,-93.38946,492.2132,362.1261)"
       gradientUnits="userSpaceOnUse"
       y2="0"
       x2="1"
       y1="0"
       x1="0"><stop
         id="stop508"
         offset="0"
         style="stop-opacity:1;stop-color:#9f2497" /><stop
         id="stop510"
         offset="1"
         style="stop-opacity:1;stop-color:#347db0" /></linearGradient><clipPath
       id="clipPath522"
       clipPathUnits="userSpaceOnUse"><path
         id="path520"
         d="m 478.73,481.6991 c 4.8908,5.4333 12.407,9.4513 23.3221,12.7616 0.004,0 0.005,0 0.009,0.002 0.0174,0.005 0.0348,0.0104 0.0522,0.0156 0.007,0.002 0.0139,0.004 0.0191,0.007 0.0174,0.003 0.0365,0.0104 0.0522,0.0156 0.005,0 0.0104,0.002 0.0156,0.004 0.0174,0.005 0.0348,0.0104 0.0522,0.0156 0.009,0.004 0.0173,0.005 0.0278,0.009 0.0226,0.007 0.0452,0.0139 0.066,0.0209 0.0174,0.004 0.0296,0.009 0.047,0.0122 0.009,0.003 0.0174,0.007 0.0261,0.009 0.0156,0.005 0.0295,0.009 0.0452,0.0139 0.009,0.002 0.0208,0.005 0.0295,0.009 0.0174,0.005 0.0313,0.009 0.0487,0.0139 0.009,0.003 0.0157,0.005 0.0243,0.007 0.0174,0.005 0.0331,0.0104 0.0487,0.0157 0.009,0.002 0.0174,0.005 0.0261,0.007 0.0244,0.007 0.047,0.0139 0.073,0.0226 9.8598,2.7053 22.2059,6.3965 34.698,8.5419 6.1756,1.0589 12.3843,1.7422 18.3513,1.7422 7.8812,0 15.3383,-1.1927 21.7173,-4.2788 5.861,-2.834 10.8143,-7.2693 14.3559,-13.8465 -3.0704,4.5987 -6.8797,8.3715 -11.5845,11.2263 -6.812,4.131 -15.4999,6.3391 -26.5351,6.3391 -0.372,0 -0.7476,-0.004 -1.1249,-0.009 -2.2689,-0.0295 -4.6317,-0.1512 -7.0988,-0.3651 -5.9896,-0.5216 -12.5843,-1.5943 -19.8222,-3.2512 -8.7001,-4.1658 -19.8518,-5.7202 -29.7568,-9.3539 -5.082,-1.8656 -9.8372,-4.2788 -13.763,-7.8708 -1.2014,-0.5964 -2.342,-1.2066 -3.4217,-1.8343" /></clipPath><linearGradient
       id="linearGradient536"
       spreadMethod="pad"
       gradientTransform="matrix(93.38946,133.3739,133.3739,-93.38946,492.2132,362.1261)"
       gradientUnits="userSpaceOnUse"
       y2="0"
       x2="1"
       y1="0"
       x1="0"><stop
         id="stop532"
         offset="0"
         style="stop-opacity:1;stop-color:#9d2497" /><stop
         id="stop534"
         offset="1"
         style="stop-opacity:1;stop-color:#337bae" /></linearGradient><clipPath
       id="clipPath546"
       clipPathUnits="userSpaceOnUse"><path
         id="path544"
         d="M 0,111.733 H 612 V 680.2671 H 0 Z" /></clipPath><clipPath
       id="clipPath562"
       clipPathUnits="userSpaceOnUse"><path
         id="path560"
         d="m 359.2857,315.5863 c 15.1418,12.0523 27.6617,29.463 35.5412,53.8612 15.4287,47.7778 22.7118,110.2296 -51.827,110.2296 -3.8511,0 -7.9334,-0.1669 -12.2313,-0.5112 -41.6699,-3.3381 -94.5592,-3.5433 -122.972,-24.5095 21.4982,23.7776 67.3669,26.2204 109.0873,27.7225 8.142,0.2921 16.1223,0.5494 23.7341,0.9215 2.7244,0.1339 5.3515,0.2 7.8899,0.2 4.51,0 8.7349,-0.2069 12.6868,-0.6051 0.5199,-0.0522 1.0293,-0.1078 1.5387,-0.1669 10.4458,-1.2084 18.9373,-3.7937 25.7597,-7.4692 19.5527,-10.5379 25.4136,-30.0367 24.4052,-51.787 -0.6224,-13.4379 -3.8632,-27.733 -8.1194,-41.3031 -1.118,-3.5642 -2.3072,-7.0832 -3.5364,-10.5187 -0.7128,-1.996 -1.457,-3.9415 -2.2289,-5.8418 -0.7337,-1.803 -1.4918,-3.5607 -2.2776,-5.2803 -9.4026,-20.5698 -22.4285,-35.0822 -37.4503,-44.942" /></clipPath><linearGradient
       id="linearGradient576"
       spreadMethod="pad"
       gradientTransform="matrix(125.2531,178.8796,178.8796,-125.2531,238.0489,314.4284)"
       gradientUnits="userSpaceOnUse"
       y2="0"
       x2="1"
       y1="0"
       x1="0"><stop
         id="stop572"
         offset="0"
         style="stop-opacity:1;stop-color:#a22799" /><stop
         id="stop574"
         offset="1"
         style="stop-opacity:1;stop-color:#3681b6" /></linearGradient></defs><sodipodi:namedview
     inkscape:current-layer="g36"
     inkscape:window-maximized="0"
     inkscape:window-y="23"
     inkscape:window-x="0"
     inkscape:cy="528"
     inkscape:cx="408"
     inkscape:zoom="0.95454545"
     showgrid="false"
     id="namedview30"
     inkscape:window-height="1395"
     inkscape:window-width="1922"
     inkscape:pageshadow="2"
     inkscape:pageopacity="0"
     guidetolerance="10"
     gridtolerance="10"
     objecttolerance="10"
     borderopacity="1"
     bordercolor="#666666"
     pagecolor="#ffffff" /><g
     transform="matrix(1.3333333,0,0,-1.3333333,0,1056)"
     inkscape:label="p1um-icon"
     inkscape:groupmode="layer"
     id="g36"><g
       id="g38" /><g
       id="g40"><g
         clip-path="url(#clipPath46)"
         id="g42"><path
           id="path48"
           style="fill:#4ea03c;fill-opacity:1;fill-rule:evenodd;stroke:none"
           d="M 0,459.7645 C 81.7333,529.7394 185.0379,560.7758 309.9102,552.8719 265.0968,490.547 184.5354,460.7833 68.23452,463.5773 42.86086,466.566 20.11255,465.2951 0,459.7645" /><path
           id="path50"
           style="fill:#6ab536;fill-opacity:1;fill-rule:evenodd;stroke:none"
           d="M 309.9102,552.8719 C 207.3863,553.0354 104.0852,521.999 0,459.7645 11.03686,471.4916 18.16875,484.4809 21.40087,498.7308 64.43386,605.1632 160.6048,623.212 309.9102,552.8719" /><path
           id="path52"
           style="fill:#6ab536;fill-opacity:1;fill-rule:evenodd;stroke:none"
           d="m 264.6761,550.9247 c -2.4376,-0.2226 -5.3707,-0.5008 -5.3707,-0.5008 -4.3309,-16.6231 -11.5914,-34.2024 -25.2102,-53.0718 13.3267,12.7233 23.5186,30.5808 30.5809,53.5726 z M 160.8743,531.292 c 2.8009,0.8015 4.2023,1.2014 4.2023,1.2014 -1.57,-21.1036 -8.5367,-40.811 -20.8915,-59.1206 9.0896,19.125 14.6532,38.4308 16.6892,57.9192 z m -44.9698,-14.9992 c 2.9435,1.0936 4.4144,1.643 4.4144,1.643 -1.9056,-16.1102 -8.0569,-32.0187 -18.4383,-47.7273 7.7265,15.4512 12.4017,30.8104 14.0239,46.0843 z M 66.95489,495.5421 c 3.49813,1.6309 5.24372,2.448 5.24372,2.448 -2.5697,-11.5097 -6.55639,-21.2965 -11.96355,-29.3568 5.46801,9.4477 7.70911,18.4191 6.71983,26.9088 z m 137.99381,46.6546 c 3.6616,0.7268 5.4889,1.0901 5.4889,1.0901 -2.754,-19.9508 -10.2875,-40.2703 -22.5901,-60.9635 10.397,26.7906 16.1032,46.7485 17.1012,59.8734" /><path
           id="path54"
           style="fill:#342a75;fill-opacity:1;fill-rule:evenodd;stroke:none"
           d="m 310.3066,548.807 c -17.0821,-308.022 -15.2548,-452.50618 5.4645,-433.4507 33.6809,-10.3327 78.1778,3.2617 110.1426,17.8366 50.4918,26.5803 86.6902,62.3389 108.5779,107.2739 27.4409,53.8438 30.101,113.1018 7.9664,177.7686 -28.4736,66.442 -76.2496,112.0169 -143.3158,136.7351 -36.3079,10.2405 -65.9204,8.1872 -88.8356,-6.1635" /><path
           id="path56"
           style="fill:#6ab536;fill-opacity:1;fill-rule:evenodd;stroke:none"
           d="m 307.231,532.6342 c 8.6757,0.3773 13.0154,0.5668 13.0154,0.5668 -7.3336,61.4556 6.1617,103.7149 35.3725,134.7043 -3.0791,11.8123 -22.6944,15.7747 -29.9914,8.2047 -24.0628,-27.933 -27.3644,-76.3227 -18.3965,-143.4758" /><path
           id="path58"
           style="fill:#4d389b;fill-opacity:1;fill-rule:evenodd;stroke:none"
           d="M 208.5042,549.8763 C 406.4202,592.3911 478.8344,386.7748 456.8354,255.7216 439.3812,138.4767 320.9557,84.22947 211.4721,128.5421 17.49068,207.0554 18.56342,488.7789 208.5042,549.8763" /></g></g><g
       id="g60"><g
         clip-path="url(#clipPath66)"
         id="g62"><path
           id="path68"
           style="fill:#5c47a7;fill-opacity:1;fill-rule:evenodd;stroke:none"
           d="m 310.3066,548.807 c 76.1262,-23.7359 124.4881,-86.1338 145.084,-187.1885 10.6648,-74.1268 3.4181,-131.088 -21.7625,-170.8715 -27.3123,-42.3045 -66.4229,-67.4834 -117.3336,-75.5455 50.5317,-1.0866 95.1642,24.454 133.8958,76.6304 58.3695,109.8384 6.4278,340.3729 -139.8837,356.9751" /><path
           id="path70"
           style="fill:#5c47a7;fill-opacity:1;fill-rule:evenodd;stroke:none"
           d="M 339.0115,148.2426 C 466.8691,215.1627 342.3671,532.6307 230.8631,530.9895 80.51277,525.0329 40.5763,267.5774 182.9202,166.3592 241.0237,133.8554 292.6299,122.5334 339.0115,148.2426" /><path
           id="path72"
           style="fill:#ffffff;fill-opacity:1;fill-rule:evenodd;stroke:none"
           d="m 140.1567,440.2848 c -5.5219,-44.2344 36.4505,-48.4627 46.4129,-9.6199 5.7305,20.8341 12.0522,35.1605 22.9222,60.8436 6.2121,17.0386 -2.4689,21.1905 -25.751,11.8871 -23.3342,-11.9236 -38.2413,-33.8982 -43.5841,-63.1108" /><path
           id="path74"
           style="fill:#595657;fill-opacity:1;fill-rule:nonzero;stroke:none"
           d="m 567.9134,496.6218 -62.5579,-26.4255 13.1059,-30.0645 69.961,22.3154 c -1.4518,6.5008 -3.0687,12.4765 -4.7396,17.6559 -3.7224,8.1594 -9.2095,13.3788 -15.7694,16.5187" /></g></g><g
       id="g76"><g
         clip-path="url(#clipPath82)"
         id="g78"><g
           id="g84"><g
             id="g90"><path
               id="path98"
               style="fill:url(#linearGradient96);stroke:none"
               d="M 0,111.733 H 612 V 680.2671 H 0 Z" /></g></g></g></g><g
       id="g100"><g
         clip-path="url(#clipPath106)"
         id="g102"><path
           id="path108"
           style="fill:#231f20;fill-opacity:1;fill-rule:nonzero;stroke:none"
           d="m 158.694,411.0896 c -0.5337,0.6538 -1.0536,1.8986 -2.0324,0.9372 -1.6552,-1.6257 -1.5509,-0.005 -1.843,0.8501 -0.9771,2.8705 -1.217,2.5072 -4.1936,2.0638 -5.0855,-0.758 -9.4147,-3.5625 -14.3472,-4.5865 -1.1319,-0.2347 -2.3402,0.2104 -3.8806,-0.8554 0.8832,1.6326 1.8464,1.8812 2.8896,1.9594 1.6951,0.1252 3.1295,0.9354 4.5413,1.7647 0.652,0.3843 1.2518,1.0119 0.7702,1.8447 -0.4799,0.8346 -1.2292,0.5668 -1.9647,0.2452 -5.2246,-2.2881 -10.4613,-4.557 -15.6964,-6.8329 -3.5624,-0.1947 -7.0849,-0.1008 -10.0893,2.1803 -1.2483,0.9493 -2.4758,0.8276 -3.7815,0.3303 -4.2979,-1.6343 -8.5489,-3.4181 -12.85896,-4.9881 -5.58797,-2.0377 -11.01252,-4.4179 -16.48922,-6.7007 -3.71547,-1.5474 -5.81748,-1.2727 -8.62886,3.6459 -0.37206,0.6468 -0.78586,1.0693 -1.61519,1.0171 1.42916,0.2434 2.47408,1.1805 3.51552,2.0325 3.11216,2.5418 6.4034,4.8699 9.72246,7.0866 5.04204,3.366 10.05453,6.8242 15.26349,9.9033 5.29416,3.1313 10.57616,6.3269 16.04936,9.1626 0.2643,0.1374 0.5216,0.2886 0.7789,0.4382 0.998,0.5772 2.1072,1.1944 1.3631,2.5749 -0.652,1.2101 -1.7473,1.1962 -2.867,0.5581 -5.289,-3.133 -10.6127,-6.2122 -15.85639,-9.4217 -4.10318,-2.5123 -8.04293,-5.2959 -12.17045,-7.7665 -9.21999,-5.5236 -17.76539,-11.9774 -26.10389,-18.7164 -6.0887,-4.9203 -12.16002,-9.8859 -16.7222,-16.3588 -1.19445,-1.6917 -2.40627,-3.4234 -2.92091,-5.4976 -0.41901,-1.3787 0.3512,-2.94 -0.77022,-4.2527 -0.33555,-0.3929 -0.09214,-1.1684 0.41554,-1.61 0.52854,-0.459 1.09012,-0.2903 1.683,-0.0991 1.1162,0.3617 1.71255,1.4083 2.7001,1.9543 1.18575,0.6554 1.83078,0.5076 1.87947,-0.9528 0.01217,-0.3738 0.06954,-0.7615 -0.02782,-1.1162 -0.56854,-2.0777 -0.11823,-3.5155 2.25153,-3.9415 1.09534,-0.1965 0.99276,-0.9232 0.51116,-1.6795 -0.27992,-0.4417 -0.66416,-0.8172 -0.88497,-1.2918 -0.61721,-1.3371 -0.1669,-2.8271 1.11099,-3.4443 1.33875,-0.6468 2.59405,-0.725 3.40078,0.8798 1.04665,2.0794 2.54362,3.6476 4.84731,4.3587 0.95452,0.2939 1.60477,1.038 2.22372,1.8065 2.12983,2.6357 4.74126,4.8612 6.56335,7.7647 0.48682,0.7755 1.33528,1.2032 2.1959,1.4761 1.7282,0.5477 3.26342,1.4605 4.81255,2.3611 9.80938,5.7114 20.05517,10.5083 30.59135,14.7141 5.2576,2.1002 10.3066,4.6839 15.5329,6.8711 1.6796,0.7006 3.5781,0.7389 5.0786,1.6325 3.6807,2.189 8.0829,1.7352 11.861,3.5121 1.2744,0.5981 2.5384,0.1773 3.1782,-1.231 0.4955,-1.0936 1.2918,-1.3474 2.3663,-1.0953 0.2156,-0.0122 0.4207,0.0278 0.6189,0.1095 1.3909,2.6967 4.1554,2.5176 6.5303,2.9157 0.9441,0.1582 1.7926,0.4729 2.6862,0.7042 1.8743,0.5911 3.752,1.1822 5.628,1.7734 0.4747,0.3807 1.0032,0.3929 1.5874,0.3199 0.4155,-0.0522 0.8815,0.0452 0.5963,0.6902" /><path
           id="path110"
           style="fill:#5f5c5d;fill-opacity:1;fill-rule:nonzero;stroke:none"
           d="m 337.3354,495.2883 c -2.0394,-0.12 -4.0805,-0.2417 -6.1217,-0.3616 1.7352,-1.5474 4.47,0.1391 5.6888,-2.3993 0.7442,-1.3197 2.0325,-1.3336 3.3,-1.3458 1.7108,-0.0173 3.4199,0.24 5.1307,0.0939 17.0769,-0.3164 33.9799,-2.3071 50.7768,-5.3063 0.8589,-0.0435 1.7265,0.0609 2.5819,-0.1026 0.3704,-0.0591 0.7233,-0.193 1.0901,-0.2695 1.4779,0.2661 2.9088,0.2209 4.3866,-0.1877 2.5315,-0.7007 5.1742,-0.2469 7.7578,-0.5181 0.619,-0.0661 1.1093,0.3772 1.6152,0.6798 0.5981,0.3564 1.1162,0.8189 0.9945,1.5926 -0.1669,1.0414 -1.0049,0.5981 -1.6047,0.6363 -0.2956,0.0191 -0.5894,-0.005 -0.8468,0.1773 -23.3707,3.0583 -46.5885,7.5509 -70.293,7.4588 -1.4866,-0.005 -2.9714,-0.0956 -4.4562,-0.1478" /><path
           id="path112"
           style="fill:#636060;fill-opacity:1;fill-rule:nonzero;stroke:none"
           d="m 459.3269,490.8739 c -2.2985,-0.6589 -4.5344,-1.5422 -6.9268,-1.8377 -3.4581,-1.3892 -7.2014,-0.7807 -10.7534,-1.5196 -0.4225,-0.033 -0.845,-0.0678 -1.2675,-0.1008 -0.725,-0.5199 -1.5926,-0.1774 -2.3663,-0.393 -0.4572,-0.1286 -0.8606,-0.3668 -0.7945,-0.9075 0.0608,-0.5042 0.4937,-0.6051 0.9319,-0.6242 -0.2973,-0.0174 -0.692,-0.1078 -0.8711,0.0713 -1.8534,1.8516 -4.0736,1.1475 -6.2469,1.0136 -1.2623,-0.0765 -2.5714,0.1391 -3.8076,0.2434 -2.5749,0.2139 -4.6248,-1.3318 -7.0711,-1.4483 -1.3596,-0.066 -2.7018,-0.9893 -4.0579,-1.4952 -1.6691,-0.6224 -3.26,-0.8815 -4.9725,-0.8033 -0.8294,0.0383 -1.6343,-0.0678 -2.4185,-0.3338 -1.6638,-0.5615 -3.2234,-0.5963 -4.9812,0.0226 -1.6412,0.5773 -3.5277,0.1426 -5.2924,0.0244 -1.0849,-0.0731 -2.0342,0.0626 -3.0235,0.4433 -2.7766,1.071 -6.7007,-0.4399 -8.2602,-3.14 1.7664,-1.6864 4.0858,-2.2637 6.3008,-2.1524 3.3312,0.1652 6.6294,0.1774 9.9624,0.1443 4.4213,-0.04 8.8896,-0.153 13.3058,0.7042 2.6479,0.5146 5.3115,0.8815 8.0777,0.8745 5.3028,-0.0156 10.4248,1.304 15.3382,3.333 1.8517,0.7632 3.7537,0.9128 5.701,0.4781 1.3753,-0.3077 2.6845,-0.2052 3.8337,0.6607 1.7334,1.3057 3.8667,0.9267 5.7966,1.3596 3.1383,0.7041 5.9757,2.2793 9.1418,2.867 1.0258,0.1913 1.6534,0.9632 1.6638,2.0951 -0.2416,1.0292 -0.9423,1.5526 -1.9351,1.3161 -1.6569,-0.3947 -3.4494,-0.003 -5.0072,-0.8954" /><path
           id="path114"
           style="fill:#6c696a;fill-opacity:1;fill-rule:nonzero;stroke:none"
           d="m 387.4186,480.2369 0.4329,0.087 c 3.8876,3.8997 8.3768,1.3909 12.6921,1.3613 3.0634,-0.0191 6.1947,-1.5874 9.253,0.1739 0.9649,0.5546 2.0272,-0.1443 3.0565,-0.1739 2.3089,-0.0661 4.1727,1.9003 6.5477,1.2657 l 0.2173,0.0296 c 1.0624,0.0487 -0.2747,1.5874 0.9702,1.5456 0.9928,-0.033 0.8537,-1.1388 1.4918,-1.4865 l 0.4259,-0.0261 c -0.3373,1.8639 1.8308,1.4953 2.302,2.6028 0.1339,0.3147 -0.0261,0.7928 0.5285,0.725 0.4486,-0.0539 0.5094,-0.4729 0.5686,-0.845 0.0782,-0.4799 0.2886,-0.8728 0.8189,-0.9093 0.7024,-0.0469 0.7719,0.4677 0.9075,1.0136 0.3199,1.2831 0.9789,1.5752 1.7091,0.3078 0.5772,-1.0032 1.0067,-0.6242 1.7525,-0.1948 1.3875,0.7963 2.9227,2.0777 4.1015,-0.4051 0.2903,-0.6137 5.6001,-0.3338 6.0209,0.2348 l 0.0834,0.572 c -0.2208,0.1634 -0.532,0.3251 -0.7876,0.2973 -0.791,-0.087 -1.5717,-0.2608 -2.7661,-0.4729 0.8102,1.2274 2.0324,0.7945 2.634,1.4761 -9.4495,-0.739 -18.8746,-0.2243 -28.2946,0.5615 0.546,-0.2121 1.0919,-0.4242 1.7613,-0.6832 -0.8224,-1.2293 -1.9421,-1.1249 -3.1539,-1.1875 -3.7416,-0.1948 -7.3996,0.7789 -11.1255,0.6641 -0.2365,-0.6398 -0.1061,-1.5404 -1.1458,-1.6065 -1.4379,-0.9075 -2.8566,-1.3283 -4.4683,-0.2834 -0.8485,0.5512 -1.8412,0.2869 -2.8009,-0.002 -2.2325,-0.6676 -4.404,-0.7076 -6.7407,-0.0504 -2.4846,0.6989 -5.1551,0.8137 -6.972,-1.7647 -0.007,-0.5721 0.2139,-1.111 0.7789,-1.1771 2.7784,-0.3199 5.2507,-1.8117 8.0482,-2.0481 0.4781,-0.04 0.8623,-0.0104 1.1527,0.3981" /><path
           id="path116"
           style="fill:#4f4c4c;fill-opacity:1;fill-rule:nonzero;stroke:none"
           d="m 46.33814,353.7094 c -0.49378,-2.1298 -0.98755,-4.2597 -1.48132,-6.3877 0.89192,-2.2029 1.65866,-4.4649 2.70532,-6.5895 1.42916,-2.9 3.53812,-3.7241 6.52162,-2.8357 1.3318,1.6378 -0.01738,3.2495 -0.18082,4.8213 -0.26253,2.514 -1.23095,4.8907 -2.61491,7.064 -0.97363,1.5266 -1.17358,3.1522 -0.31121,4.823 0.2069,0.7476 0.32686,1.4865 -0.14605,2.1855 -1.64649,1.1892 -3.75719,0.3147 -4.29269,-1.7856 -0.1078,-0.4225 0.0991,-0.8971 -0.19994,-1.2953" /><path
           id="path118"
           style="fill:#6c696a;fill-opacity:1;fill-rule:nonzero;stroke:none"
           d="m 459.3269,490.8739 c 1.5004,-0.0817 3.0026,-0.2504 4.4996,-0.2069 0.6398,0.0191 1.2744,0.2921 1.9298,0.0452 0.8676,-1.0884 1.9004,-0.4746 2.8636,-0.2364 0.8623,0.2156 1.6708,0.6172 2.4984,0.944 0.8137,0.8068 1.9421,1.0971 2.8653,1.7265 l 0.1321,0.3077 c 0.4607,0.7529 1.217,1.1406 2.0047,1.3179 4.849,1.0936 9.2078,3.559 13.956,4.9325 0.5563,0.16 1.1666,0.3878 1.5717,0.7737 2.4428,2.3211 5.4524,2.9123 8.6532,2.9592 0.3895,0.007 0.8311,-0.0174 0.9997,0.3321 0.7876,1.6569 2.6966,1.7403 3.8754,2.8357 -5.1255,-1.0762 -9.978,-3.0339 -14.9105,-4.7082 -9.8859,-3.3539 -19.7214,-6.8624 -29.5725,-10.3188 -0.4798,-0.1687 -0.9145,-0.466 -1.3665,-0.7042" /><path
           id="path120"
           style="fill:#b3b1b2;fill-opacity:1;fill-rule:nonzero;stroke:none"
           d="m 50.25528,356.6095 c 0.007,-0.6294 -0.12344,-1.2188 -0.49029,-1.7422 -0.8641,-2.3367 0.03303,-4.6213 1.52131,-5.9565 2.28109,-2.0464 2.10027,-4.7256 2.80789,-7.1528 0.29905,-1.0275 0.42423,-2.1681 0.76326,-3.2286 2.0516,3.5259 1.64649,7.1927 0.8189,10.9673 -0.69545,3.1574 -0.9632,6.4017 -2.20633,9.4443 -0.16864,0.4103 0.32165,1.0918 0.50595,1.6482 -1.19619,-0.2678 -1.41873,-1.7265 -2.54711,-2.0812 -1.27094,-0.0886 -1.15445,-1.0344 -1.17358,-1.8985" /><path
           id="path122"
           style="fill:#656263;fill-opacity:1;fill-rule:nonzero;stroke:none"
           d="m 39.52616,377.9599 c -0.04694,-1.1631 0.87627,-2.2793 0.14952,-3.4773 -1.27963,-6.4416 6.80676,6.1044 7.08494,1.2449 0.42075,-2.5836 -2.12809,-7.3701 2.34021,-6.4069 5.45758,-0.4868 -3.68069,-4.9603 -0.16865,-6.9197 2.6775,-1.1284 2.58883,4.2075 5.09247,4.3883 7.4744,4.124 10.13277,12.5581 19.00677,15.0322 14.42373,6.0766 63.98528,35.8246 74.90398,26.2152 -28.9588,-15.6947 -73.12188,-25.6675 -96.51349,-50.1006 -3.54334,2.1907 -6.27996,-1.1875 -4.10318,-4.4578 -0.14605,-4.9551 -1.07796,-6.8381 -2.46191,-6.1565 l -0.37555,0.0591 c -3.53986,2.7488 -4.68388,6.3217 -3.66852,10.6422 0.49551,2.1176 0.13388,4.1136 -0.83976,6.0348 -0.49899,0.9875 -2.45496,4.9673 -2.55058,6.1095 l 2.10375,7.7926" /><path
           id="path124"
           style="fill:#817e7f;fill-opacity:1;fill-rule:nonzero;stroke:none"
           d="M 78.57593,378.026 Z M 57.03249,363.2528 c 27.08274,16.823 64.21481,31.9857 91.16361,44.3491 -17.9096,-2.9852 -50.03095,-20.5785 -69.62712,-29.5777 l 0.0052,0.002 c -6.33037,-2.4341 -12.03832,-6.3061 -17.92534,-9.6495 -2.00291,-1.1666 -3.51378,-2.6375 -3.61636,-5.1237" /><path
           id="path126"
           style="fill:#211d1d;fill-opacity:1;fill-rule:nonzero;stroke:none"
           d="m 230.3137,481.2732 c 3.2964,-0.4191 6.4677,0.4659 9.6199,1.1214 12.5668,2.6132 25.0607,5.5827 37.7684,7.4883 0.4972,0.0747 0.9632,0.3599 1.4448,0.5459 -4.4979,-0.0765 -8.8097,-1.3474 -13.1946,-2.1176 -11.4263,-2.0064 -22.936,-3.6025 -34.185,-6.5338 -0.4938,-0.1287 -0.9702,-0.3339 -1.4535,-0.5042" /><path
           id="path128"
           style="fill:#848282;fill-opacity:1;fill-rule:nonzero;stroke:none"
           d="m 54.85745,338.5294 c 0.47117,2.9435 -0.37033,5.7514 -0.86931,8.5958 -0.09911,0.565 -0.43119,0.9997 -0.89888,1.2136 -2.84789,1.3039 -3.20604,3.8493 -3.32427,6.5268 -1.09882,-1.2988 -0.74588,-2.7157 -0.04173,-3.9397 2.14374,-3.7329 3.03044,-7.8952 4.29269,-11.9306 0.1078,-0.339 0.05043,-0.7302 0.06781,-1.0988 0.25732,0.2104 0.51464,0.4225 0.77369,0.6329" /><path
           id="path130"
           style="fill:#595657;fill-opacity:1;fill-rule:nonzero;stroke:none"
           d="m 458.7149,403.7908 -0.0783,0.2226 m 0.8328,-3.6877 c 8.9627,-33.6478 48.0299,-73.2105 73.3931,-71.6544 -45.1906,14.1838 -77.8457,65.5327 -75.702,109.9392 -3.1017,9.3243 -2.361,-12.2783 -1.7856,-16.5744" /><path
           id="path132"
           style="fill:#6c696a;fill-opacity:1;fill-rule:nonzero;stroke:none"
           d="m 441.6467,487.5166 c 1.5439,0.0765 3.0913,0.2278 4.6334,0.1878 0.5216,-0.0139 2.1368,1.0553 1.4414,-1.0223 -0.1339,-0.4017 0.6346,-0.4347 1.071,-0.3547 1.0014,0.1808 2.0011,0.3755 3.1347,0.5911 -0.3912,0.6868 -1.4413,0.1947 -1.5456,1.1353 0.419,0.7216 1.4917,0.3426 2.0185,0.9824 -3.5833,-0.506 -7.1684,-1.0137 -10.7534,-1.5196" /><path
           id="path134"
           style="fill:#817e7f;fill-opacity:1;fill-rule:nonzero;stroke:none"
           d="m 158.694,411.0896 c -0.6485,-0.5111 -1.7525,-0.0295 -2.1837,-1.0101 4.1675,0.1982 8.2655,1.2588 12.4678,1.0588 -1.9995,0.8015 -4.0302,0.5355 -6.0835,0.2573 -1.3875,-0.1895 -2.7992,-0.2104 -4.2006,-0.306" /><path
           id="path136"
           style="fill:#211d1d;fill-opacity:1;fill-rule:nonzero;stroke:none"
           d="m 222.9071,479.418 c 2.5714,0.2174 5.3289,-0.3164 7.4101,1.8586 -2.5402,-0.3425 -5.0595,-0.7632 -7.4101,-1.8586" /><path
           id="path138"
           style="fill:#797677;fill-opacity:1;fill-rule:nonzero;stroke:none"
           d="m 338.0431,488.073 c 1.6117,-2.1768 4.0371,-0.9841 5.7357,-0.7633 2.9801,0.386 5.7271,-0.3773 8.5611,-0.5737 4.8056,-0.3321 9.5781,-1.1458 14.3837,-1.5144 2.0238,-0.1547 4.0232,-0.2365 5.8401,-1.144 1.6934,-0.8467 3.5086,-0.5216 5.2507,-0.8241 0.7911,-0.3373 1.4361,0.026 2.0985,0.4016 0.6989,0.3947 1.3979,0.4486 2.0846,-0.0939 0.5999,-0.4746 1.2345,-1.0658 1.5248,0.313 0.073,0.3459 0.5286,0.1999 0.7546,0.0347 1.5248,-1.1214 3.1556,-1.1057 4.969,-0.8536 0.7494,0.1043 1.3422,0.0382 1.9073,0.6433 0.6763,0.7267 1.6986,0.9493 2.4671,0.4468 1.8864,-1.231 3.526,-0.6277 5.1968,0.3495 0.7198,0.791 0.5859,1.5369 -0.12,2.2532 -0.7093,0.4208 -1.4848,0.3582 -2.2585,0.3095 -0.878,-1.7056 -2.4445,-0.9232 -3.5815,-0.7181 -1.57,0.28 -3.2635,0.2869 -4.6978,1.1701 -0.3304,0.2052 -0.7477,0.2365 -1.0502,0.1843 -6.2678,-1.057 -12.4417,0.1078 -18.5512,1.1162 -3.1313,0.5164 -6.1913,0.3982 -9.2878,0.5077 -0.5268,0.0192 -1.0867,-0.0382 -1.5283,0.2382 -3.2338,2.0134 -6.9406,1.1632 -10.4092,1.7404 -0.7389,0.1234 -1.6065,-0.2556 -1.8656,0.8502 -2.8287,0.7059 -5.7305,-0.2243 -8.5645,0.3808 -3.7746,-0.2574 -7.5491,-0.5147 -11.3255,-0.7755 -0.5685,-0.04 -1.3474,0.1947 -1.5526,-0.5233 -0.2277,-0.7928 0.5338,-1.2501 1.0884,-1.4935 1.417,-0.6224 2.9105,-1.2814 4.411,-0.2017 0.5441,0.393 1.144,0.5651 1.6708,0.2556 2.1281,-1.2414 4.5587,-1.1788 6.8485,-1.716" /><path
           id="path140"
           style="fill:#787677;fill-opacity:1;fill-rule:nonzero;stroke:none"
           d="m 185.6255,444.5619 c 0.3877,0.0486 0.5025,0.3129 0.4173,0.6311 -0.1322,0.4938 -0.2452,1.0849 -0.8711,1.1544 -0.4694,0.0522 -0.6172,-0.3564 -0.5546,-0.7511 0.0869,-0.5598 0.426,-0.9319 1.0084,-1.0344" /><path
           id="path142"
           style="fill:#817e7f;fill-opacity:1;fill-rule:nonzero;stroke:none"
           d="m 136.1404,422.2256 c -0.4259,-1.2066 -0.8536,-2.4132 -1.2813,-3.6181 1.2083,0.5685 1.5856,1.7265 1.9525,2.8566 0.1495,0.4642 0.0208,0.9214 -0.6712,0.7615" /><path
           id="path144"
           style="fill:#4b4849;fill-opacity:1;fill-rule:nonzero;stroke:none"
           d="m 556.1115,335.9492 c -0.2938,-0.0208 -0.5824,-0.0434 -0.8728,-0.066 -0.219,-0.3651 -1.1249,-0.1774 -0.8171,-0.9041 0.1356,-0.3251 0.5755,-0.2904 0.8693,0.007 4.5517,0.0957 8.7297,1.5822 12.8033,3.4512 2.1003,1.3144 4.5622,1.9595 6.5216,3.5312 l -0.002,-0.003 c 3.7972,2.6288 7.2988,5.5845 10.4475,8.9818 1.0136,1.0936 1.8221,2.3072 2.7227,3.4669 0.7059,2.0011 2.0481,3.6494 3.2304,5.3358 4.6873,6.692 6.9389,14.4099 9.1365,22.0616 2.6914,9.373 4.1258,19.0381 4.437,28.8092 0.273,8.4741 0.8937,16.976 -0.1565,25.4258 -0.7406,5.9687 -1.0866,11.9705 -2.0238,17.9393 -0.598,3.7989 -1.6743,7.6569 -1.2135,11.694 0.2347,2.0412 -0.5025,4.2892 -1.1753,6.3182 -2.0047,6.054 -2.8219,12.4869 -5.8871,18.2036 -1.6325,3.0426 -3.9641,5.1481 -6.8102,7.1927 -3.5938,2.5819 -7.6031,3.945 -11.4524,5.8018 -1.869,0.9024 -3.7833,1.3283 -5.8488,0.8885 -0.5476,-0.1165 -1.0484,-0.2313 -0.9215,-0.9685 8.3838,-2.5158 15.5261,-6.8884 20.4064,-14.3107 3.6251,-5.5167 4.7569,-11.9479 6.2296,-18.2748 3.2755,-14.0586 3.6946,-28.3936 4.1379,-42.6852 0.2973,-9.5782 -0.146,-19.1928 -1.483,-28.764 -1.4223,-10.1693 -3.646,-20.09 -7.318,-29.6577 -4.8351,-12.5999 -12.8207,-22.5953 -24.7581,-29.2386 -2.1577,-1.2014 -4.3119,-2.3611 -6.6573,-3.1383 -1.151,-0.4712 -2.6079,0.0574 -3.5451,-1.0971" /><path
           id="path146"
           style="fill:#7f7c7d;fill-opacity:1;fill-rule:nonzero;stroke:none"
           d="m 572.5243,506.0261 c -0.3443,1.9786 -2.9314,1.9908 -3.3921,3.8668 l 0.005,-0.005 c -2.6775,1.0849 -5.6888,0.1096 -8.335,1.344 -0.7268,0.339 -1.4031,0.3025 -2.1525,0.0904 -1.5074,-0.4294 -3.0756,-0.7302 -4.6178,-0.3947 -3.7711,0.8189 -7.5822,0.2243 -11.2507,-0.219 -2.8896,-0.3478 -5.8453,-0.0939 -8.6793,-0.8415 -0.7389,-0.1948 -1.2605,0.005 -1.7595,0.4833 -5.9478,-0.9545 -11.8644,-2.0272 -17.6141,-3.9032 -4.59,-1.4987 -9.2391,-2.8131 -13.8587,-4.2197 -0.4242,-0.1287 -0.9145,-0.2295 -1.2205,-0.5112 -0.4781,-0.4364 -1.6326,-0.7337 -0.8989,-1.6534 0.5077,-0.6398 1.311,-0.5459 1.9212,0.186 1.2866,1.5457 3.333,1.8847 4.9013,1.6257 1.982,-0.3286 3.8962,-0.0313 5.8,0.266 1.6535,0.2573 3.3,0.5146 4.976,0.3633 0.7042,-0.0625 1.2814,0.3408 1.8777,0.6451 0.9963,0.5077 2.1647,1.5943 2.9714,1.3752 2.4862,-0.6728 4.6456,0.2487 6.9736,0.5268 2.448,0.2956 5.0143,0.0313 7.5092,0.4243 0.9615,0.1512 1.5961,-0.1461 1.9456,-1.0519 5.614,0.6294 11.2228,1.3075 16.8421,1.8708 6.0227,0.6015 12.0401,0.0539 18.0558,-0.2678" /><path
           id="path148"
           style="fill:#7f7c7d;fill-opacity:1;fill-rule:nonzero;stroke:none"
           d="m 582.9891,503.5155 c -0.9232,0.9702 -2.6097,1.2414 -2.7001,2.9783 -0.0139,0.2608 -0.2764,0.3912 -0.4955,0.2712 -1.876,-1.0397 -3.1452,-0.0747 -4.71,0.9667 -1.1423,0.7615 -1.1857,-1.0275 -1.6656,-1.7299 3.0357,-1.424 6.3686,-1.7039 9.5712,-2.4863" /><path
           id="path150"
           style="fill:#5d5a5b;fill-opacity:1;fill-rule:nonzero;stroke:none"
           d="m 587.7843,354.4136 c -2.7523,-2.5871 -5.1255,-5.5359 -7.9108,-8.1073 -1.1232,-1.0345 -2.4532,-1.6326 -3.5694,-2.5906 -0.6242,-0.532 -1.2953,-1.0014 -1.69,-1.7508 3.6268,1.5735 6.3686,4.2892 9.0253,7.085 1.5595,1.6395 3.6754,2.8739 4.1449,5.3637" /><path
           id="path152"
           style="fill:#5d5a5b;fill-opacity:1;fill-rule:nonzero;stroke:none"
           d="m 555.2909,334.986 c -0.645,0.2626 -0.2243,0.5877 -0.0522,0.8972 -1.4795,-0.2347 -2.9591,-0.4712 -4.437,-0.7059 -0.4277,-0.2417 -0.8536,-0.4834 -1.8707,-1.0588 0.9719,0.1877 1.8707,0.1495 2.7105,0.1112 1.3509,-0.0608 2.5488,-0.1217 3.6494,0.7563" /><path
           id="path154"
           style="fill:#636060;fill-opacity:1;fill-rule:nonzero;stroke:none"
           d="m 545.2746,503.9502 c 3.4303,0.1982 6.8607,0.3981 10.291,0.5981 -3.4721,0.5303 -6.9024,0.3216 -10.291,-0.5981" /><path
           id="path156"
           style="fill:#5d5a5b;fill-opacity:1;fill-rule:nonzero;stroke:none"
           d="m 574.6158,341.9684 c -2.1993,-1.1301 -4.656,-1.7838 -6.5216,-3.5312 2.3785,0.7998 4.7552,1.6031 6.5216,3.5312" /><path
           id="path158"
           style="fill:#4b4849;fill-opacity:1;fill-rule:nonzero;stroke:none"
           d="m 562.767,504.1223 c 0.5825,0.0122 1.1667,0.0261 1.7491,0.04 0.5598,0.3303 0.7163,0.7441 0.1426,1.1771 -0.4764,0.3581 -1.0432,0.5789 -1.6291,0.2834 -0.7146,-0.3617 -0.4955,-0.9441 -0.2626,-1.5005" /><path
           id="path160"
           style="fill:#a19fa0;fill-opacity:1;fill-rule:nonzero;stroke:none"
           d="m 372.409,325.0358 c -0.167,0.4138 -0.3339,0.8293 -0.5025,1.2414 -1.2049,0.1721 -1.5752,-0.9493 -2.3298,-1.4848 -5.4628,-3.8806 -10.816,-7.916 -16.6892,-11.2038 -7.0797,-3.9641 -14.3924,-7.3613 -22.145,-9.7694 -3.6389,-1.1283 -7.264,-2.3628 -11.0872,-2.7418 -0.6416,-0.0643 -1.1076,-0.2086 -1.3614,-0.8171 0.4851,-0.7894 1.1927,-0.7546 1.8986,-0.7216 0.2677,0.0139 0.5337,0.0261 0.7876,-0.005 8.4133,2.0325 16.6387,4.6282 24.5478,8.1664 9.8442,4.4057 18.706,10.3396 26.8811,17.3359" /><path
           id="path162"
           style="fill:#a19fa0;fill-opacity:1;fill-rule:nonzero;stroke:none"
           d="m 378.7984,331.2462 c -2.3993,-0.4451 -3.585,-2.4984 -5.1985,-3.971 -0.2938,-0.266 0.1252,-0.6398 0.5007,-0.7807 1.5648,1.5839 3.1313,3.1678 4.6978,4.7517" /><path
           id="path164"
           style="fill:#787677;fill-opacity:1;fill-rule:nonzero;stroke:none"
           d="m 190.5128,366.2937 c -0.0434,-2.3194 0.7668,-4.3397 2.1351,-6.1705 -0.047,2.2863 -0.5686,4.4092 -2.1351,6.1705" /><path
           id="path166"
           style="fill:#737071;fill-opacity:1;fill-rule:nonzero;stroke:none"
           d="m 50.25528,356.6095 c 0.39294,0.6328 0.78239,1.2657 1.17358,1.8985 -1.02058,0.8033 -1.99421,2.269 -3.36252,1.6796 -1.64475,-0.7077 -2.6462,-2.3176 -3.25647,-4.0563 -0.50594,-1.443 1.22922,-1.4813 1.52827,-2.4219 1.27268,1.0136 1.81339,3.0113 3.91714,2.9001" /><path
           id="path168"
           style="fill:#939191;fill-opacity:1;fill-rule:nonzero;stroke:none"
           d="m 532.3426,510.3501 c 0.1774,-1.1023 0.7459,-1.563 1.876,-1.1857 0.5599,0.186 1.2258,0.5702 1.6969,0.4172 3.5469,-1.1475 7.1215,-0.146 10.5292,0.2904 4.2632,0.5442 8.4063,-0.619 12.7164,0.0939 2.4776,0.4086 5.6123,-0.2643 8.3541,-0.9476 1.1023,-0.2747 1.3005,0.1704 1.6222,0.8693 -0.7754,0.8085 -1.9786,1.191 -2.4915,2.3733 0.9632,0.5946 1.9386,0.0278 2.8131,0.3268 -2.1993,1.0067 -4.5413,0.5408 -6.8224,0.6138 -5.1272,0.1617 -10.2214,-0.1339 -15.3052,-0.9232 -4.9777,-0.772 -9.9902,-1.2953 -14.9888,-1.9282" /><path
           id="path170"
           style="fill:#949293;fill-opacity:1;fill-rule:nonzero;stroke:none"
           d="m 345.467,492.1466 c -1.516,-1.5231 -0.2242,-2.0099 0.9424,-2.0099 2.9591,0.002 5.8435,-0.8988 8.8183,-0.6224 0.4278,0.04 0.8902,-0.4694 1.3562,-0.6833 0.5998,-0.2782 1.3874,-0.8902 1.8064,-0.7059 2.3715,1.0397 4.6022,-0.8484 7.1563,-0.0678 1.2952,0.3964 3.6337,-0.4138 5.4662,-0.8171 4.3066,-0.9528 8.8427,-1.4761 13.0328,-1.1875 3.8737,0.2677 7.2919,-1.4831 10.9952,-0.9754 0.2903,0.04 0.5963,-0.0574 0.8919,-0.04 0.6746,0.04 1.5178,0.0782 1.7456,0.7511 0.3251,0.9528 -0.8693,0.7859 -1.2397,1.2692 -9.0339,1.4448 -18.0487,3.0583 -27.1592,3.9189 -7.9108,0.7476 -15.8407,1.4604 -23.8124,1.1701" /><path
           id="path172"
           style="fill:#949293;fill-opacity:1;fill-rule:nonzero;stroke:none"
           d="m 398.6971,486.7481 c 0.04,-0.7511 0.08,-1.5022 0.12,-2.2532 1.0797,0.005 2.1716,-0.0313 3.1017,0.9075 -0.5546,0.9041 -1.7577,0.6537 -2.3523,1.3683 -0.2904,-0.009 -0.579,-0.0156 -0.8694,-0.0226" /><path
           id="path174"
           style="fill:#636060;fill-opacity:1;fill-rule:nonzero;stroke:none"
           d="m 471.0401,492.3761 c 1.4152,-0.7546 2.6409,-0.9684 3.0756,1.0779 -1.1318,-0.0521 -2.2411,-0.1773 -3.0756,-1.0779" /><path
           id="path176"
           style="fill:#4c4849;fill-opacity:1;fill-rule:nonzero;stroke:none"
           d="m 400.2306,371.054 c -0.4068,-1.3491 -0.8154,-2.6966 -1.2257,-4.0458 -1.7317,-5.2958 -4.5448,-10.1484 -6.433,-15.3904 3.5555,6.0401 6.7025,12.2626 9.4408,18.6904 0.5164,4.0423 2.6775,7.5509 3.6598,11.4698 1.8621,7.4396 3.7816,14.9018 4.5327,22.4979 0.4451,4.5292 1.0744,9.0948 1.4535,13.6361 0.7806,9.3522 0.2469,18.5843 -0.2191,27.8652 -0.6972,0.3251 -0.925,0.9336 -0.9649,1.6412 -0.3895,6.9702 -3.2304,13.1546 -6.6416,19.0033 -3.6442,6.2452 -9.2305,10.2823 -16.225,12.3669 -4.9151,1.4657 -9.9798,2.3889 -14.7871,4.2475 -1.5091,0.5842 -3.2095,0.4451 -4.8178,0.7981 -1.4917,0.3286 -3.0739,0.2069 -4.5656,0.8223 -0.6503,0.2678 -1.4657,0.0522 -2.0568,-0.525 0.1373,-0.6903 0.8589,-0.4955 1.2031,-0.8398 0.087,-0.7772 0.5442,-1.2588 1.2884,-1.3231 4.4665,-0.3929 8.7418,-1.8447 13.1858,-2.3628 3.7537,-0.7754 7.1162,-2.5714 10.4926,-4.2475 12.5513,-6.2347 18.5791,-16.7709 19.7214,-30.4383 0.186,-2.0742 0.3686,-4.1484 1.031,-6.1339 0.3947,-1.184 0.1739,-2.3437 0.033,-3.5207 -0.2121,-1.7648 -0.4677,-3.5364 0.2869,-5.2507 0.1808,-0.2139 0.3929,-0.386 0.6364,-0.5181 0.299,-7.158 -0.4608,-14.2655 -1.0432,-21.3766 -0.7963,-9.7311 -2.4689,-19.3197 -5.176,-28.7135 -0.1425,-0.4973 -0.3459,-0.9754 -0.5215,-1.464 -1.0989,-2.1854 -2.4898,-4.2718 -2.2881,-6.8885" /><path
           id="path178"
           style="fill:#828080;fill-opacity:1;fill-rule:nonzero;stroke:none"
           d="m 200.2718,443.5778 c 1.0779,-0.009 1.8551,0.1912 1.8482,1.5908 -0.007,1.0676 0.6311,2.0621 1.4239,2.7071 3.1765,2.5906 5.8018,5.8748 9.9398,7.2553 2.448,0.8172 4.2231,2.9192 6.5459,4.1693 5.3481,2.8809 11.0108,4.8629 16.7605,6.5877 4.8351,1.45 9.6442,3.0843 14.6967,3.7398 1.1423,0.1478 1.9577,1.0258 2.7609,1.8134 -3.8962,-0.9754 -7.829,-1.8256 -11.6801,-2.9522 -9.3052,-2.7227 -18.4974,-5.7914 -27.0862,-10.364 -4.2684,-2.2724 -8.3368,-4.9639 -11.6645,-8.4794 -1.57,-1.6586 -3.2843,-3.5138 -3.5451,-6.0678" /><path
           id="path180"
           style="fill:#828080;fill-opacity:1;fill-rule:nonzero;stroke:none"
           d="m 256.0403,471.5507 c 2.1072,-0.6589 4.164,0.1113 6.1061,0.5651 5.5688,1.2987 11.2072,2.1315 16.8387,3.0287 0.8971,0.1425 1.7855,0.1999 2.3489,1.0431 -6.3774,-0.8641 -12.7408,-1.8377 -19.0346,-3.2095 -2.0899,-0.4538 -4.2684,-0.5303 -6.2591,-1.4274" /><path
           id="path182"
           style="fill:#636060;fill-opacity:1;fill-rule:nonzero;stroke:none"
           d="m 474.3278,475.5113 c 1.0936,1.5491 2.189,3.0948 3.2826,4.6422 -1.1927,1.9073 -2.4533,2.2602 -4.1571,0.9215 -0.7963,-0.6277 -1.4587,-0.8728 -2.415,-0.5721 -0.9249,0.2921 -1.763,-0.0504 -2.5071,-0.6154 -1.6482,-1.2553 -3.512,-1.5457 -5.508,-1.2484 -1.0536,0.1582 -2.0794,0.2591 -2.9331,-0.5876 -0.3999,-0.3947 -0.9232,-0.619 -1.4274,-0.3356 -2.6445,1.4848 -4.8577,-0.3043 -7.2049,-0.9406 -1.8708,-0.5059 -3.5938,-2.3228 -5.6228,-0.1565 -0.5789,0.6172 -1.3091,-0.2503 -1.9125,-0.6815 -1.0153,-0.7285 -1.7195,-1.3909 -3.4598,-0.7685 -1.1493,0.4103 -3.7798,1.3805 -5.1881,-0.7841 -0.4816,-0.7407 -1.2258,-0.8867 -1.9716,-0.5581 -3.2426,1.4222 -6.3269,0.1582 -9.4443,-0.5042 -0.5633,-0.12 -1.0484,-0.5999 -1.6952,-0.3078 -3.9849,1.8082 -8.036,0.918 -12.0626,0.2295 -1.1163,-0.1895 -2.2029,-0.3303 -3.3226,-0.1964 -0.6172,0.0747 -1.2222,0.0487 -1.5422,-0.6016 -0.3355,-0.685 -0.2103,-1.3718 0.3634,-1.8238 1.311,-1.0328 1.5126,-2.0638 0.3634,-3.3852 -0.6085,-0.7024 -0.3077,-1.5473 0.1026,-2.3054 0.4207,-0.7841 0.831,-1.5717 1.2466,-2.3576 1.0831,1.4622 -0.16,3.4112 1.0153,4.8804 0.8989,-0.1582 0.892,-1.3822 1.9925,-1.5265 0.0487,1.1475 0.2434,2.2637 -0.8276,3.1069 -0.3008,0.2382 -0.6224,0.4503 -0.5459,0.885 0.1165,0.6641 0.7806,1.3509 1.1631,1.1023 0.6346,-0.4121 1.1945,0.0539 1.73,0.5216 0.7059,0.6137 1.37,1.2292 2.1107,-0.1722 1.2588,-2.3836 2.9192,-2.2098 4.8299,-1.1788 1.2849,0.6955 2.5158,0.8972 3.7989,0.1165 2.1073,-1.2831 4.1989,0.0817 5.9827,0.5616 3.4581,0.9284 7.038,1.0884 10.4457,2.1124 0.4973,0.1513 0.9876,0.3234 1.4813,0.4903 0.3547,0.12 0.7998,0.3008 0.8972,-0.2295 0.5181,-2.8478 2.4375,-1.3248 3.3555,-0.7597 1.6326,1.0066 3.1018,1.1075 4.8682,0.6745 1.7369,-0.4259 3.486,-0.1217 5.2768,0.1461 3.1382,0.4694 5.9618,1.7143 8.8688,2.8061 1.0449,0.393 2.2046,0.2261 3.326,0.1148 0.8849,-0.0887 1.8325,-0.226 2.6636,-0.007 1.49,0.393 3.093,1.9925 3.9484,-0.7702 0.0139,-0.04 0.4155,0.04 0.6346,0.0626" /><path
           id="path184"
           style="fill:#656263;fill-opacity:1;fill-rule:nonzero;stroke:none"
           d="m 196.8171,459.8758 c 0.1548,0.1477 0.4677,0.3546 0.6555,0.645 0.4051,0.6207 0.9736,1.4605 0.0574,1.9212 -1.1249,0.5685 -2.003,1.9368 -3.5469,1.3805 -0.2103,-0.0748 -0.3946,-0.4486 -0.4398,-0.7094 -0.1026,-0.6311 2.4793,-3.3017 3.2738,-3.2373" /><path
           id="path186"
           style="fill:#6f6c6d;fill-opacity:1;fill-rule:nonzero;stroke:none"
           d="m 129.7823,421.5041 c -0.0766,0.838 -0.2139,1.6152 -1.1702,1.9542 -2.6288,0.9249 -8.6045,-3.0131 -8.787,-5.814 -0.0974,-1.4779 0.2834,-1.8291 1.9577,-1.5092 2.8461,0.546 4.9377,2.2829 7.2797,3.6634 0.7441,0.4364 0.7424,1.0275 0.7198,1.7056" /><path
           id="path188"
           style="fill:#9d9b9c;fill-opacity:1;fill-rule:nonzero;stroke:none"
           d="m 454.4656,453.2307 c 3.2026,-3.6251 1.6796,-7.8969 1.6378,-11.9688 0.9771,0.7668 1.2171,1.8186 1.1527,2.9835 -0.1077,1.9995 -0.2225,3.9971 -0.3338,5.9948 -0.6311,1.1528 -1.0101,2.5106 -2.4567,2.9905" /><path
           id="path190"
           style="fill:#828080;fill-opacity:1;fill-rule:nonzero;stroke:none"
           d="m 306.9875,391.5926 c 2.8879,0.6798 5.7671,1.3874 8.5541,2.4167 1.9786,0.7285 4.3918,0.1773 5.9896,2.029 -3.7259,-1.1197 -7.676,-1.2623 -11.3515,-2.5889 -1.1666,-0.4207 -2.3976,-0.7771 -3.1922,-1.8568" /><path
           id="path192"
           style="fill:#787677;fill-opacity:1;fill-rule:nonzero;stroke:none"
           d="m 400.2306,371.054 c 1.304,2.116 1.6309,4.557 2.2881,6.8885 -1.9038,-1.3839 -2.1316,-4.0336 -4.1032,-5.4019 -0.4416,-0.3078 -0.1652,-0.8346 0.4729,-0.8189 0.579,0.0139 0.9893,-0.2573 1.3422,-0.6677" /><path
           id="path194"
           style="fill:#858283;fill-opacity:1;fill-rule:nonzero;stroke:none"
           d="m 408.3344,445.6415 c 0.306,-5.2367 0.6137,-10.477 0.9197,-15.7137 0.3738,5.2767 0.002,10.5117 -0.9197,15.7137" /><path
           id="path196"
           style="fill:#939191;fill-opacity:1;fill-rule:nonzero;stroke:none"
           d="m 572.5243,506.0261 c 0.2973,-0.009 0.5946,-0.0174 0.8936,-0.0243 0.9371,0.4555 1.7265,0.1808 2.7192,-0.1165 2.3246,-0.6937 4.7065,-1.1666 6.852,-2.3698 0.3025,-0.1425 0.6051,-0.2834 0.9093,-0.4259 4.1606,-1.5996 7.4918,-4.4231 10.7257,-7.3666 0.7267,-0.6607 1.4465,-1.0171 2.4045,-1.3388 3.3364,-1.1231 7.038,-1.8829 8.1246,-6.1443 0.2504,-0.991 0.9459,-2.0238 2.2359,-2.2064 0.4643,1.4953 0.1409,2.9749 -0.2799,4.3814 -0.998,3.326 -2.1246,6.612 -3.1991,9.9155 -1.8481,-1.231 -3.2964,0.2347 -4.9012,0.7024 -0.7372,0.2156 -1.4135,0.4885 -1.9073,1.0797 -0.7163,0.8588 -1.61,1.057 -2.7157,1.2187 -2.7749,0.4034 -5.0682,2.1333 -7.3145,3.5955 -2.6079,1.6952 -5.4715,2.3854 -8.295,3.3278 -2.4689,0.8258 -5.0194,1.1649 -7.6152,1.4135 -1.6726,0.16 -2.3785,-0.3321 -2.5784,-1.876 -0.0383,-2.6723 2.4984,-2.6462 3.9415,-3.7659" /><path
           id="path198"
           style="fill:#b2b0b1;fill-opacity:1;fill-rule:nonzero;stroke:none"
           d="m 569.1322,509.8929 c 0.459,0.7302 0.9597,1.0292 1.9751,1.0153 4.2788,-0.0574 7.8325,-2.1611 11.6853,-3.5503 3.6842,-1.3283 6.9024,-3.246 10.1015,-5.3428 0.4642,-0.306 0.9441,-0.3651 1.4831,-0.1617 0.3321,0.1252 0.9336,0.3025 1.0293,0.1721 2.055,-2.8096 6.2208,-2.2393 8.1715,-5.3671 0.8242,1.3091 -1.4917,2.6775 0.3321,3.672 -0.4138,1.2083 -0.805,2.4254 -1.6117,3.4511 -2.8722,0.9893 -5.4697,2.5784 -8.1768,3.912 -4.1101,2.0237 -8.5211,3.0061 -12.8711,4.2423 -1.5926,0.452 -2.98,-0.9702 -4.5274,-0.2626 -2.422,0.306 -4.8421,0.6103 -7.2641,0.9163 -0.605,0.3512 -1.3005,-0.0226 -1.9246,0.2382 -0.5512,0.2312 -1.1684,0.4398 -1.4987,-0.2956 -0.353,-0.7841 -0.0452,-1.4361 0.6589,-1.8447 0.6677,-0.386 1.2449,-0.9945 2.1072,-0.9736 l 0.3304,0.1791" /><path
           id="path200"
           style="fill:#7f7c7d;fill-opacity:1;fill-rule:nonzero;stroke:none"
           d="m 607.3891,486.0335 c -0.725,1.4379 -0.4764,3.4756 -1.2952,4.4457 -1.1023,1.3075 -2.5245,2.7662 -4.3379,3.366 -1.8048,0.5981 -3.0618,2.1525 -5.3846,2.109 -1.3127,-0.0243 -2.4689,2.5749 -4.2997,3.1278 -2.5679,0.7772 -4.164,3.2686 -6.8571,3.7815 -0.4382,0.0835 -0.878,0.1513 -1.3162,0.2261 6.2626,-3.2096 10.1606,-8.8862 14.5907,-14.0047 0.1443,-0.1652 0.3251,-0.4712 0.4468,-0.4538 2.561,0.3999 3.8215,-1.8013 5.6975,-2.7662 1.0519,-0.5425 1.3753,-2.0342 2.7905,-2.0186 -0.0122,0.7285 -0.0243,1.4588 -0.0348,2.1872" /><path
           id="path202"
           style="fill:#797777;fill-opacity:1;fill-rule:nonzero;stroke:none"
           d="m 576.7231,511.6732 c 2.0185,-0.4294 4.044,-0.838 6.0574,-1.2935 6.266,-1.4222 12.0279,-4.1032 17.668,-7.0832 0.8085,-0.4277 1.6152,-1.1458 1.8499,0.485 -0.2086,1.0624 -1.0536,1.6604 -1.8551,2.1177 -11.202,6.3738 -23.216,9.8424 -36.1445,9.9833 3.0322,-0.4243 5.9565,-1.5353 9.0809,-1.3579 1.3874,0.0782 2.6184,-0.4573 3.7867,-1.1371 0.4295,-0.2486 1.0641,-0.4312 0.8728,-1.104 -0.1791,-0.6207 -0.8293,-0.5042 -1.3161,-0.6103" /><path
           id="path204"
           style="fill:#6a6868;fill-opacity:1;fill-rule:nonzero;stroke:none"
           d="m 298.077,298.2104 c -10.1345,-0.2278 -21.1661,0.5164 -32.742,3.712" /></g></g><g
       id="g206"><g
         clip-path="url(#clipPath212)"
         id="g208"><path
           id="path214"
           style="fill:#231f20;fill-opacity:1;fill-rule:nonzero;stroke:none"
           d="m 160.5318,455.7569 c -0.4573,0.9441 -1.2605,0.2834 -1.949,0.087 -3.6077,-1.0293 -6.7147,-3.1174 -10.065,-4.6961 -1.0762,-0.5059 -2.2307,-0.7198 -3.4477,-0.8119 -1.49,-0.1148 -2.9105,-0.586 -3.8963,-1.9056 -0.379,-0.5059 -0.8519,-1.0623 -1.8377,-0.7998 0.4537,0.9354 0.8867,1.8274 1.3196,2.7175 -4.5448,-1.6378 -8.6654,-4.1466 -12.8903,-6.4207 -4.8803,-2.6254 -9.9085,-5.0073 -14.4654,-8.2064 0.8676,-0.0522 1.8429,-0.339 2.0081,-1.1371 0.186,-0.8884 -0.9667,-0.9319 -1.5578,-1.2814 -4.4474,-2.6409 -9.227,-4.7082 -13.4049,-7.8134 -0.2382,-0.1773 -0.52333,-0.4955 -0.74414,-0.4625 -2.19937,0.3286 -3.04783,-1.6499 -4.49785,-2.5801 -4.81081,-3.0878 -9.70855,-6.0574 -14.38374,-9.3417 -4.67519,-3.2825 -9.12436,-6.8867 -13.6622,-10.364 -0.14083,-0.1078 -0.15474,-0.3773 -0.25732,-0.6555 1.38395,-0.6137 1.92293,0.9232 3.1817,1.1458 -0.5894,-2.2724 0.92148,-3.2147 2.43062,-4.1345 0.57896,-0.3529 1.10751,-0.7128 1.4761,-1.3179 0.59809,-0.984 1.49349,-1.0866 2.53493,-0.7702 4.48047,1.3544 8.66015,3.479 13.02065,5.1342 5.53582,2.1038 11.05075,4.2666 16.57445,6.4034 0.3477,0.1339 0.7406,0.1912 1.0414,0.3929 1.4796,0.9911 2.8879,1.3231 4.2684,1.1701 1.7456,-1.8777 4.6265,-2.8287 7.9647,-2.7905 h 0.113 c 2.7922,0.0504 5.8939,0.7824 8.9226,2.2672 7.5996,3.7224 11.821,10.6926 9.4339,15.566 -0.1843,0.3773 -0.4155,0.725 -0.6659,1.0554 0.2243,0.9875 -0.5164,1.862 -1.2118,2.6775 -0.8346,0.9823 -2.0342,1.4761 -3.2808,1.8099 -0.4486,0.12 -0.8833,0.3686 -0.7355,0.9232 0.1495,0.5598 0.6729,0.539 1.111,0.4503 2.6097,-0.5303 5.3376,-0.5164 7.7613,-1.9055 1.9959,-1.1441 8.1264,0.452 9.3312,2.3958 0.8572,1.3787 0.499,2.8861 0.0939,4.3344 -0.1982,0.7146 -0.6554,1.3962 -0.692,2.1073 -0.0904,1.7334 -1.4482,3.3503 -0.3772,5.1933 1.8238,3.1399 3.3868,6.5251 6.6276,8.4793 1.0902,0.6555 2.5715,0.6954 3.7242,1.4031 0.6172,0.3807 1.5039,0.8119 1.0832,1.6812" /><path
           id="path216"
           style="fill:#231f20;fill-opacity:1;fill-rule:nonzero;stroke:none"
           d="m 533.2398,336.7195 c -14.3473,2.2271 -29.5551,24.5964 -36.5149,33.6791 -2.1315,4.9464 -4.3431,9.8633 -6.3251,14.8705 -3.9224,9.9016 -7.2467,20.0117 -10.258,30.2314 -2.1663,7.358 -4.0632,14.775 -5.5567,22.2981 -0.1582,0.7876 -0.5737,1.5247 -0.871,2.2845 -0.4469,2.6671 -0.8937,5.3324 -1.3422,7.9995 0.9614,0.8624 0.9388,1.9803 0.7493,3.1017 -1.3527,7.9891 -1.2083,15.8494 1.9734,23.456 l 0.0139,0.4381 c -0.0435,0.4555 -0.2991,0.8015 -0.5477,1.1614 l 2.5488,3.6685 c 0.5477,-0.153 1.1041,-0.2364 1.6709,-0.0417 10.9708,14.2603 32.356,13.9334 46.891,20.8915 67.8068,15.5155 78.4003,-20.2186 78.0491,-79.76 -0.2556,-43.4624 -20.7923,-96.3396 -70.4808,-84.2786 m -39.8896,37.4171 c -0.033,0.2278 -0.0626,0.4573 -0.0886,0.6851 0.2886,-0.4642 0.6102,-0.9093 0.9267,-1.3562 -0.3443,0.3495 -0.6225,0.5738 -0.8381,0.6711 M 325.5857,302.7204 c -3.4685,-1.3492 -59.7447,-17.7306 -97.1341,23.5116 0,0 0.7059,-3.1452 -5.9722,6.7459 -6.6799,9.8911 -11.5028,65.7796 -12.1392,67.127 -0.5146,1.0971 -1.949,35.1431 -2.6949,53.7447 37.4155,29.4456 94.5975,27.6983 139.9151,28.8753 16.3327,0.6555 32.476,0.4138 47.237,-8.4863 11.2716,-5.2889 11.0003,-21.1331 16.5692,-28.5379 -0.8954,-0.8242 -0.8746,-1.9178 -0.8276,-3.0131 0.2295,-5.362 0.7615,-10.71 0.5129,-16.0911 -0.1148,-2.4584 -0.0922,-4.9186 -0.6016,-7.3405 -0.0765,-0.3651 -0.1547,-0.732 -0.1634,-1.1058 -0.1965,-9.8615 -1.9143,-19.5196 -3.9363,-29.1326 -1.0849,-5.162 -2.2846,-10.2996 -4.2649,-15.2252 -0.3512,-0.8763 -0.9319,-1.8708 -0.4955,-2.8531 l -5.4767,-10.903 -15.7364,-25.5666 c 0,0 -15.6686,-18.2592 -54.7914,-31.7493 M 207.3046,462.4072 c 5.2559,2.8288 10.8004,5.741 14.1577,4.1188 -4.1953,-2.9313 -9.5834,-5.5392 -13.9647,-8.9765 -0.0765,1.909 -0.1409,3.5537 -0.193,4.8577 m 297.3172,40.1869 c 23.5342,4.5969 47.8751,11.7792 72.0543,8.3819 2.8149,-0.3877 2.7227,2.867 0.346,3.1087 -53.9203,11.4211 -98.6624,-25.5388 -148.523,-32.9645 l -0.0661,-0.009 c -11.1585,-1.0015 -23.0195,-2.0203 -35.3743,-2.2168 l -0.1182,0.003 c -9.5086,0.7441 -16.1015,6.6103 -25.2971,7.4396 -14.1821,2.1681 -26.1613,3.3677 -40.1556,1.843 l -4.3605,0.1547 -26.5125,-0.5112 c -22.5762,-1.5247 -45.6183,-2.7279 -70.2861,-11.3393 0,0 -38.0066,-9.0914 -45.6357,-16.6944 -6.0365,-6.0122 -0.0243,-43.3112 2.1681,-52.3 4.7882,-19.6483 15.533,-52.6406 21.5643,-67.8311 -0.3599,0.2382 -0.6468,0.6676 -0.9354,1.0866 -2.2133,3.2061 -3.4008,6.8989 -4.9864,10.4006 -1.5943,3.5242 -3.5955,6.9875 -4.4335,10.6995 -1.1754,5.2194 -4.0806,9.6651 -5.5671,14.7454 -1.7074,5.8244 -3.7972,11.5706 -5.8123,17.3168 -0.5007,1.4274 -1.4535,2.5871 -2.5488,3.6199 -1.3597,3.133 -2.1229,6.5651 -4.5692,9.1574 8.4289,-21.234 12.4104,-44.104 22.6614,-64.6043 4.3431,-9.7277 9.8841,-19.4588 17.7324,-26.742 9.7746,-10.3066 21.6321,-17.0647 35.3099,-20.7245 1.5144,-0.4973 3.0322,-0.9928 4.5466,-1.4883 l 0.1408,-0.0347 c 5.1116,-0.852 10.2093,-1.8048 15.34,-2.5298 12.5599,-1.7734 30.9008,-0.7476 37.6675,0.2487 6.7651,0.9962 24.0975,5.3411 30.7409,7.3735 6.6415,2.0325 15.2565,6.0435 22.3345,10.258 1.9751,1.1753 3.8684,2.488 5.7966,3.738 7.0693,4.5535 13.078,10.3171 18.7425,16.4632 12.0766,13.1041 20.1073,28.5693 26.4064,45.0741 3.5399,9.2757 6.612,18.6991 9.5051,28.1868 l 1.803,7.4188 c 0.3442,2.6357 0.8989,5.2228 1.3301,7.8412 l 2.7505,16.5988 c 0.4851,0.7528 0.04,1.5039 -0.3443,2.2446 -1.1666,2.2515 -2.6271,4.3431 -3.6442,6.6728 -1.6777,3.8424 -0.9388,5.9166 2.881,7.4762 7.6274,3.1121 15.5921,3.752 23.7167,2.9574 0.9823,-0.0956 1.8656,-0.5146 2.6497,-1.1162 0.5111,-0.3164 0.9371,-0.7928 1.3996,-1.1979 0.2382,-0.2104 0.346,-0.5286 0.3042,-0.8415 C 443.0724,356.1 584.5539,253.2684 607.2831,397.61 l 0.009,0.0608 c 9.8302,96.7273 14.003,127.7168 -102.67,104.9233" /></g></g><g
       id="g218"><g
         clip-path="url(#clipPath224)"
         id="g220"><g
           id="g226"><g
             id="g232"><path
               id="path240"
               style="fill:url(#linearGradient238);stroke:none"
               d="M 497.6551,336.6638 H 599.0767 V 500.5581 H 497.6551 Z" /></g></g></g></g><g
       id="g242"><g
         clip-path="url(#clipPath248)"
         id="g244"><g
           id="g250"><g
             id="g256"><path
               id="path264"
               style="fill:url(#linearGradient262);stroke:none"
               d="M 0,111.733 H 612 V 680.2671 H 0 Z" /></g></g></g></g><g
       id="g266"><g
         clip-path="url(#clipPath272)"
         id="g268"><g
           id="g274"><g
             id="g280"><path
               id="path288"
               style="fill:url(#linearGradient286);stroke:none"
               d="M 0,111.733 H 612 V 680.2671 H 0 Z" /></g></g></g></g><g
       id="g290"><g
         clip-path="url(#clipPath296)"
         id="g292"><g
           id="g298"><g
             id="g304"><path
               id="path312"
               style="fill:url(#linearGradient310);stroke:none"
               d="M 0,111.733 H 612 V 680.2671 H 0 Z" /></g></g></g></g><g
       id="g314"><g
         clip-path="url(#clipPath320)"
         id="g316"><g
           id="g322"><g
             id="g328"><path
               id="path336"
               style="fill:url(#linearGradient334);stroke:none"
               d="M 0,111.733 H 612 V 680.2671 H 0 Z" /></g></g></g></g><g
       id="g338"><g
         clip-path="url(#clipPath344)"
         id="g340"><g
           id="g346"><g
             id="g352"><path
               id="path360"
               style="fill:url(#linearGradient358);stroke:none"
               d="M 0,111.733 H 612 V 680.2671 H 0 Z" /></g></g></g></g><g
       id="g362"><g
         clip-path="url(#clipPath368)"
         id="g364"><g
           id="g370"><g
             id="g376"><path
               id="path384"
               style="fill:url(#linearGradient382);stroke:none"
               d="M 0,111.733 H 612 V 680.2671 H 0 Z" /></g></g></g></g><g
       id="g386"><g
         clip-path="url(#clipPath392)"
         id="g388"><g
           id="g394"><g
             id="g400"><path
               id="path408"
               style="fill:url(#linearGradient406);stroke:none"
               d="M 0,111.733 H 612 V 680.2671 H 0 Z" /></g></g></g></g><g
       id="g410"><g
         clip-path="url(#clipPath416)"
         id="g412"><path
           id="path418"
           style="fill:#141211;fill-opacity:1;fill-rule:nonzero;stroke:none"
           d="m 502.0521,494.4607 c 0.004,0 0.005,0 0.009,0.002 -0.003,-0.002 -0.005,-0.002 -0.009,-0.002 m 0.0609,0.0174 c 0.007,0.002 0.0139,0.004 0.0191,0.007 -0.005,-0.003 -0.0122,-0.005 -0.0191,-0.007 m 0.0713,0.0226 c 0.005,0.002 0.0104,0.002 0.0156,0.004 -0.005,-0.002 -0.0104,-0.004 -0.0156,-0.004 m 0.0678,0.0191 c 0.009,0.004 0.0191,0.005 0.0278,0.009 -0.0105,-0.004 -0.0192,-0.005 -0.0278,-0.009 m 0.0938,0.0296 c 0.0157,0.004 0.0313,0.009 0.047,0.0122 -0.0174,-0.003 -0.0296,-0.009 -0.047,-0.0122 m 0.0731,0.0209 c 0.0156,0.005 0.0295,0.009 0.0452,0.0139 -0.0157,-0.005 -0.0296,-0.009 -0.0452,-0.0139 m 0.0747,0.0226 c 0.0157,0.005 0.0313,0.009 0.0487,0.0139 -0.0174,-0.005 -0.0313,-0.009 -0.0487,-0.0139 m 0.073,0.0208 c 0.0157,0.005 0.0331,0.0104 0.0487,0.0157 -0.0156,-0.005 -0.0313,-0.0105 -0.0487,-0.0157 m 0.0748,0.0226 c 0.0244,0.007 0.0487,0.0157 0.073,0.0226 -0.026,-0.009 -0.0486,-0.0156 -0.073,-0.0226 m 0.073,0.0226 c 9.8598,2.7071 22.2042,6.3965 34.698,8.5419 -12.4921,-2.1454 -24.8382,-5.8366 -34.698,-8.5419" /></g></g><g
       id="g420"><g
         clip-path="url(#clipPath426)"
         id="g422"><g
           id="g428"><g
             id="g434"><path
               id="path442"
               style="fill:url(#linearGradient440);stroke:none"
               d="M 0,111.733 H 612 V 680.2671 H 0 Z" /></g></g></g></g><g
       id="g444"><g
         clip-path="url(#clipPath450)"
         id="g446"><g
           id="g452"><g
             id="g458"><path
               id="path466"
               style="fill:url(#linearGradient464);stroke:none"
               d="M 0,111.733 H 612 V 680.2671 H 0 Z" /></g></g></g></g><g
       id="g468"><g
         clip-path="url(#clipPath474)"
         id="g470"><g
           id="g476"><g
             id="g482"><path
               id="path490"
               style="fill:url(#linearGradient488);stroke:none"
               d="M 0,111.733 H 612 V 680.2671 H 0 Z" /></g></g></g></g><g
       id="g492"><g
         clip-path="url(#clipPath498)"
         id="g494"><g
           id="g500"><g
             id="g506"><path
               id="path514"
               style="fill:url(#linearGradient512);stroke:none"
               d="M 0,111.733 H 612 V 680.2671 H 0 Z" /></g></g></g></g><g
       id="g516"><g
         clip-path="url(#clipPath522)"
         id="g518"><g
           id="g524"><g
             id="g530"><path
               id="path538"
               style="fill:url(#linearGradient536);stroke:none"
               d="M 0,111.733 H 612 V 680.2671 H 0 Z" /></g></g></g></g><g
       id="g540"><g
         clip-path="url(#clipPath546)"
         id="g542"><path
           id="path548"
           style="fill:#272525;fill-opacity:1;fill-rule:nonzero;stroke:none"
           d="m 399.0136,365.8086 c 0.7719,1.9003 1.5161,3.8458 2.2289,5.8418 1.2292,3.4355 2.4184,6.9545 3.5364,10.5187 -0.004,-0.009 -0.005,-0.0173 -0.007,-0.0243 -1.1162,-3.5572 -2.3019,-7.0658 -3.5277,-10.4944 -0.7111,-1.9925 -1.4535,-3.9328 -2.2254,-5.8279 l -0.005,-0.0139" /><path
           id="path550"
           style="fill:#3e2c87;fill-opacity:1;fill-rule:nonzero;stroke:none"
           d="m 362.7334,482.7284 c -0.5094,0.0591 -1.0188,0.1147 -1.5387,0.1669 0.002,0 0.005,0 0.009,0 0.5164,-0.0522 1.0241,-0.1078 1.53,-0.1669" /><path
           id="path552"
           style="fill:#272525;fill-opacity:1;fill-rule:nonzero;stroke:none"
           d="m 388.4931,475.2592 c -6.8224,3.6755 -15.3139,6.2608 -25.7597,7.4692 10.4458,-1.2084 18.9373,-3.7937 25.7597,-7.4692" /><path
           id="path554"
           style="fill:#141211;fill-opacity:1;fill-rule:nonzero;stroke:none"
           d="m 396.736,360.5283 c 0.7858,1.7196 1.5439,3.4773 2.2776,5.2803 l 0.005,0.0139 c -0.7337,-1.8065 -1.497,-3.5729 -2.2828,-5.2942 m 8.0359,21.6165 c 0.002,0.007 0.003,0.0157 0.007,0.0243 4.2562,13.5701 7.497,27.8652 8.1194,41.3031 -0.6224,-13.4449 -3.8667,-27.7521 -8.1264,-41.3274 m -87.888,100.2341 c 8.142,0.2921 16.1206,0.5494 23.7341,0.9232 2.7244,0.1339 5.3498,0.1983 7.8882,0.1983 4.5152,0 8.7436,-0.2069 12.6972,-0.6051 -0.003,0 -0.007,0 -0.009,0 -3.9519,0.3982 -8.1768,0.6051 -12.6868,0.6051 -2.5384,0 -5.1655,-0.0661 -7.8899,-0.2 -7.6118,-0.3721 -15.5921,-0.6294 -23.7341,-0.9215" /></g></g><g
       id="g556"><g
         clip-path="url(#clipPath562)"
         id="g558"><g
           id="g564"><g
             id="g570"><path
               id="path578"
               style="fill:url(#linearGradient576);stroke:none"
               d="M 0,111.733 H 612 V 680.2671 H 0 Z" /></g></g></g></g></g></svg>
