<?xml version="1.0" encoding="utf-8"?>
<!-- Generator: Adobe Illustrator 24.2.1, SVG Export Plug-In . SVG Version: 6.00 Build 0)  -->
<svg version="1.1" xmlns="http://www.w3.org/2000/svg" xmlns:xlink="http://www.w3.org/1999/xlink" x="0px" y="0px"
	 viewBox="0 0 386.64 386.64" style="enable-background:new 0 0 386.64 386.64;" xml:space="preserve">
<style type="text/css">
	.st0{fill-rule:evenodd;clip-rule:evenodd;fill:#569C48;}
	.st1{fill-rule:evenodd;clip-rule:evenodd;fill:#78B048;}
	.st2{fill-rule:evenodd;clip-rule:evenodd;fill:#361679;}
	.st3{fill-rule:evenodd;clip-rule:evenodd;fill:#5121B5;}
	.st4{fill-rule:evenodd;clip-rule:evenodd;fill:#6C2CF2;}
	.st5{fill-rule:evenodd;clip-rule:evenodd;fill:#FFFFFF;}
	.st6{fill:#3F3F3F;}
	.st7{fill:url(#SVGID_1_);}
	.st8{fill:#454545;}
	.st9{fill:#4A4A4A;}
	.st10{fill:#555555;}
	.st11{fill:#333333;}
	.st12{fill:#A7A7A7;}
	.st13{fill:#4C4C4C;}
	.st14{fill:#6D6D6D;}
	.st15{fill:#231F20;}
	.st16{fill:#707070;}
	.st17{fill:#636363;}
	.st18{fill:#2F2F2F;}
	.st19{fill:#6A6A6A;}
	.st20{fill:#434343;}
	.st21{fill:#929292;}
	.st22{fill:#5C5C5C;}
	.st23{fill:#818181;}
	.st24{fill:#838383;}
	.st25{fill:#6E6E6E;}
	.st26{fill:#585858;}
	.st27{fill:#8D8D8D;}
	.st28{fill:#717171;}
	.st29{fill:#A5A5A5;}
	.st30{fill:#646464;}
	.st31{fill:#535353;}
	.st32{opacity:0.95;}
	.st33{fill:url(#SVGID_2_);}
	.st34{fill:url(#SVGID_3_);}
	.st35{opacity:0.3;}
</style>
<g id="Layer_1">
</g>
<g id="art">
	<g>
		<path class="st0" d="M15.06,150.17c47.01-40.25,106.43-58.1,178.25-53.55c-25.78,35.85-72.11,52.97-139,51.36
			C39.71,146.26,26.63,146.99,15.06,150.17L15.06,150.17z"/>
		<path class="st1" d="M193.31,96.62c-58.97-0.09-118.38,17.76-178.25,53.55c6.35-6.75,10.45-14.22,12.31-22.41
			C52.12,66.54,107.44,56.16,193.31,96.62L193.31,96.62z"/>
		<path class="st1" d="M132.94,102.76c2.11-0.42,3.16-0.63,3.16-0.63c-1.58,11.48-5.92,23.16-12.99,35.06
			C129.09,121.79,132.37,110.31,132.94,102.76L132.94,102.76z M53.57,129.59c2.01-0.94,3.02-1.41,3.02-1.41
			c-1.48,6.62-3.77,12.25-6.88,16.88C52.85,139.64,54.14,134.48,53.57,129.59L53.57,129.59z M81.73,117.66
			c1.69-0.63,2.54-0.95,2.54-0.95c-1.1,9.27-4.63,18.42-10.61,27.45C78.1,135.28,80.79,126.44,81.73,117.66L81.73,117.66z
			 M107.59,109.03c1.61-0.46,2.42-0.69,2.42-0.69c-0.9,12.14-4.91,23.47-12.02,34C103.22,131.34,106.42,120.24,107.59,109.03
			L107.59,109.03z M167.29,97.74c-1.4,0.13-3.09,0.29-3.09,0.29c-2.49,9.56-6.67,19.67-14.5,30.53
			C157.37,121.23,163.23,110.96,167.29,97.74L167.29,97.74z"/>
	</g>
	<path class="st2" d="M193.54,98.96c-9.82,177.16-8.77,260.27,3.14,249.31c19.37,5.94,44.97-1.88,63.35-10.26
		c29.04-15.29,49.86-35.85,62.45-61.7c15.78-30.97,17.31-65.05,4.58-102.25c-16.38-38.21-43.86-64.43-82.43-78.64
		C223.75,89.52,206.72,90.7,193.54,98.96L193.54,98.96z"/>
	<path class="st1" d="M191.77,108.26c4.99-0.22,7.49-0.33,7.49-0.33c-4.22-35.35,3.54-59.65,20.35-77.48
		c-1.77-6.79-13.05-9.07-17.25-4.72C188.51,41.8,186.61,69.63,191.77,108.26L191.77,108.26z"/>
	<path class="st3" d="M134.99,98.34c113.83-24.45,155.48,93.81,142.83,169.19c-10.04,67.43-78.15,98.64-141.12,73.15
		C25.12,295.52,25.74,133.48,134.99,98.34L134.99,98.34z"/>
	<path class="st4" d="M193.54,98.96c43.79,13.65,71.6,49.54,83.45,107.66c6.13,42.63,1.97,75.4-12.52,98.28
		c-15.71,24.33-38.2,38.81-67.49,43.45c29.06,0.62,54.74-14.07,77.01-44.08C307.57,241.1,277.69,108.51,193.54,98.96L193.54,98.96z"
		/>
	<path class="st4" d="M210.05,329.35c73.54-38.49,1.93-221.09-62.2-220.14c-86.48,3.43-109.45,151.5-27.57,209.72
		C153.69,337.62,183.37,344.13,210.05,329.35L210.05,329.35z"/>
	<path class="st5" d="M95.68,161.37c-3.18,25.44,20.96,27.87,26.69,5.53c3.3-11.98,6.93-20.22,13.18-35
		c3.57-9.8-1.42-12.19-14.81-6.84C107.32,131.93,98.75,144.57,95.68,161.37L95.68,161.37z"/>
</g>
<g id="shadow">
</g>
<g id="back_arm">
	<path class="st6" d="M341.71,128.97l-35.98,15.2l7.54,17.29l40.24-12.84c-0.84-3.74-1.77-7.18-2.73-10.16
		C348.64,133.78,345.48,130.78,341.71,128.97z"/>
</g>
<g id="sunglasses">
	<linearGradient id="SVGID_1_" gradientUnits="userSpaceOnUse" x1="85.3669" y1="174.7526" x2="209.6516" y2="174.7526">
		<stop  offset="0" style="stop-color:#4C4C4C"/>
		<stop  offset="0.2042" style="stop-color:#474747"/>
		<stop  offset="0.459" style="stop-color:#373737"/>
		<stop  offset="0.7393" style="stop-color:#1E1E1E"/>
		<stop  offset="1" style="stop-color:#000000"/>
	</linearGradient>
	<path class="st7" d="M143.27,138.87c-2.75,0.58-5.48,1.26-8.18,2.04c-10.49,3.03-20.93,6.22-30.93,10.62
		c-2.77,1.22-5.36,2.9-8.19,4.06c-0.25,0.29-0.54,0.55-0.86,0.76c-0.37,0.24-0.48,0.62-0.26,1.01c0.25,0.44,0.66,0.5,1.12,0.34
		c0.33-0.12,0.59-0.36,0.83-0.59c0.52-0.5,1.14-0.76,1.84-0.84c1.53-0.15,2.89-0.7,4.15-1.59c0.82-0.58,1.62-1.25,2.25-1.24
		c-1.11,0.05-2.54,1.6-3.5,3.16c-0.13,0.22-0.18,0.5-0.35,0.68c-1.73,1.83-1.21,3.84-0.52,5.87c0.65,1.89,0.24,2.58-1.66,3.28
		c-1.26,0.46-2.38,0.47-3.57-0.18c-1.2-0.66-2.59-0.51-3.89-0.77c-0.58-0.12-1.01,0.22-1.14,0.8c-0.13,0.56,0.19,0.89,0.71,1.05
		c0.37,0.11,0.74,0.21,1.08,0.42c1.03,0.63,1.21,1.17,0.77,2.35c-0.07,0.51-0.19,1.01-0.18,1.52c0.28,0.75-0.21,1.21-0.66,1.68
		c-0.35,0.68-1.22,0.95-1.38,1.78c0.07,0.7-0.27,1.18-0.82,1.57c-1.18,0.86-2.42,1.6-3.81,2.07c-0.71,0.24-1.05,0.6-0.37,1.25
		c1.58,0.26,2.79-0.67,4.08-1.29c1.15-0.55,2.15-1.48,3.58-1.3c0.31,0.04,0.58-0.26,0.82-0.46c-0.46,0.45-1.04,0.52-1.65,0.53
		c-0.49,0.01-0.96,0.09-1.32,0.5c-0.28,0.31-0.46,0.63-0.28,1.04c0.19,0.41,0.54,0.51,0.97,0.44c2.2-0.38,4.38-0.78,6.37-1.9
		c1.29-0.73,2.82-0.57,4.23-0.92c0.63-0.16,0.9,0.55,1.07,1.09c0.24,0.77,0.69,1.07,1.45,0.7c0.53-0.26,1.01,0.05,1.51,0.05
		c1.62-0.19,3.23-0.45,4.87-0.41c0.28,0.01,0.59-0.16,0.82,0.12c1.58,0.39,2.9,1.16,3.79,2.56c1.09,1.69,1.65,3.62,2.41,5.46
		c1.97,2.62,2.5,5.84,3.57,8.82c0.89,2.5,1.55,5.09,2.6,7.52c1.49,3.47,2.71,7.04,4.28,10.48c0.95,2.07,1.71,4.22,2.96,6.15
		c0.48,0.75,1.04,0.9,1.71,0.55c0.6-0.31,1.1-0.34,1.69-0.07c0.72,0.32,1.29,0.02,1.6-0.64c0.32-0.68,0.12-1.27-0.61-1.58
		c-1.21-0.53-1.7-1.77-2.59-2.62c-0.38-0.36-0.39-1-0.14-1.46c0.41-0.75,0.29-1.48,0.13-2.24c-0.28-1.31,0.48-2.65-0.08-3.97
		c-0.09-0.22-0.1-0.49-0.19-0.74c-0.77-2.07-1.14-4.26-1.86-6.35c-0.59-1.72-0.63-3.55-1.08-5.3c-0.04-0.16,0.12-0.31,0.19-0.47
		c0.36-1.26-0.18-2.45-0.35-3.65c-0.23-1.65-0.72-3.26-0.83-4.94c-0.03-0.49-0.2-0.93-0.7-1.14c-0.3-0.13-0.59-0.1-0.84,0.12
		c-0.44,0.4-0.25,0.91-0.21,1.47c0.02,0.08-0.21-0.05-0.03-0.05c0.04,0,0.03-0.03,0.02-0.09c-0.08-0.85-1.02-1-1.33-1.63
		c-1.36-2.75-3.68-4.99-4.35-8.1c-0.4-1.84-1.28-3.53-1.44-5.44c-0.12-1.48,0.49-2.42,1.66-3.04c1.65-0.88,2.49-2.14,2.29-4.04
		c-0.01-0.13-0.03-0.26,0.01-0.38c0.98-2.63,1.02-5.58,2.7-7.99c0.5-0.71,0.98-1.45,1.78-1.8c0.68-0.3,1.01-0.74,1.01-1.34
		c-0.29,1.78-1.34,3.4-2.07,5.13c-0.37,0.88-0.42,1.73-0.24,2.63c0.07,0.36,0.19,0.67,0.57,0.78c0.47,0.13,0.72-0.2,0.92-0.53
		c0.52-0.87,0.78-1.88,1.37-2.72c1.03-3.07,2.96-5.35,5.91-6.72c0.55-0.25,0.95-0.69,1.43-1.03c1.35-0.95,2.89-1.55,4.32-2.37
		c0.49-0.28,0.84-0.63,0.7-1.23c-0.16-0.67-0.67-0.79-1.29-0.76c-1.64,0.08-3.12,0.5-4.63,1.25c-1.97,0.97-3.98,1.92-6.07,2.67
		c-0.63,0.23-1.13,0.6-1.62,1.02c-0.71,0.62-1.44,0.72-2.07-0.08c-0.5-0.63-0.99-0.95-1.75-0.39c-0.12,0.09-0.39,0.19-0.6,0.08
		c-0.81-0.45-1.61-0.32-2.42,0.09c0.87-0.42,1.71-0.59,2.67-0.26c0.58,0.2,0.93-0.34,1.08-0.99c0.37-1.67,0.68-1.85,2.15-1.11
		c1.1,0.55,1.93,0.09,2.71-0.53c1.33-1.04,2.9-1.68,4.46-1.94c1.56-0.26,2.92-0.94,4.36-1.41c1.36-0.44,2.66-0.92,4.1-0.42
		c0.33,0.11,0.75,0.21,1.01,0.03c1.1-0.78,2.47-0.89,3.62-1.47c1.2-0.61,2.47-0.91,3.72-1.33c1.77-0.59,3.59-1,5.35-1.6
		c2.04-0.69,4.11-1.18,6.22-1.48c0.98-0.14,1.96-0.31,2.86-0.71c1.08-0.47,2.2-0.09,3.3-0.35c2-0.48,4.04-0.85,6.06-1.11
		c1.73-0.23,3.54,0.06,5.25-0.53c1.98,1.03,3.92-0.34,5.91-0.08c2.63,0.34,5.3,0.2,7.93,0.6c0.7,0.11,1.33,0.12,1.98-0.25
		c0.9-0.51,1.82-0.66,2.8-0.08c0.74,0.44,1.6,0.33,2.39,0.12c1.11-0.3,2.18-0.18,3.31-0.05c1.4,0.15,2.97,0.52,3.91-1.1
		c0.04-0.4-0.17-0.72-0.53-0.76c-1.32-0.15-2.54-0.68-3.84-0.92c-0.69-0.13-1.22,0.42-1.88,0.19c1.35-0.29,2.75-0.13,4.11-0.4
		c0.57-0.11,1.23,0.01,1.58-0.64c0.2-1.52-1-1.09-1.67-1.28c0.51-0.09,1.26,0.49,1.67-0.4c-3.34-0.24-6.67,0.09-9.99,0.3
		c-7.86,0.5-15.71,1.14-23.47,2.49c-1.79,0.31-3.59,0.59-5.37,0.97c-2.57,0.54-5.16,1-7.74,1.4c-4.3,0.67-8.45,2.04-12.79,2.48
		c-0.71,0.07-1.48,0.17-2.19,0.42l0,0C146.21,138.56,144.66,138.38,143.27,138.87z"/>
	<path d="M106.34,178.17c-0.31-0.38-0.61-1.09-1.17-0.54c-0.95,0.94-0.89,0-1.06-0.49c-0.56-1.65-0.7-1.44-2.41-1.19
		c-2.93,0.44-5.42,2.05-8.25,2.64c-0.65,0.14-1.35-0.12-2.23,0.49c0.51-0.94,1.06-1.08,1.66-1.13c0.98-0.07,1.8-0.54,2.61-1.02
		c0.38-0.22,0.72-0.58,0.44-1.06c-0.28-0.48-0.71-0.33-1.13-0.14c-3.01,1.32-6.02,2.62-9.03,3.93c-2.05,0.11-4.08,0.06-5.8-1.25
		c-0.72-0.55-1.42-0.48-2.18-0.19c-2.47,0.94-4.92,1.97-7.4,2.87c-3.21,1.17-6.33,2.54-9.48,3.85c-2.14,0.89-3.35,0.73-4.96-2.1
		c-0.21-0.37-0.45-0.62-0.93-0.59c0.82-0.14,1.42-0.68,2.02-1.17c1.79-1.46,3.68-2.8,5.59-4.08c2.9-1.94,5.78-3.93,8.78-5.7
		c3.05-1.8,6.08-3.64,9.23-5.27c0.15-0.08,0.3-0.17,0.45-0.25c0.57-0.33,1.21-0.69,0.78-1.48c-0.37-0.7-1.01-0.69-1.65-0.32
		c-3.04,1.8-6.1,3.57-9.12,5.42c-2.36,1.44-4.63,3.05-7,4.47c-5.3,3.18-10.22,6.89-15.01,10.76c-3.5,2.83-6.99,5.69-9.62,9.41
		c-0.69,0.97-1.38,1.97-1.68,3.16c-0.24,0.79,0.2,1.69-0.44,2.45c-0.19,0.23-0.05,0.67,0.24,0.93c0.3,0.26,0.63,0.17,0.97,0.06
		c0.64-0.21,0.99-0.81,1.55-1.12c0.68-0.38,1.05-0.29,1.08,0.55c0.01,0.21,0.04,0.44-0.02,0.64c-0.33,1.19-0.07,2.02,1.29,2.27
		c0.63,0.11,0.57,0.53,0.29,0.97c-0.16,0.25-0.38,0.47-0.51,0.74c-0.36,0.77-0.1,1.63,0.64,1.98c0.77,0.37,1.49,0.42,1.96-0.51
		c0.6-1.2,1.46-2.1,2.79-2.51c0.55-0.17,0.92-0.6,1.28-1.04c1.22-1.52,2.73-2.8,3.78-4.47c0.28-0.45,0.77-0.69,1.26-0.85
		c0.99-0.31,1.88-0.84,2.77-1.36c5.64-3.28,11.54-6.04,17.59-8.46c3.03-1.21,5.93-2.69,8.94-3.95c0.96-0.4,2.06-0.43,2.92-0.94
		c2.12-1.26,4.65-1,6.82-2.02c0.73-0.34,1.46-0.1,1.83,0.71c0.28,0.63,0.74,0.78,1.36,0.63c0.12,0.01,0.24-0.02,0.36-0.06
		c0.8-1.55,2.39-1.45,3.76-1.68c0.54-0.09,1.03-0.27,1.54-0.4c1.08-0.34,2.16-0.68,3.24-1.02c0.27-0.22,0.58-0.23,0.91-0.18
		C106.23,178.59,106.5,178.54,106.34,178.17z"/>
	<path class="st8" d="M209.09,129.74c-1.17,0.07-2.35,0.14-3.52,0.21c1,0.89,2.57-0.08,3.27,1.38c0.43,0.76,1.17,0.77,1.9,0.77
		c0.98,0.01,1.97-0.14,2.95-0.05c9.82,0.18,19.54,1.33,29.2,3.05c0.49,0.03,0.99-0.04,1.49,0.06c0.21,0.03,0.42,0.11,0.63,0.15
		c0.85-0.15,1.67-0.13,2.52,0.11c1.46,0.4,2.98,0.14,4.46,0.3c0.36,0.04,0.64-0.22,0.93-0.39c0.34-0.21,0.64-0.47,0.57-0.92
		c-0.09-0.6-0.58-0.34-0.92-0.37c-0.17-0.01-0.34,0-0.49-0.1c-13.44-1.76-26.8-4.34-40.43-4.29
		C210.79,129.66,209.94,129.71,209.09,129.74z"/>
	<path class="st9" d="M279.25,132.28c-1.32,0.38-2.61,0.89-3.98,1.06c-1.99,0.8-4.14,0.45-6.19,0.87c-0.24,0.02-0.49,0.04-0.73,0.06
		c-0.42,0.3-0.92,0.1-1.36,0.23c-0.26,0.07-0.5,0.21-0.46,0.52c0.04,0.29,0.28,0.35,0.54,0.36c-0.17,0.01-0.4,0.06-0.5-0.04
		c-1.07-1.06-2.34-0.66-3.59-0.58c-0.73,0.04-1.48-0.08-2.19-0.14c-1.48-0.12-2.66,0.77-4.07,0.83c-0.78,0.04-1.56,0.57-2.33,0.86
		c-0.96,0.36-1.87,0.51-2.86,0.46c-0.48-0.02-0.94,0.04-1.39,0.19c-0.96,0.32-1.85,0.34-2.87-0.01c-0.94-0.33-2.03-0.08-3.04-0.01
		c-0.62,0.04-1.17-0.04-1.74-0.26c-1.6-0.62-3.85,0.25-4.75,1.81c1.02,0.97,2.35,1.3,3.62,1.24c1.92-0.1,3.81-0.1,5.73-0.08
		c2.54,0.02,5.11,0.09,7.65-0.4c1.52-0.3,3.06-0.51,4.65-0.5c3.05,0.01,6-0.75,8.82-1.92c1.06-0.44,2.16-0.52,3.28-0.28
		c0.79,0.18,1.54,0.12,2.21-0.38c1-0.75,2.22-0.53,3.33-0.78c1.81-0.41,3.44-1.31,5.26-1.65c0.59-0.11,0.95-0.55,0.96-1.21
		c-0.14-0.59-0.54-0.89-1.11-0.76C281.18,131.99,280.15,131.76,279.25,132.28z"/>
	<path class="st10" d="M237.89,138.39c0.08-0.01,0.2,0,0.25-0.05c2.24-2.24,4.82-0.8,7.3-0.78c1.76,0.01,3.56,0.91,5.32-0.1
		c0.55-0.32,1.17,0.08,1.76,0.1c1.33,0.04,2.4-1.09,3.76-0.73c0.04,0.01,0.08-0.02,0.13-0.02c0.61-0.03-0.16-0.91,0.56-0.89
		c0.57,0.02,0.49,0.66,0.86,0.85c0.07,0.04,0.16,0.01,0.24,0.02c-0.19-1.07,1.05-0.86,1.32-1.5c0.08-0.18-0.01-0.46,0.3-0.42
		c0.26,0.03,0.29,0.27,0.33,0.49c0.04,0.28,0.17,0.5,0.47,0.52c0.4,0.03,0.44-0.27,0.52-0.58c0.18-0.74,0.56-0.91,0.98-0.18
		c0.33,0.58,0.58,0.36,1.01,0.11c0.8-0.46,1.68-1.2,2.36,0.23c0.17,0.35,3.22,0.19,3.46-0.13c0.06-0.08,0.09-0.3,0.05-0.33
		c-0.13-0.09-0.31-0.19-0.45-0.17c-0.45,0.05-0.9,0.15-1.59,0.27c0.47-0.71,1.17-0.46,1.52-0.85c-5.44,0.42-10.86,0.13-16.27-0.32
		c0.31,0.12,0.63,0.24,1.01,0.39c-0.47,0.71-1.12,0.65-1.81,0.68c-2.15,0.11-4.26-0.45-6.4-0.38c-0.14,0.37-0.06,0.89-0.66,0.92
		c-0.83,0.52-1.64,0.76-2.57,0.16c-0.49-0.32-1.06-0.16-1.61,0c-1.28,0.38-2.53,0.41-3.88,0.03c-1.43-0.4-2.96-0.47-4.01,1.01
		c0,0.33,0.12,0.64,0.45,0.68c1.6,0.18,3.02,1.04,4.63,1.18C237.5,138.65,237.72,138.63,237.89,138.39z"/>
	<path class="st11" d="M41.72,211.17c-0.28,1.22-0.57,2.45-0.85,3.67c0.51,1.27,0.95,2.57,1.56,3.79c0.82,1.67,2.03,2.14,3.75,1.63
		c0.77-0.94-0.01-1.87-0.1-2.77c-0.15-1.45-0.71-2.81-1.5-4.06c-0.56-0.88-0.68-1.81-0.18-2.77c0.12-0.43,0.19-0.85-0.08-1.26
		c-0.95-0.68-2.16-0.18-2.47,1.03C41.77,210.67,41.89,210.94,41.72,211.17z"/>
	<path class="st10" d="M279.25,132.28c0.86,0.05,1.73,0.14,2.59,0.12c0.37-0.01,0.73-0.17,1.11-0.03c0.5,0.63,1.09,0.27,1.65,0.14
		c0.5-0.12,0.96-0.35,1.44-0.54c0.47-0.46,1.12-0.63,1.65-0.99c0.03-0.06,0.05-0.12,0.08-0.18c0.26-0.43,0.7-0.66,1.15-0.76
		c2.79-0.63,5.3-2.05,8.03-2.84c0.32-0.09,0.67-0.22,0.9-0.45c1.4-1.34,3.14-1.67,4.98-1.7c0.22,0,0.48,0.01,0.57-0.19
		c0.45-0.95,1.55-1,2.23-1.63c-2.95,0.62-5.74,1.74-8.58,2.71c-5.69,1.93-11.34,3.95-17.01,5.94
		C279.76,131.97,279.51,132.14,279.25,132.28z"/>
	<path class="st12" d="M43.97,209.5c0,0.36-0.07,0.7-0.28,1c-0.5,1.34,0.02,2.66,0.87,3.43c1.31,1.18,1.21,2.72,1.62,4.11
		c0.17,0.59,0.24,1.25,0.44,1.86c1.18-2.03,0.95-4.14,0.47-6.31c-0.4-1.82-0.55-3.68-1.27-5.43c-0.1-0.24,0.18-0.63,0.29-0.95
		c-0.69,0.15-0.82,0.99-1.46,1.2C43.91,208.46,43.98,209,43.97,209.5z"/>
	<path class="st13" d="M37.8,197.22c-0.03,0.67,0.5,1.31,0.09,2c-0.74,3.7,3.92-3.51,4.07-0.72c0.24,1.49-1.22,4.24,1.35,3.69
		c3.14,0.28-2.12,2.85-0.1,3.98c1.54,0.65,1.49-2.42,2.93-2.52c4.3-2.37,5.83-7.22,10.93-8.65c8.3-3.5,36.8-20.6,43.08-15.08
		c-16.66,9.03-42.06,14.76-55.51,28.82c-2.04-1.26-3.61,0.68-2.36,2.56c-0.08,2.85-0.62,3.93-1.42,3.54c0,0.08-0.21-0.12-0.22-0.03
		c-2.04-1.58-2.69-3.64-2.11-6.12c0.29-1.22,0.08-2.37-0.48-3.47c-0.29-0.57-1.41-2.86-1.47-3.51L37.8,197.22z"/>
	<path class="st14" d="M47.86,205.68c15.58-9.68,36.93-18.4,52.44-25.51c-10.3,1.72-28.78,11.84-40.05,17.01l0,0
		c-3.64,1.4-6.92,3.63-10.31,5.55C48.79,203.4,47.93,204.25,47.86,205.68z M60.26,197.18L60.26,197.18L60.26,197.18z"/>
	<path class="st15" d="M147.53,137.8c1.9,0.24,3.72-0.27,5.53-0.65c7.23-1.5,14.41-3.21,21.72-4.31c0.29-0.04,0.55-0.21,0.83-0.31
		c-2.59,0.04-5.07,0.77-7.59,1.22c-6.57,1.15-13.19,2.07-19.66,3.76C148.08,137.58,147.81,137.7,147.53,137.8z"/>
	<path class="st16" d="M46.61,219.9c0.27-1.69-0.21-3.31-0.5-4.94c-0.06-0.32-0.25-0.57-0.52-0.7c-1.64-0.75-1.84-2.21-1.91-3.75
		c-0.63,0.75-0.43,1.56-0.02,2.27c1.23,2.15,1.74,4.54,2.47,6.86c0.06,0.2,0.03,0.42,0.04,0.63
		C46.32,220.14,46.47,220.02,46.61,219.9z"/>
	<path class="st6" d="M279.33,184.36c5.16,19.35,27.62,42.11,42.21,41.21c-25.99-8.16-44.77-37.69-43.54-63.23
		c-1.78-5.36-1.36,7.06-1.03,9.53 M278.9,182.36c-0.02-0.04-0.03-0.09-0.04-0.13"/>
	<path class="st10" d="M269.08,134.21c0.89-0.04,1.78-0.13,2.66-0.11c0.3,0.01,1.23-0.61,0.83,0.59c-0.08,0.23,0.37,0.25,0.62,0.2
		c0.58-0.1,1.15-0.22,1.8-0.34c-0.23-0.39-0.83-0.11-0.89-0.65c0.24-0.41,0.86-0.2,1.16-0.56
		C273.21,133.63,271.14,133.92,269.08,134.21z"/>
	<path class="st14" d="M106.34,178.17c-0.37,0.29-1.01,0.02-1.26,0.58c2.4-0.11,4.75-0.72,7.17-0.61c-1.15-0.46-2.32-0.31-3.5-0.15
		C107.96,178.1,107.14,178.11,106.34,178.17z"/>
	<path class="st15" d="M143.27,138.87c1.48-0.12,3.07,0.18,4.26-1.07C146.07,137.99,144.62,138.24,143.27,138.87z"/>
	<path class="st17" d="M209.49,133.89c0.93,1.25,2.32,0.57,3.3,0.44c1.71-0.22,3.29,0.22,4.92,0.33c2.76,0.19,5.51,0.66,8.27,0.87
		c1.16,0.09,2.31,0.14,3.36,0.66c0.97,0.49,2.02,0.3,3.02,0.47c0.45,0.19,0.83-0.02,1.21-0.23c0.4-0.23,0.8-0.26,1.2,0.05
		c0.35,0.27,0.71,0.61,0.88-0.18c0.04-0.2,0.3-0.12,0.43-0.02c0.88,0.65,1.82,0.64,2.86,0.49c0.43-0.06,0.77-0.02,1.1-0.37
		c0.39-0.42,0.98-0.55,1.42-0.26c1.08,0.71,2.03,0.36,2.99-0.2c0.41-0.46,0.34-0.88-0.07-1.3c-0.41-0.24-0.85-0.21-1.3-0.18
		c-0.51,0.98-1.41,0.53-2.06,0.41c-0.9-0.16-1.88-0.17-2.7-0.67c-0.19-0.12-0.43-0.14-0.6-0.11c-3.61,0.61-7.16-0.06-10.67-0.64
		c-1.8-0.3-3.56-0.23-5.34-0.29c-0.3-0.01-0.62,0.02-0.88-0.14c-1.86-1.16-3.99-0.67-5.99-1c-0.43-0.07-0.92,0.15-1.07-0.49
		c-1.63-0.41-3.3,0.13-4.93-0.22c-2.17,0.15-4.34,0.3-6.51,0.45c-0.33,0.02-0.77-0.11-0.89,0.3c-0.13,0.46,0.31,0.72,0.63,0.86
		c0.81,0.36,1.67,0.74,2.54,0.12c0.31-0.22,0.66-0.32,0.96-0.15C206.78,133.62,208.18,133.58,209.49,133.89z"/>
	<path class="st17" d="M121.83,158.91c0.22-0.03,0.29-0.18,0.24-0.36c-0.08-0.28-0.14-0.62-0.5-0.66c-0.27-0.03-0.36,0.21-0.32,0.43
		C121.3,158.64,121.49,158.85,121.83,158.91z"/>
	<path class="st14" d="M93.37,171.76c-0.25,0.69-0.49,1.39-0.74,2.08c0.69-0.33,0.91-0.99,1.12-1.64
		C93.84,171.93,93.76,171.67,93.37,171.76z"/>
	<path class="st18" d="M334.92,221.38c-0.17,0.01-0.33,0.03-0.5,0.04c-0.13,0.21-0.65,0.1-0.47,0.52c0.08,0.19,0.33,0.17,0.5,0
		c2.62-0.05,5.02-0.91,7.36-1.99c1.21-0.76,2.62-1.13,3.75-2.03l0,0c2.18-1.51,4.2-3.21,6.01-5.17c0.58-0.63,1.05-1.33,1.57-1.99
		c0.41-1.15,1.18-2.1,1.86-3.07c2.7-3.85,3.99-8.29,5.26-12.69c1.55-5.39,2.37-10.95,2.55-16.57c0.16-4.87,0.51-9.76-0.09-14.62
		c-0.43-3.43-0.62-6.89-1.16-10.32c-0.34-2.19-0.96-4.4-0.7-6.73c0.13-1.17-0.29-2.47-0.68-3.63c-1.15-3.48-1.62-7.18-3.39-10.47
		c-0.94-1.75-2.28-2.96-3.92-4.14c-2.07-1.48-4.37-2.27-6.59-3.34c-1.07-0.52-2.18-0.76-3.36-0.51c-0.32,0.07-0.6,0.13-0.53,0.56
		c4.82,1.45,8.93,3.96,11.74,8.23c2.09,3.17,2.74,6.87,3.58,10.51c1.88,8.09,2.13,16.33,2.38,24.55c0.17,5.51-0.08,11.04-0.85,16.54
		c-0.82,5.85-2.1,11.56-4.21,17.06c-2.78,7.25-7.37,13-14.24,16.82c-1.24,0.69-2.48,1.36-3.83,1.8
		C336.3,221.02,335.46,220.72,334.92,221.38z"/>
	<path class="st19" d="M344.36,123.56c-0.2-1.14-1.69-1.15-1.95-2.22c0,0,0,0,0,0c-1.54-0.62-3.27-0.06-4.79-0.77
		c-0.42-0.2-0.81-0.17-1.24-0.05c-0.87,0.25-1.77,0.42-2.66,0.23c-2.17-0.47-4.36-0.13-6.47,0.13c-1.66,0.2-3.36,0.05-4.99,0.48
		c-0.43,0.11-0.73,0-1.01-0.28c-3.42,0.55-6.82,1.17-10.13,2.25c-2.64,0.86-5.31,1.62-7.97,2.43c-0.24,0.07-0.53,0.13-0.7,0.29
		c-0.27,0.25-0.94,0.42-0.52,0.95c0.29,0.37,0.75,0.31,1.1-0.11c0.74-0.89,1.92-1.08,2.82-0.93c2.13,0.35,4.12-0.55,6.2-0.36
		c0.4,0.04,0.74-0.2,1.08-0.37c0.57-0.29,1.24-0.92,1.71-0.79c1.43,0.39,2.67-0.14,4.01-0.3c1.41-0.17,2.88-0.02,4.32-0.24
		c0.55-0.09,0.92,0.08,1.12,0.6c3.23-0.36,6.45-0.75,9.69-1.07C337.44,123.06,340.9,123.38,344.36,123.56z"/>
	<path class="st19" d="M350.38,125.01c-0.53-0.56-1.5-0.71-1.55-1.71c-0.01-0.15-0.16-0.23-0.29-0.16c-1.08,0.6-1.81,0.04-2.71-0.56
		c-0.66-0.44-0.68,0.59-0.96,0.99C346.62,124.4,348.53,124.56,350.38,125.01z"/>
	<path class="st20" d="M353.13,210.76c-1.58,1.49-2.95,3.18-4.55,4.66c-0.65,0.6-1.41,0.94-2.05,1.49
		c-0.36,0.31-0.75,0.58-0.97,1.01c2.09-0.9,3.66-2.47,5.19-4.07C351.65,212.91,352.86,212.2,353.13,210.76z"/>
	<path class="st20" d="M334.45,221.94c-0.37-0.15-0.13-0.34-0.03-0.52c-0.85,0.14-1.7,0.27-2.55,0.41
		c-0.25,0.14-0.49,0.28-1.08,0.61C332.25,222.16,333.42,222.76,334.45,221.94z"/>
	<path class="st9" d="M328.68,124.76c1.97-0.11,3.95-0.23,5.92-0.34C332.61,124.11,330.63,124.23,328.68,124.76z"/>
	<path class="st20" d="M345.56,217.92c-1.26,0.65-2.68,1.03-3.75,2.03C343.18,219.49,344.54,219.03,345.56,217.92z"/>
	<path class="st18" d="M338.75,124.66c0.34-0.01,0.67-0.02,1.01-0.02c0.32-0.19,0.41-0.43,0.08-0.68c-0.27-0.21-0.6-0.33-0.94-0.16
		C338.48,124,338.61,124.34,338.75,124.66z"/>
	<path class="st21" d="M229.26,227.66c-0.1-0.24-0.19-0.48-0.29-0.71c-0.69-0.1-0.91,0.55-1.34,0.85c-3.14,2.23-6.22,4.55-9.6,6.44
		c-4.07,2.28-8.28,4.23-12.74,5.62c-2.09,0.65-4.18,1.36-6.38,1.58c-0.37,0.04-0.64,0.12-0.78,0.47c0.38,0.63,1.01,0.35,1.55,0.42
		c4.84-1.17,9.57-2.66,14.12-4.7C219.46,235.1,224.56,231.69,229.26,227.66z"/>
	<path class="st21" d="M232.93,224.09c-1.38,0.26-2.06,1.44-2.99,2.28c-0.17,0.15,0.07,0.37,0.29,0.45
		C231.13,225.91,232.03,225,232.93,224.09z"/>
	<path class="st17" d="M124.64,203.93c-0.03,1.33,0.44,2.5,1.23,3.55C125.84,206.16,125.54,204.94,124.64,203.93z"/>
	<path class="st22" d="M43.97,209.5c0.23-0.36,0.45-0.73,0.68-1.09c-0.59-0.46-1.15-1.3-1.94-0.97c-0.95,0.41-1.52,1.33-1.87,2.33
		c-0.29,0.83,0.71,0.85,0.88,1.39C42.45,210.59,42.76,209.44,43.97,209.5z"/>
	<path class="st23" d="M321.25,121.07c0.1,0.63,0.43,0.9,1.08,0.68c0.32-0.11,0.7-0.33,0.98-0.24c2.04,0.66,4.1,0.08,6.06-0.17
		c2.45-0.31,4.83,0.36,7.31-0.05c1.42-0.24,3.23,0.15,4.8,0.54c0.63,0.16,0.75-0.1,0.93-0.5c-0.44-0.47-1.14-0.68-1.43-1.37
		c0.55-0.34,1.12-0.02,1.62-0.19c-1.27-0.58-2.61-0.31-3.92-0.35c-2.95-0.09-5.88,0.08-8.8,0.53
		C327.01,120.41,324.12,120.71,321.25,121.07z"/>
	<path class="st24" d="M213.76,131.55c-0.87,0.88-0.13,1.16,0.54,1.16c1.7,0,3.36,0.52,5.07,0.36c0.24-0.02,0.51,0.27,0.78,0.39
		c0.35,0.16,0.8,0.51,1.04,0.41c1.36-0.6,2.65,0.49,4.12,0.04c0.74-0.23,2.09,0.24,3.14,0.47c2.48,0.55,5.09,0.85,7.5,0.68
		c2.23-0.15,4.19,0.85,6.32,0.56c0.17-0.02,0.34,0.03,0.51,0.02c0.39-0.02,0.87-0.04,1-0.43c0.19-0.55-0.5-0.45-0.71-0.73
		c-5.2-0.83-10.38-1.76-15.62-2.25C222.91,131.79,218.35,131.38,213.76,131.55z"/>
	<path class="st24" d="M244.38,134.65c0.02,0.43,0.05,0.86,0.07,1.3c0.62,0,1.25,0.02,1.78-0.52c-0.32-0.52-1.01-0.38-1.35-0.79
		C244.71,134.64,244.55,134.65,244.38,134.65z"/>
	<path class="st9" d="M285.99,131.41c0.81,0.43,1.52,0.56,1.77-0.62C287.11,130.82,286.47,130.89,285.99,131.41z"/>
	<path class="st18" d="M245.26,201.19c-0.24,0.78-0.47,1.55-0.71,2.33c-1,3.05-2.61,5.84-3.7,8.85c2.04-3.47,3.85-7.05,5.43-10.75
		c0.3-2.33,1.54-4.34,2.11-6.6c1.07-4.28,2.18-8.57,2.61-12.94c0.26-2.6,0.62-5.23,0.84-7.84c0.45-5.38,0.14-10.69-0.12-16.03
		c-0.4-0.19-0.53-0.54-0.56-0.94c-0.22-4.01-1.86-7.57-3.82-10.93c-2.1-3.59-5.31-5.91-9.33-7.11c-2.83-0.84-5.74-1.37-8.5-2.44
		c-0.87-0.34-1.85-0.26-2.77-0.46c-0.86-0.19-1.77-0.12-2.63-0.47c-0.37-0.15-0.84-0.03-1.18,0.3c0.08,0.4,0.49,0.28,0.69,0.48
		c0.05,0.45,0.31,0.72,0.74,0.76c2.57,0.23,5.03,1.06,7.58,1.36c2.16,0.45,4.09,1.48,6.04,2.44c7.22,3.59,10.69,9.65,11.34,17.51
		c0.11,1.19,0.21,2.39,0.59,3.53c0.23,0.68,0.1,1.35,0.02,2.02c-0.12,1.01-0.27,2.03,0.17,3.02c0.1,0.12,0.23,0.22,0.36,0.3
		c0.17,4.12-0.26,8.2-0.6,12.29c-0.46,5.6-1.42,11.11-2.98,16.51c-0.08,0.29-0.2,0.56-0.3,0.84
		C245.94,198.49,245.14,199.69,245.26,201.19z"/>
	<path class="st25" d="M130.25,159.48c0.62,0.01,1.07-0.11,1.06-0.91c0-0.61,0.36-1.19,0.82-1.56c1.83-1.49,3.34-3.38,5.72-4.17
		c1.41-0.47,2.43-1.68,3.76-2.4c3.08-1.66,6.33-2.8,9.64-3.79c2.78-0.83,5.55-1.77,8.45-2.15c0.66-0.09,1.13-0.59,1.59-1.04
		c-2.24,0.56-4.5,1.05-6.72,1.7c-5.35,1.57-10.64,3.33-15.58,5.96c-2.45,1.31-4.79,2.85-6.71,4.88
		C131.39,156.94,130.4,158.01,130.25,159.48z"/>
	<path class="st25" d="M162.33,143.39c1.21,0.38,2.4-0.06,3.51-0.32c3.2-0.75,6.45-1.23,9.68-1.74c0.52-0.08,1.03-0.12,1.35-0.6
		c-3.67,0.5-7.33,1.06-10.95,1.85C164.73,142.83,163.47,142.87,162.33,143.39z"/>
	<path class="st9" d="M287.88,141.11c0.63-0.89,1.26-1.78,1.89-2.67c-0.69-1.1-1.41-1.3-2.39-0.53c-0.46,0.36-0.84,0.5-1.39,0.33
		c-0.53-0.17-1.01,0.03-1.44,0.35c-0.95,0.72-2.02,0.89-3.17,0.72c-0.61-0.09-1.2-0.15-1.69,0.34c-0.23,0.23-0.53,0.36-0.82,0.19
		c-1.52-0.85-2.79,0.18-4.14,0.54c-1.08,0.29-2.07,1.34-3.23,0.09c-0.33-0.36-0.75,0.14-1.1,0.39c-0.58,0.42-0.99,0.8-1.99,0.44
		c-0.66-0.24-2.17-0.79-2.98,0.45c-0.28,0.43-0.7,0.51-1.13,0.32c-1.86-0.82-3.64-0.09-5.43,0.29c-0.32,0.07-0.6,0.35-0.97,0.18
		c-2.29-1.04-4.62-0.53-6.94-0.13c-0.64,0.11-1.27,0.19-1.91,0.11c-0.35-0.04-0.7-0.03-0.89,0.35c-0.19,0.39-0.12,0.79,0.21,1.05
		c0.75,0.59,0.87,1.19,0.21,1.95c-0.35,0.4-0.18,0.89,0.06,1.33c0.24,0.45,0.48,0.9,0.72,1.36c0.62-0.84-0.09-1.96,0.58-2.81
		c0.52,0.09,0.51,0.79,1.15,0.88c0.03-0.66,0.14-1.3-0.48-1.79c-0.17-0.14-0.36-0.26-0.31-0.51c0.07-0.38,0.45-0.78,0.67-0.63
		c0.85,0.55,1.46-1.62,2.21-0.2c0.72,1.37,1.68,1.27,2.78,0.68c0.74-0.4,1.45-0.52,2.18-0.07c1.21,0.74,2.42-0.05,3.44-0.32
		c1.99-0.53,4.05-0.63,6.01-1.22c0.29-0.09,0.57-0.19,0.85-0.28c0.2-0.07,0.46-0.17,0.52,0.13c0.3,1.64,1.4,0.76,1.93,0.44
		c0.94-0.58,1.78-0.64,2.8-0.39c1,0.25,2.01,0.07,3.04-0.08c1.81-0.27,3.43-0.99,5.1-1.61c0.6-0.23,1.27-0.13,1.91-0.07
		c0.51,0.05,1.05,0.13,1.53,0c0.86-0.23,1.78-1.15,2.27,0.44C287.52,141.17,287.75,141.13,287.88,141.11z"/>
	<path class="st13" d="M128.26,150.11c0.09-0.08,0.27-0.2,0.38-0.37c0.23-0.36,0.56-0.84,0.03-1.11c-0.65-0.33-1.15-1.11-2.04-0.79
		c-0.12,0.04-0.23,0.26-0.25,0.41C126.32,148.61,127.81,150.14,128.26,150.11z"/>
	<path class="st26" d="M89.71,172.18c-0.04-0.48-0.12-0.93-0.67-1.12c-1.51-0.53-4.95,1.73-5.05,3.34
		c-0.06,0.85,0.16,1.05,1.13,0.87c1.64-0.31,2.84-1.31,4.19-2.11C89.72,172.91,89.72,172.57,89.71,172.18z"/>
	<path class="st27" d="M276.45,153.93c1.84,2.09,0.97,4.54,0.94,6.88c0.56-0.44,0.7-1.05,0.66-1.72c-0.06-1.15-0.13-2.3-0.19-3.45
		C277.5,154.98,277.29,154.2,276.45,153.93z"/>
	<path class="st25" d="M191.63,189.38c1.66-0.39,3.32-0.8,4.92-1.39c1.14-0.42,2.53-0.1,3.44-1.17c-2.14,0.64-4.41,0.73-6.53,1.49
		C192.8,188.55,192.09,188.76,191.63,189.38z"/>
	<path class="st17" d="M245.26,201.19c0.75-1.22,0.94-2.62,1.31-3.96c-1.09,0.8-1.23,2.32-2.36,3.11c-0.25,0.18-0.1,0.48,0.27,0.47
		C244.82,200.8,245.06,200.96,245.26,201.19z"/>
	<path class="st28" d="M249.92,158.29c0.18,3.01,0.35,6.03,0.53,9.04C250.66,164.3,250.45,161.29,249.92,158.29z"/>
	<path class="st23" d="M344.36,123.56c0.17,0,0.34,0.01,0.51,0.01c0.54-0.26,0.99-0.1,1.57,0.07c1.34,0.4,2.71,0.67,3.94,1.36
		c0.17,0.08,0.35,0.16,0.52,0.24c2.39,0.92,4.31,2.54,6.17,4.24c0.42,0.38,0.83,0.59,1.38,0.77c1.92,0.65,4.05,1.08,4.67,3.53
		c0.15,0.57,0.54,1.16,1.29,1.27c0.27-0.86,0.08-1.71-0.16-2.52c-0.57-1.91-1.22-3.8-1.84-5.7c-1.06,0.71-1.9-0.13-2.82-0.4
		c-0.42-0.12-0.81-0.28-1.1-0.62c-0.41-0.49-0.93-0.61-1.56-0.7c-1.6-0.23-2.91-1.23-4.21-2.07c-1.5-0.97-3.15-1.37-4.77-1.91
		c-1.42-0.47-2.89-0.67-4.38-0.81c-0.96-0.09-1.37,0.19-1.48,1.08C342.07,122.93,343.53,122.92,344.36,123.56z"/>
	<path class="st29" d="M342.41,121.34c0.26-0.42,0.55-0.59,1.14-0.58c2.46,0.03,4.51,1.24,6.72,2.04c2.12,0.76,3.97,1.87,5.81,3.07
		c0.27,0.18,0.54,0.21,0.85,0.09c0.19-0.07,0.54-0.17,0.59-0.1c1.18,1.62,3.58,1.29,4.7,3.09c0.47-0.75-0.86-1.54,0.19-2.11
		c-0.24-0.7-0.46-1.4-0.93-1.98c-1.65-0.57-3.15-1.48-4.7-2.25c-2.36-1.16-4.9-1.73-7.4-2.44c-0.92-0.26-1.71,0.56-2.6,0.15
		c-1.39-0.18-2.79-0.35-4.18-0.53c-0.35-0.2-0.75,0.01-1.11-0.14c-0.32-0.13-0.67-0.25-0.86,0.17c-0.2,0.45-0.03,0.83,0.38,1.06
		c0.38,0.22,0.72,0.57,1.21,0.56C342.28,121.4,342.34,121.37,342.41,121.34z"/>
	<path class="st19" d="M364.41,135.06c-0.42-0.83-0.27-2-0.74-2.56c-0.63-0.75-1.45-1.59-2.49-1.94c-1.04-0.34-1.76-1.24-3.1-1.21
		c-0.76,0.01-1.42-1.48-2.47-1.8c-1.48-0.45-2.4-1.88-3.94-2.17c-0.25-0.05-0.5-0.09-0.76-0.13c3.6,1.85,5.84,5.11,8.39,8.06
		c0.08,0.09,0.19,0.27,0.26,0.26c1.47-0.23,2.2,1.04,3.28,1.59c0.61,0.31,0.79,1.17,1.61,1.16
		C364.42,135.9,364.42,135.48,364.41,135.06z"/>
	<path class="st30" d="M346.77,120.31c1.16,0.25,2.33,0.48,3.48,0.74c3.6,0.82,6.92,2.36,10.16,4.07c0.46,0.25,0.93,0.66,1.06-0.28
		c-0.12-0.61-0.61-0.96-1.07-1.22c-6.44-3.67-13.35-5.66-20.79-5.74c1.74,0.24,3.43,0.88,5.22,0.78c0.8-0.05,1.51,0.26,2.18,0.65
		c0.25,0.14,0.61,0.25,0.5,0.63C347.43,120.32,347.05,120.25,346.77,120.31z"/>
	<path class="st31" d="M186.51,243.09c-5.83,0.13-12.17-0.3-18.83-2.14"/>
	<g>
		<path d="M107.39,152.48c-0.26-0.54-0.72-0.16-1.12-0.05c-2.08,0.59-3.86,1.79-5.79,2.7c-0.62,0.29-1.28,0.41-1.98,0.47
			c-0.86,0.07-1.67,0.34-2.24,1.1c-0.22,0.29-0.49,0.61-1.06,0.46c0.26-0.54,0.51-1.05,0.76-1.56c-2.61,0.94-4.98,2.39-7.41,3.69
			c-2.81,1.51-5.7,2.88-8.32,4.72c0.5,0.03,1.06,0.2,1.16,0.65c0.11,0.51-0.56,0.54-0.9,0.74c-2.56,1.52-5.31,2.71-7.71,4.49
			c-0.14,0.1-0.3,0.28-0.43,0.27c-1.26-0.19-1.75,0.95-2.59,1.48c-2.77,1.78-5.58,3.48-8.27,5.37c-2.69,1.89-5.25,3.96-7.86,5.96
			c-0.08,0.06-0.09,0.22-0.15,0.38c0.8,0.35,1.11-0.53,1.83-0.66c-0.34,1.31,0.53,1.85,1.4,2.38c0.33,0.2,0.64,0.41,0.85,0.76
			c0.34,0.57,0.86,0.62,1.46,0.44c2.58-0.78,4.98-2,7.49-2.95c3.18-1.21,6.36-2.45,9.53-3.68c0.2-0.08,0.43-0.11,0.6-0.23
			c0.85-0.57,1.66-0.76,2.46-0.67c1,1.08,2.66,1.63,4.58,1.6c0.02,0,0.04,0,0.06,0c1.61-0.03,3.39-0.45,5.13-1.3
			c4.37-2.14,6.8-6.15,5.43-8.95c-0.11-0.22-0.24-0.42-0.38-0.61c0.13-0.57-0.3-1.07-0.7-1.54c-0.48-0.56-1.17-0.85-1.89-1.04
			c-0.26-0.07-0.51-0.21-0.42-0.53c0.09-0.32,0.39-0.31,0.64-0.26c1.5,0.3,3.07,0.3,4.46,1.1c1.15,0.66,4.67-0.26,5.37-1.38
			c0.49-0.79,0.29-1.66,0.05-2.49c-0.11-0.41-0.38-0.8-0.4-1.21c-0.05-1-0.83-1.93-0.22-2.99c1.05-1.81,1.95-3.75,3.81-4.88
			c0.63-0.38,1.48-0.4,2.14-0.81C107.13,153.22,107.64,152.98,107.39,152.48z"/>
	</g>
	<path d="M305.3,125.54c13.54-2.64,27.54-6.78,41.44-4.82c1.62,0.22,1.57-1.65,0.2-1.79c-31.01-6.57-56.75,14.69-85.42,18.96
		c-0.01,0-0.03,0-0.04,0c-6.42,0.58-13.24,1.16-20.35,1.27c-0.02,0-0.05,0-0.07,0c-5.47-0.43-9.26-3.8-14.55-4.28
		c-8.16-1.25-15.05-1.94-23.1-1.06c-0.07,0.01-2.45-0.12-2.51-0.09l-15.25,0.29c-12.98,0.88-26.24,1.57-40.43,6.52
		c0,0-21.86,5.23-26.25,9.6c-3.47,3.46-0.01,24.91,1.25,30.08c2.75,11.3,8.93,30.28,12.4,39.01c-0.21-0.14-0.37-0.38-0.54-0.62
		c-1.27-1.84-1.96-3.97-2.87-5.98c-0.92-2.03-2.07-4.02-2.55-6.15c-0.68-3-2.35-5.56-3.2-8.48c-0.98-3.35-2.18-6.65-3.34-9.96
		c-0.29-0.82-0.84-1.49-1.46-2.08c0,0,0,0,0,0s0,0,0,0c-0.78-1.8-1.22-3.78-2.63-5.27c4.85,12.21,7.14,25.37,13.03,37.16
		c2.5,5.59,5.69,11.19,10.2,15.38c5.62,5.93,12.44,9.82,20.31,11.92c0.87,0.29,1.74,0.57,2.61,0.86c0.03,0.01,0.05,0.02,0.08,0.02
		c2.94,0.49,5.87,1.04,8.82,1.46c7.22,1.02,17.77,0.43,21.66-0.14c3.89-0.57,13.86-3.07,17.68-4.24c3.82-1.17,8.78-3.48,12.85-5.9
		c1.14-0.68,2.22-1.43,3.33-2.15c4.07-2.62,7.52-5.93,10.78-9.47c6.95-7.54,11.57-16.43,15.19-25.93c2.04-5.33,3.8-10.75,5.47-16.21
		l1.04-4.27c0.2-1.52,0.52-3,0.76-4.51l1.58-9.55c0.28-0.43,0.02-0.87-0.2-1.29c-0.67-1.29-1.51-2.5-2.1-3.84
		c-0.96-2.21-0.54-3.4,1.66-4.3c4.39-1.79,8.97-2.16,13.64-1.7c0.56,0.06,1.07,0.3,1.52,0.64c0.29,0.18,0.54,0.46,0.8,0.69
		c0.14,0.12,0.2,0.3,0.18,0.48c-7.06,53.98,74.32,113.13,87.39,30.11c0-0.01,0-0.02,0-0.03
		C370.01,130.25,372.41,112.43,305.3,125.54z M134.3,148.65c3.02-1.63,6.21-3.3,8.14-2.37c-2.41,1.69-5.51,3.19-8.03,5.16
		C134.36,150.35,134.33,149.4,134.3,148.65z M202.33,240.5c-2,0.78-34.36,10.2-55.87-13.52c0,0,0.4,1.81-3.44-3.88
		c-3.84-5.69-6.62-37.83-6.98-38.61c-0.3-0.63-1.12-20.21-1.55-30.91c21.52-16.94,54.41-15.93,80.48-16.61
		c9.39-0.38,18.68-0.24,27.17,4.88c6.48,3.04,6.33,12.16,9.53,16.41c-0.51,0.47-0.5,1.1-0.48,1.73c0.13,3.08,0.44,6.16,0.3,9.26
		c-0.07,1.41-0.05,2.83-0.35,4.22c-0.04,0.21-0.09,0.42-0.09,0.64c-0.11,5.67-1.1,11.23-2.26,16.76c-0.62,2.97-1.31,5.92-2.45,8.76
		c-0.2,0.5-0.54,1.08-0.28,1.64l-3.15,6.27l-9.05,14.71C233.84,222.24,224.83,232.74,202.33,240.5z M298.82,199.42
		c-0.02-0.13-0.04-0.26-0.05-0.39c0.17,0.27,0.35,0.52,0.53,0.78C299.1,199.61,298.94,199.48,298.82,199.42z M321.76,220.94
		c-8.25-1.28-17-14.15-21-19.37c-1.23-2.85-2.5-5.67-3.64-8.55c-2.26-5.7-4.17-11.51-5.9-17.39c-1.25-4.23-2.34-8.5-3.2-12.83
		c-0.09-0.45-0.33-0.88-0.5-1.31c-0.26-1.53-0.51-3.07-0.77-4.6c0.55-0.5,0.54-1.14,0.43-1.78c-0.78-4.6-0.7-9.12,1.13-13.49
		c0.03-0.08,0.01-0.17,0.01-0.25c-0.03-0.26-0.17-0.46-0.32-0.67l1.47-2.11c0.32,0.09,0.63,0.14,0.96,0.02
		c6.31-8.2,18.61-8.01,26.97-12.02c39-8.92,45.09,11.63,44.89,45.88C362.15,197.47,350.34,227.88,321.76,220.94z"/>
</g>
<g id="lenses">
	<g class="st32">
		<linearGradient id="SVGID_2_" gradientUnits="userSpaceOnUse" x1="298.1658" y1="206.3278" x2="351.88" y2="129.6159">
			<stop  offset="0" style="stop-color:#FF00FF"/>
			<stop  offset="0.0809" style="stop-color:#FA02FF"/>
			<stop  offset="0.1819" style="stop-color:#EA06FD"/>
			<stop  offset="0.2936" style="stop-color:#D10EFB"/>
			<stop  offset="0.413" style="stop-color:#AD18F8"/>
			<stop  offset="0.5372" style="stop-color:#8026F4"/>
			<stop  offset="0.5871" style="stop-color:#6C2CF2"/>
			<stop  offset="0.9264" style="stop-color:#00ADEE"/>
		</linearGradient>
		<path class="st33" d="M286.34,156.9c-1.49-15.25,2.38-22.2,17.87-26.8c16.24-4.46,44.2-13.56,52.36,6.88
			c6.78,25.04,10.07,80.93-24.7,84.85C301.31,224.98,290.72,180.39,286.34,156.9z"/>
	</g>
	<g>
		<linearGradient id="SVGID_3_" gradientUnits="userSpaceOnUse" x1="151.979" y1="233.7619" x2="224.0201" y2="130.8767">
			<stop  offset="0" style="stop-color:#FF00FF"/>
			<stop  offset="0.0809" style="stop-color:#FA02FF"/>
			<stop  offset="0.1819" style="stop-color:#EA06FD"/>
			<stop  offset="0.2936" style="stop-color:#D10EFB"/>
			<stop  offset="0.413" style="stop-color:#AD18F8"/>
			<stop  offset="0.5372" style="stop-color:#8026F4"/>
			<stop  offset="0.5871" style="stop-color:#6C2CF2"/>
			<stop  offset="0.9264" style="stop-color:#00ADEE"/>
		</linearGradient>
		<path class="st34" d="M167.43,241.89c29.47,4.93,64.26-1.43,78.42-41.04c10.22-28.6,15.55-66.69-34.87-64.22
			c-34.64,1.7-82.59-0.78-83.53,35.73C127,196.35,139.57,234.11,167.43,241.89z M244.85,203.48"/>
	</g>
</g>
<g id="lenses_back_shadow">
</g>
<g id="lenses_silo_shadow_copy">
	<g class="st35">
		<path class="st15" d="M358.75,146.95c-0.64-3.66-1.39-7.04-2.18-9.98c-2.04-5.12-5.33-8.38-9.36-10.33
			c-12.07-5.84-30.83,0.11-43,3.45c-6.48,1.92-10.93,4.27-13.8,7.45c2.15-1.25,4.71-2.38,7.73-3.44
			c12.26-4.01,31.24-11.04,43.56-5.14c3.77,1.81,6.93,4.81,9.07,9.5c0.96,2.98,1.89,6.42,2.73,10.16
			c4.76,21.29,6.37,52.57-7.64,67.58C362.73,202.84,362.7,169.41,358.75,146.95z"/>
	</g>
	<g class="st35">
		<path class="st15" d="M210.97,136.63c-26.82,1.31-61.62,0.13-76.39,16.48c16.34-12.06,46.76-12.18,70.73-14.1
			c50.32-4.03,46.18,34.21,36.84,63.11c-4.53,14.03-11.73,24.05-20.44,30.98c10.12-6.64,18.67-16.96,24.13-32.25
			C256.07,172.25,261.39,134.16,210.97,136.63z"/>
	</g>
</g>
<g id="shadow_1_">
</g>
</svg>
