<?xml version="1.0" encoding="UTF-8"?>
<svg width="277px" height="262px" viewBox="0 0 277 262" version="1.1" xmlns="http://www.w3.org/2000/svg" xmlns:xlink="http://www.w3.org/1999/xlink">
    <title>p1um-icon copy 2</title>
    <defs>
        <filter x="-29.4%" y="-31.7%" width="158.9%" height="163.5%" filterUnits="objectBoundingBox" id="filter-1">
            <feOffset dx="1" dy="3" in="SourceAlpha" result="shadowOffsetOuter1"></feOffset>
            <feGaussianBlur stdDeviation="13" in="shadowOffsetOuter1" result="shadowBlurOuter1"></feGaussianBlur>
            <feColorMatrix values="0 0 0 0 0   0 0 0 0 0   0 0 0 0 0  0 0 0 0.720443619 0" type="matrix" in="shadowBlurOuter1" result="shadowMatrixOuter1"></feColorMatrix>
            <feMerge>
                <feMergeNode in="shadowMatrixOuter1"></feMergeNode>
                <feMergeNode in="SourceGraphic"></feMergeNode>
            </feMerge>
        </filter>
        <polygon id="path-2" points="0.0325765599 0.228901749 191.05499 0.228901749 191.05499 177.681001 0.0325765599 177.681001"></polygon>
        <polygon id="path-4" points="0 0.228901749 191.115785 0.228901749 191.115785 177.771125 0 177.771125"></polygon>
        <path d="M25.7398611,0.205949118 C25.6274713,0.280334379 25.537878,0.414427709 25.4477537,0.54527332 C24.7565829,1.54647645 24.3857496,2.6996666 23.8905973,3.79317991 C23.3927282,4.89371953 22.7677921,5.97524125 22.5061008,7.13442719 C22.1390773,8.76434504 21.2318082,10.1526513 20.767603,11.7391309 C20.2344149,13.5579786 19.5818107,15.3524059 18.9525339,17.1468333 C18.796175,17.5925827 18.4986339,17.9547346 18.1565929,18.2772581 C17.7319848,19.2556336 17.4936522,20.3274121 16.7297199,21.1369374 C16.245435,21.8992145 15.5287508,22.3178268 14.6697916,22.5273984 C14.6100835,22.5979738 14.5416628,22.6164296 14.4705253,22.6164296 C14.4308968,22.6164296 14.3907375,22.6110272 14.3510779,22.6050314 C14.3109186,22.5995977 14.2707281,22.5936331 14.2316617,22.5936331 C14.2288512,22.5936331 14.225666,22.5936331 14.2224182,22.5942577 C14.1578074,22.5958191 14.0937274,22.5964436 14.0291165,22.5964436 C13.2060383,22.5964436 12.3937962,22.467784 11.5777443,22.372757 L11.5771197,22.372757 C11.4809997,22.372757 11.3870657,22.3933987 11.2926008,22.4134784 C11.1986667,22.4341201 11.1047327,22.4547307 11.0086439,22.4547307 C10.9266703,22.4547307 10.8436036,22.4395226 10.758351,22.3971773 C10.6394345,22.3374693 10.5341022,22.3092391 10.4418232,22.3092391 C10.2159506,22.3092391 10.0655562,22.4786201 9.97162221,22.7745373 C9.88802467,23.0367594 9.76476748,23.3777387 9.4867752,23.3777387 C9.45745204,23.3777387 9.42597415,23.3739289 9.39340327,23.3663405 C8.63056399,23.1779415 7.79877314,23.2631942 7.09729702,22.8673784 C6.01683704,22.2571194 4.83157567,22.0393973 3.63604026,21.8346973 C3.59150903,21.8271089 3.54807079,21.8232991 3.50681851,21.8232991 C3.33415851,21.8232991 3.19406939,21.8938745 3.11209571,22.0714373 C3.01057326,22.2913142 3.11053431,22.4634121 3.26192799,22.6344482 C3.28256974,22.6578068 3.30430448,22.6795103 3.32653886,22.6990591 C3.04314413,22.5535675 2.77330239,22.372757 2.48553573,22.2342917 C1.86656416,21.9356889 1.28238067,21.5100191 0.566227354,21.5100191 C0.470669462,21.5100191 0.372394728,21.5176075 0.271403151,21.5339086 C-0.0950582432,21.8906268 0.089530875,22.0833665 0.473917181,22.2147742 C1.22698207,22.4731865 1.90132101,22.8728121 2.5414652,23.340265 C2.83519642,23.5547394 3.02303326,23.8131829 2.98396694,24.1948836 C3.06918834,24.6449738 3.54482307,24.7926513 3.73375289,25.1618608 C3.97698832,25.4181183 4.24139639,25.6656944 4.09156411,26.0740015 C4.08341358,26.3536176 4.15183428,26.6256141 4.18821498,26.9014516 C4.42979533,27.5399407 4.33155182,27.8336719 3.77175745,28.1740891 C3.58932307,28.285386 3.3884329,28.3407846 3.18754273,28.4015856 C2.90739572,28.4868382 2.73364274,28.6665558 2.80315642,28.9705923 C2.86505045,29.241527 3.04639185,29.4152487 3.29940167,29.4152487 C3.33849921,29.4152487 3.37975149,29.410908 3.42209676,29.4027887 C4.12685183,29.2599828 4.88316444,29.3435803 5.53470688,28.9841765 C5.87946477,28.7935916 6.21444827,28.7078081 6.55705142,28.7078081 C6.8524065,28.7078081 7.15319526,28.7718881 7.47084718,28.8875256 C8.50405909,29.2659473 8.72340505,29.6378736 8.37212049,30.666214 C7.99585348,31.7667536 7.71570647,32.8629525 8.65282961,33.8538192 C8.74620154,33.9531869 8.77118399,34.106829 8.84447627,34.2251834 C9.20715907,34.811584 9.69038221,35.3963296 10.1545875,35.7096096 C9.95316642,35.5814496 9.74034712,35.4185953 9.52587274,35.2671079 C8.84338329,34.7844156 8.10337173,34.4863437 7.27264263,34.4038079 C6.88988018,34.3652725 6.55433457,34.2192188 6.27418756,33.9499079 C6.13953213,33.8212483 6.00325283,33.6936504 5.82191143,33.6279465 C5.73993775,33.5986234 5.66174267,33.5823535 5.58791951,33.5823535 C5.43752513,33.5823535 5.30774127,33.6502121 5.2159932,33.8109118 C5.09601496,34.0232314 5.15572303,34.2257455 5.3566132,34.3582149 C5.53414477,34.4754763 5.68834898,34.6128486 5.82572126,34.7719244 C7.36170508,35.4028251 8.76684329,36.3106251 10.273504,36.9746587 C15.7050957,39.3674159 21.3744893,41.0961393 27.0678035,42.74342 C28.5359288,43.1679968 30.016514,43.5361133 31.5112455,43.8499242 C32.2648413,44.1148943 33.1091234,44.0144336 33.8252767,44.4303291 L33.8240276,44.4293922 C34.2073521,44.5656715 34.6275883,44.6188529 35.0103507,44.6563266 C37.368351,44.8914115 39.6215499,45.6401357 41.9540368,46.0011946 C43.3580821,46.2189167 44.7637824,46.4713957 46.1585841,46.763503 C47.1250304,46.9660171 48.1012511,47.1180353 49.0736619,47.2885093 C51.4419675,47.7005949 53.8233264,47.9910784 56.2122737,48.2142342 C58.0778073,48.389049 59.9477129,48.5226114 61.8186802,48.6415279 C63.1792872,48.7278423 64.5388324,48.8521925 65.9026871,48.8521925 C66.3495296,48.8521925 66.797465,48.8386083 67.2448383,48.8060374 C67.1498425,48.5991826 67.0206208,48.5383816 66.8821555,48.5323858 C67.1227053,48.4927574 67.3100113,48.3678763 67.2464934,47.8960827 C67.0542846,47.545329 66.6964734,47.6099399 66.3864724,47.5480458 C65.9803513,47.4671339 65.5660798,47.4573595 65.1529012,47.4383728 C65.1599587,47.4371237 65.1670163,47.4361869 65.1746047,47.434563 C65.8793598,47.3026244 66.5433622,47.013796 67.2611394,46.9334462 C67.3616001,46.9220167 67.4397639,46.8715209 67.4902597,46.7949809 C66.4103618,46.777056 65.3114461,46.7108213 64.169623,46.5865023 L62.807923,46.6348122 L54.5285811,46.4751743 C47.4784697,45.9990399 40.2828667,45.6233038 32.579589,42.9341298 C32.579589,42.9341298 20.7108616,40.0950611 18.3284409,37.720791 C16.4433585,35.843297 18.3208525,24.1955394 19.0054967,21.3885107 C20.5007591,15.2527259 23.8561527,4.9498676 25.7396113,0.205949118 M4.23583779,22.9532868 C4.09303183,22.9532868 3.95784552,22.933738 3.82806166,22.8995433 C3.87802657,22.9044149 3.92905324,22.9071317 3.98011113,22.9076938 C4.12179288,22.9105043 4.26025814,22.9179991 4.39163463,22.9456984 C4.3389841,22.9511008 4.28686445,22.9532868 4.23583779,22.9532868 M4.87485777,23.1938054 C4.84990655,23.1731636 4.82492409,23.1503671 4.79941076,23.1275706 C4.82492409,23.1482124 4.84990655,23.1699159 4.87485777,23.1938054 M10.7435176,35.9421026 C10.6561103,35.9421026 10.5627383,35.9182131 10.4644636,35.8774917 C10.5616453,35.9154963 10.6566724,35.9377619 10.7473275,35.9421026 C10.7460783,35.9421026 10.7445169,35.9421026 10.7435176,35.9421026 M64.8705682,47.4226339 C64.6305805,47.4063328 64.3916858,47.3808195 64.1560387,47.3292307 C64.2184949,47.3080581 64.2787651,47.2993767 64.3379423,47.2993767 C64.4590135,47.2993767 64.574651,47.3357574 64.6919436,47.3721381 C64.7505587,47.3905939 64.8097672,47.4090497 64.8705682,47.4226339 M66.4011183,48.5942798 C66.3794148,48.5942798 66.3582422,48.5927184 66.3381313,48.5894083 C66.4396538,48.560616 66.5634731,48.5578991 66.686699,48.5508416 C66.6660885,48.5552135 66.6448846,48.5589921 66.6242741,48.5633328 C66.5466411,48.5785409 66.4706008,48.5942798 66.4011183,48.5942798 M26.699,37.0209387 C26.6751106,37.6170826 26.6549997,38.1306906 26.6387299,38.5379047 C27.9531818,39.2453766 29.3257491,39.9696492 30.358961,39.9696492 C30.6157806,39.9696492 30.8513964,39.9251179 31.0599062,39.8241264 C29.749795,38.908738 28.0671954,38.0943412 26.699,37.0209387" id="path-6"></path>
        <linearGradient x1="19.9728758%" y1="53.6978521%" x2="55.2811111%" y2="53.6978521%" id="linearGradient-8">
            <stop stop-color="#65686D" offset="0%"></stop>
            <stop stop-color="#211C1C" offset="100%"></stop>
        </linearGradient>
        <polygon id="path-9" points="0 0.228901749 191.115785 0.228901749 191.115785 177.771125 0 177.771125"></polygon>
        <polygon id="path-11" points="0.0325765599 0.228901749 191.05499 0.228901749 191.05499 177.681001 0.0325765599 177.681001"></polygon>
        <path d="M18.8215322,0.207291925 C18.7542044,8.37639874 17.2122561,16.8680291 14.1956558,25.6805278 C13.004992,28.4587642 11.7057169,31.1208322 10.2989548,33.6655764 L28.5494505,39.4870194 C30.9470792,28.759553 31.8765827,13.3557456 25.9145197,4.68168094 C24.7217011,3.36288834 23.3062264,2.23083959 21.6453928,1.30676979 C20.9715847,0.931595766 20.2988697,0.569443845 19.5664465,0.32673929 C19.3351714,0.231743503 19.0636746,0.266469116 18.8215322,0.207291925 M4.48731743,42.7001691 C3.12995817,44.5206406 1.70308522,46.2634792 0.204575083,47.9314016 C4.84022584,49.4668546 10.7393018,51.3883177 15.9678175,51.3883177 C18.198782,51.3883177 20.3075823,51.0381261 22.1448858,50.1590872 L4.48731743,42.7001691" id="path-13"></path>
        <linearGradient x1="28.7981674%" y1="15.5358057%" x2="64.0596543%" y2="96.9138036%" id="linearGradient-15">
            <stop stop-color="#BA37A2" offset="0%"></stop>
            <stop stop-color="#53B3E8" offset="100%"></stop>
        </linearGradient>
        <path d="M23.4436612,0.304598589 C22.0895496,0.304598589 20.6518405,0.478414023 19.1240072,0.849247347 C18.9345153,0.879101382 18.7439304,0.919822784 18.5533767,0.970849449 C18.140729,1.10550488 17.7389487,1.258054 17.3442259,1.42855926 C13.4361267,3.31526553 9.60784643,8.90434048 7.72110893,11.3665801 C7.05548263,12.9112453 6.36484265,14.4466982 5.74590231,16.0103501 C4.52101252,19.1024286 3.48289781,22.2596177 2.54252695,25.4510327 C1.86603329,27.748794 1.27366804,30.06498 0.807276822,32.4142988 C0.757874016,32.6602511 0.628121388,32.8904332 0.535280337,33.1277041 C0.395722095,33.9605879 0.256195081,34.7929097 0.11613719,35.6257935 C0.416363849,35.8951044 0.409306306,36.244203 0.350129114,36.5943945 C-0.0722929806,39.0892362 -0.0271996484,41.5438562 0.966383835,43.9192505 L0.970724537,44.0560607 C0.960950151,44.159207 0.916418924,44.2444596 0.862675417,44.3264333 C0.900679977,44.4019115 0.93977752,44.4757659 0.979936818,44.5490582 C1.21395997,44.8802319 1.448514,45.2114368 1.68250592,45.5426417 C1.75417434,45.5263406 1.82693574,45.5160354 1.89969715,45.5160354 C1.97189644,45.5160354 2.04409574,45.5258097 2.11741925,45.5513231 C2.4410045,45.9715592 2.79338204,46.351636 3.17017992,46.6963939 C4.09262586,47.1535416 5.13292654,47.5824592 6.30079388,47.9907662 C6.84806579,48.1699216 7.41922718,48.3594135 8.01159243,48.555963 C9.51010257,46.8880406 10.9369755,45.145202 12.2943348,43.3247305 L10.4162787,42.5314751 L14.5089982,33.1429122 L18.1059722,34.2901377 C19.5127342,31.7453936 20.8120093,29.0833256 22.0026731,26.3050892 C25.0192734,17.4925904 26.5612218,9.00096013 26.6285495,0.831853313 C26.5074783,0.801999278 26.3939955,0.748255771 26.2957207,0.64345437 C26.2153709,0.625529458 26.135552,0.609259634 26.0541092,0.592427704 C26.0340295,0.591178582 26.0139499,0.589617178 25.993839,0.588087003 C25.5318197,0.514794724 25.0697692,0.44094034 24.6082496,0.367648061 C24.607625,0.367648061 24.6073127,0.3670235 24.6066882,0.3670235 C24.3884352,0.344227009 24.1685271,0.326302097 23.954084,0.312749115 C23.7852338,0.307315431 23.6147285,0.304598589 23.4437236,0.304598589" id="path-16"></path>
        <linearGradient x1="80.4269935%" y1="44.8581487%" x2="95.6867092%" y2="65.103463%" id="linearGradient-18">
            <stop stop-color="#B533A0" offset="0%"></stop>
            <stop stop-color="#4CA6E1" offset="100%"></stop>
        </linearGradient>
        <path d="M4.20373533,0.0411585955 L0.111015787,9.42972152 L19.6466402,17.681895 C21.6951703,16.7013648 23.4086857,15.071447 24.5711194,12.5234239 C25.0929092,10.9059973 25.5978359,9.03990153 26.051205,7.00982719 L4.20373533,0.0411585955" id="path-19"></path>
        <linearGradient x1="80.4269935%" y1="44.8581487%" x2="95.6867092%" y2="65.103463%" id="linearGradient-21">
            <stop stop-color="#B633A0" offset="0%"></stop>
            <stop stop-color="#4CA8E2" offset="100%"></stop>
        </linearGradient>
        <path d="M0.0696698228,0.267655783 C0.0712312263,0.270466309 0.072917542,0.273089467 0.0745414016,0.275806309 C0.0946522783,0.277367712 0.114731927,0.279054028 0.134811576,0.280147011 C0.113108067,0.275806309 0.091373331,0.271465607 0.0696698228,0.267655783 M0.376423148,0.331173676 C0.474697883,0.435975077 0.588180687,0.489718584 0.709251912,0.519572619 C0.951394362,0.57874981 1.2228912,0.544024197 1.45416628,0.639019984 C2.18658942,0.881724539 2.85930449,1.24387646 3.53311254,1.61905049 C5.19394619,2.54312029 6.60942089,3.67516903 7.80223945,4.99396163 C7.34075104,4.32290165 6.83744825,3.69090798 6.29123809,3.10560027 C15.4469021,10.3647524 15.4322249,28.5147874 13.2870751,40.708193 C12.9374144,42.694267 12.5334481,44.5283227 12.1012829,46.1256697 C11.9199415,46.5801006 11.7201443,47.0073943 11.5034839,47.4097367 C11.5041085,47.4091121 11.5041085,47.4091121 11.5041085,47.4087999 C11.7207376,47.0070195 11.9200039,46.5802567 12.1013453,46.1258259 C15.6673722,32.9497041 17.4553041,4.03963183 0.376423148,0.331173676" id="path-22"></path>
        <linearGradient x1="80.4269935%" y1="44.8581487%" x2="95.6867092%" y2="65.103463%" id="linearGradient-24">
            <stop stop-color="#B632A0" offset="0%"></stop>
            <stop stop-color="#4BA9E3" offset="100%"></stop>
        </linearGradient>
        <path d="M0.248731573,0.08775 C0.249356134,0.08775 0.249668415,0.08875 0.250292976,0.08875 C0.711812614,0.2061 1.17386313,0.32435 1.63588242,0.4417 C1.63432101,0.4372 1.6326347,0.433 1.63101084,0.42865 C1.18416839,0.2878 0.723210859,0.17305 0.250855081,0.08785 C0.249605959,0.08785 0.249605959,0.08785 0.248669117,0.08785" id="path-25"></path>
        <linearGradient x1="63.7530528%" y1="44.0418789%" x2="70.6504703%" y2="67.5011402%" id="linearGradient-27">
            <stop stop-color="#B633A0" offset="0%"></stop>
            <stop stop-color="#4CA9E3" offset="100%"></stop>
        </linearGradient>
        <path d="M0.046,0.205199644 C0.2506,0.556484197 0.480666667,0.891467697 0.738,1.21180523 C0.7571,1.20693365 0.7768,1.20259295 0.795933333,1.19878313 C0.546166667,0.867578224 0.2958,0.53637332 0.046,0.205199644" id="path-28"></path>
        <linearGradient x1="80.4269935%" y1="45.4871355%" x2="95.6867092%" y2="63.255903%" id="linearGradient-30">
            <stop stop-color="#B633A0" offset="0%"></stop>
            <stop stop-color="#4CAAE3" offset="100%"></stop>
        </linearGradient>
        <path d="M23.2764973,0.281302449 C21.7046949,0.281302449 20.2365697,0.523476127 18.8656574,0.970849449 C19.0562111,0.919822784 19.246796,0.879101382 19.4362879,0.849247347 C20.9641212,0.478414023 22.4018303,0.304661045 23.7559419,0.304661045 C23.9269468,0.304661045 24.097452,0.307471571 24.2663022,0.312811571 C23.9318496,0.29163894 23.6017377,0.281302449 23.2764973,0.281302449 M17.6565066,1.42855926 C6.55224229,6.22762651 2.19730065,24.9379555 0.201983153,35.6208907 C-0.159075785,39.3297548 0.0635491212,42.1351284 1.17495611,44.3264333 C1.22869962,44.2444596 1.27323085,44.159207 1.28300523,44.0560607 L1.27866453,43.9192505 C0.285081046,41.5438562 0.239987713,39.0892362 0.662409808,36.5943945 C0.721587,36.244203 0.728644543,35.8951044 0.428417884,35.6257935 C0.568475775,34.7929097 0.708002789,33.9605879 0.847561031,33.1277041 C0.940402082,32.8904332 1.07015471,32.6602511 1.11955752,32.4142988 C1.58594873,30.06498 2.17831398,27.748794 2.85480765,25.4510327 C3.7951785,22.2596177 4.83329321,19.1024286 6.05818301,16.0103501 C6.67712334,14.4466982 7.36776332,12.9112453 8.03338962,11.3665801 C9.92012712,8.90434048 13.7484074,3.31526553 17.6565066,1.42855926 M2.21197784,45.5160354 C2.13921644,45.5160354 2.06645504,45.5263406 1.99478662,45.5426417 C1.9768617,45.5464515 1.95840592,45.5507922 1.94051223,45.5556638 C3.43902237,47.5466406 5.91756301,48.963177 9.69697134,50.1087787 C6.28839633,49.075036 3.94123218,47.8202921 2.41392976,46.1235774 C2.75109923,46.319596 3.10728659,46.5101497 3.48246061,46.6963939 C3.10566273,46.351636 2.75328519,45.9715592 2.42969994,45.5513231 C2.35637643,45.5258097 2.28417714,45.5160354 2.21197784,45.5160354 M37.7356243,47.7209244 C37.7356243,47.721549 37.7356243,47.721549 37.7349998,47.7218613 C36.6290265,49.7757938 35.0822065,51.1608524 33.2519293,52.0458559 C31.2598908,53.0095853 28.9311824,53.3820425 26.4700358,53.3820425 C24.6066569,53.3820425 22.6677998,53.1686611 20.7392791,52.8379871 C22.6677998,53.1686611 24.6071878,53.3820425 26.4705667,53.3820425 C31.1936248,53.3820425 35.4258714,52.012192 37.7356243,47.7207683" id="path-31"></path>
        <linearGradient x1="80.4269935%" y1="44.8581487%" x2="95.6867092%" y2="65.103463%" id="linearGradient-33">
            <stop stop-color="#B532A0" offset="0%"></stop>
            <stop stop-color="#4AA5E1" offset="100%"></stop>
        </linearGradient>
        <path d="M30.9163196,0.251479643 C27.8486926,0.251479643 24.7886541,0.537060337 21.8296384,1.03168173 C6.70866369,5.25143706 -0.121008769,25.7540387 0.123850523,38.7770492 C0.566352267,56.0963863 20.4928897,57.25882 38.0619889,57.8902515 C25.0335134,57.4211747 10.7096039,56.6583354 3.99613113,49.23305 C12.8689,55.7803895 29.3852073,55.8444695 42.3979126,56.8868937 C43.7400638,56.9944119 45.0148873,57.0465316 46.2175115,57.0465316 C69.4945397,57.0465316 67.2201681,37.5440401 62.402083,22.6239556 C59.9414673,15.0048687 56.0317442,9.56784327 51.3032524,5.80414266 C55.9942705,8.88316785 60.0620076,13.4151102 62.9982581,19.8386616 C56.2407849,5.04783005 43.4979214,0.251479643 30.9163196,0.251479643 M68.0454323,39.4948264 C68.3603362,46.2870252 66.5300903,52.376124 60.4241595,55.6669067 C62.9249346,54.3193218 64.7079636,52.503191 65.9203622,50.3601959 C66.565378,49.2205588 67.050225,47.9864567 67.3939211,46.6833718 C67.4026025,46.6508009 67.4107531,46.620416 67.4194345,46.5878139 C67.440045,46.5069332 67.4606867,46.4249283 67.4802355,46.3435167 C67.9998394,44.209734 68.1567292,41.8967958 68.0454323,39.4948264" id="path-34"></path>
        <linearGradient x1="38.8968791%" y1="37.6179395%" x2="59.3630719%" y2="64.7707313%" id="linearGradient-36">
            <stop stop-color="#B936A2" offset="0%"></stop>
            <stop stop-color="#51AEE5" offset="100%"></stop>
        </linearGradient>
        <polygon id="path-37" points="0 0.228901749 191.115785 0.228901749 191.115785 177.771125 0 177.771125"></polygon>
        <path d="M26.5390811,0.30975122 C32.5011441,8.98381592 31.5716406,24.3876232 29.1740119,35.1150896 C28.7206428,37.145164 28.2157161,39.0112597 27.6939263,40.6286864 C26.5314927,43.1767094 24.8179773,44.8066273 22.7694472,45.7871575 C20.9321437,46.6661964 18.8233434,47.0163879 16.5923789,47.0163879 C11.3638632,47.0163879 5.46478723,45.0949248 0.82913647,43.5594719 C0.648325949,43.7603621 0.468608409,43.9585354 0.285643151,44.1578017 C3.37878342,45.2925361 6.86124404,45.7779452 9.5781173,47.0788441 C11.8383737,47.596262 13.8977712,47.9312455 15.7682077,48.0941311 C15.7454112,48.0881665 15.7225835,48.0816399 15.699787,48.0756753 C16.4615333,48.1196444 17.2232796,48.1641756 17.9850259,48.2081448 C18.1028494,48.2097062 18.220142,48.2109553 18.3363104,48.2109553 C21.7823903,48.2109553 24.4954538,47.5214083 26.6227099,46.2313767 C27.7455151,45.4902722 28.7233596,44.5455606 29.5122431,43.3461842 C30.6442919,41.6234253 30.9977312,39.6150857 31.4576269,37.639317 C32.4805023,33.2490876 32.6113792,28.7725438 32.7498132,24.3095531 C32.8426543,21.3184661 32.7042202,18.3160122 32.2867009,15.3271112 C31.8425441,12.1514351 31.1481255,9.05339205 30.0014308,6.06558406 C29.1642375,3.88405359 28.0240382,1.95172311 26.5390811,0.30975122" id="path-39"></path>
        <linearGradient x1="80.4269935%" y1="44.8581487%" x2="95.6867092%" y2="65.103463%" id="linearGradient-41">
            <stop stop-color="#A22899" offset="0%"></stop>
            <stop stop-color="#3884B6" offset="100%"></stop>
        </linearGradient>
        <path d="M0.0473729813,0.166570522 C1.27332453,1.28828277 2.75828169,2.04187855 4.34529217,2.62446941 C4.52825743,2.4252031 4.70797497,2.22702977 4.88878549,2.0261396 C4.29642024,1.82959013 3.72525885,1.6400982 3.17798694,1.46094277 C2.0101196,1.05263576 0.969818923,0.62371823 0.0473729813,0.166570522" id="path-42"></path>
        <linearGradient x1="80.4269935%" y1="44.8581487%" x2="95.6867092%" y2="65.103463%" id="linearGradient-44">
            <stop stop-color="#9F2598" offset="0%"></stop>
            <stop stop-color="#357CB2" offset="100%"></stop>
        </linearGradient>
        <path d="M0.0456242094,0.295074028 C0.591834371,0.880381732 1.09513717,1.5123754 1.55662558,2.18343538 C3.04158273,3.82531359 4.181782,5.75764407 5.01897531,7.93917454 C6.16567002,10.9269825 6.8600886,14.0250256 7.30424543,17.2007017 C7.72176472,20.1896027 7.86019875,23.1920566 7.7673577,26.1831436 C7.62892367,30.6461343 7.49804683,35.1226781 6.47517142,39.5129074 C6.01527564,41.4886762 5.66183635,43.4970158 4.52978761,45.2197747 C3.74090412,46.4191511 2.76305958,47.3638627 1.64025434,48.1049672 C3.10947255,47.2134683 4.2990434,46.0352957 5.25787004,44.5992105 C5.47453039,44.196868 5.67432758,43.7695743 5.85566898,43.3151435 C6.28783423,41.7177965 6.69180053,39.8837408 7.04146123,37.8976668 C9.186611,25.7042611 9.20128819,7.55422613 0.0456242094,0.295074028" id="path-45"></path>
        <linearGradient x1="80.4269935%" y1="44.8581487%" x2="95.6867092%" y2="65.103463%" id="linearGradient-47">
            <stop stop-color="#9F2497" offset="0%"></stop>
            <stop stop-color="#347DAF" offset="100%"></stop>
        </linearGradient>
        <path d="M0.0857522786,0.4751 C0.108548769,0.48465 0.131376488,0.4951 0.154172979,0.50465 C0.924600679,0.6116 1.6624575,0.67245 2.37099117,0.6872 C1.60924487,0.6168 0.847498575,0.5455 0.0857522786,0.4751" id="path-48"></path>
        <linearGradient x1="63.7530528%" y1="44.0418789%" x2="70.6504703%" y2="67.5011402%" id="linearGradient-50">
            <stop stop-color="#9F2497" offset="0%"></stop>
            <stop stop-color="#347DB0" offset="100%"></stop>
        </linearGradient>
        <path d="M0.227964907,0.218315433 C1.75526732,1.91503013 4.10243148,3.16977396 7.51100648,4.20351674 C7.5122556,4.20351674 7.51256788,4.20351674 7.51381701,4.2041413 C7.51925069,4.2057027 7.52468437,4.20738902 7.53011806,4.20901288 C7.53230402,4.20963744 7.53445876,4.210262 7.53608262,4.21119884 C7.5415163,4.21213568 7.54748086,4.21444656 7.55238367,4.21607042 C7.55394507,4.21607042 7.55563139,4.21669498 7.55725525,4.21731954 C7.56268893,4.21888095 7.56812262,4.22056726 7.5735563,4.22219112 C7.57636683,4.22344025 7.57895876,4.22375253 7.58223771,4.22500165 C7.58929525,4.22718761 7.59635279,4.22934235 7.60284823,4.23152832 C7.60828192,4.23277744 7.61209174,4.23433884 7.61752542,4.23533814 C7.62033595,4.23627498 7.62295911,4.2375241 7.62567595,4.23814867 C7.63054753,4.23971007 7.63488823,4.24095919 7.63979104,4.24248937 C7.64260156,4.24311393 7.64628648,4.24405077 7.64900332,4.24529989 C7.654437,4.2468613 7.6587777,4.24811042 7.66421139,4.2496406 C7.66702191,4.25057744 7.66911419,4.251202 7.67179981,4.25182656 C7.67723349,4.25338796 7.6821363,4.25507428 7.68700788,4.25672937 C7.6898184,4.25735393 7.69244156,4.25829077 7.6951584,4.25891533 C7.70277805,4.2611013 7.7098356,4.26325603 7.71795489,4.26597288 C10.7969801,5.11078584 14.6524288,6.26347633 18.5534704,6.93344334 C20.4819911,7.26411736 22.4208482,7.47749876 24.2842271,7.47749876 C26.7453737,7.47749876 29.0740821,7.10504158 31.0661206,6.14131213 C32.8963978,5.25630864 34.4432177,3.87125008 35.549191,1.8173175 C34.5903644,3.25340273 33.4007936,4.43157533 31.9315753,5.32307425 C29.8043193,6.6131058 27.0912558,7.3026528 23.6451759,7.3026528 C23.5290075,7.3026528 23.4117149,7.30140368 23.2938913,7.29984227 C22.5853577,7.29062999 21.8475009,7.25262543 21.0770732,7.18582859 C19.2066367,7.02294298 17.1472392,6.68795948 14.8869828,6.1705416 C12.1701095,4.86964269 8.68764891,4.38423357 5.59450863,3.24949922 C4.00749815,2.66690835 2.52254099,1.91331258 1.29658944,0.791600331 C0.921415416,0.605356125 0.565228056,0.414802446 0.227964907,0.218783854" id="path-51"></path>
        <linearGradient x1="80.4269935%" y1="44.8581487%" x2="95.6867092%" y2="65.103463%" id="linearGradient-53">
            <stop stop-color="#9D2497" offset="0%"></stop>
            <stop stop-color="#337BAE" offset="100%"></stop>
        </linearGradient>
        <polygon id="path-54" points="0 0.228901749 191.115785 0.228901749 191.115785 177.771125 0 177.771125"></polygon>
        <path d="M47.5558841,0.183090171 C52.2843759,3.94679078 56.1940989,9.38381626 58.6547147,17.0029031 C63.4727998,31.9229876 65.7471713,51.4254791 42.4701431,51.4254791 C41.267519,51.4254791 39.9926955,51.3733594 38.6505443,51.2658412 C25.637839,50.223417 9.1215317,50.159337 0.248762801,43.6119975 C6.96223562,51.0372829 21.2861451,51.8001222 34.3146205,52.269199 C36.85721,52.3604162 39.3493036,52.4407661 41.7263218,52.5569657 C42.5770993,52.5987801 43.3974919,52.6194218 44.1901852,52.6194218 C45.5985711,52.6194218 46.9179258,52.554811 48.1520279,52.4304608 C48.3143827,52.4141597 48.4734584,52.3967969 48.6325342,52.3783411 C51.8945559,52.0009812 54.5462874,51.1936419 56.6767912,50.0458542 C62.7827219,46.7550715 64.6129679,40.6659727 64.298064,33.8737739 C64.1037005,29.6773772 63.0916612,25.2132934 61.7625321,20.9756132 C61.4134023,19.8625823 61.0420381,18.7636665 60.6581827,17.6908262 C60.435589,17.067514 60.2031897,16.4599719 59.9621403,15.8665449 C59.7330199,15.3035028 59.4962799,14.754607 59.2508897,14.2176091 C56.3146393,7.7940577 52.2469022,3.26211536 47.5558841,0.183090171" id="path-56"></path>
        <linearGradient x1="38.8968791%" y1="37.6179395%" x2="59.3630719%" y2="64.7707313%" id="linearGradient-58">
            <stop stop-color="#A22799" offset="0%"></stop>
            <stop stop-color="#3681B6" offset="100%"></stop>
        </linearGradient>
    </defs>
    <g id="Page-1" stroke="none" stroke-width="1" fill="none" fill-rule="evenodd">
        <g id="iPhone-X-Mockup-Copy-3" transform="translate(-73.000000, -222.000000)">
            <g id="p1um-icon-copy-2" transform="translate(115.500000, 264.000000)" filter="url(#filter-1)">
                <g id="g36" transform="translate(96.000000, 89.000001) scale(-1, 1) rotate(-180.000000) translate(-96.000000, -89.000001) translate(-0.000000, 0.000001)">
                    <g id="g42-Clipped">
                        <mask id="mask-3" fill="white">
                            <use xlink:href="#path-2"></use>
                        </mask>
                        <g id="path44"></g>
                        <g id="g42" mask="url(#mask-3)">
                            <path d="M0,108.91242 C25.5237316,130.76423 57.7837638,140.456299 96.7789723,137.988064 C82.7846127,118.525201 57.6268428,109.230572 21.3083233,110.103084 C13.3846191,111.036397 6.28076107,110.63952 0,108.91242" id="path48" fill="#4EA03C"></path>
                            <path d="M96.7789723,137.988064 C64.7627377,138.039121 32.5037985,128.347053 0,108.91242 C3.4465983,112.574567 5.67374986,116.630875 6.68307853,121.080843 C20.1214505,154.317627 50.1537784,159.953919 96.7789723,137.988064" id="path50" fill="#6AB536"></path>
                            <path d="M82.6532362,137.379991 C81.8920208,137.310477 80.9760703,137.2236 80.9760703,137.2236 C79.6236138,132.032527 77.3562998,126.542851 73.1034115,120.650302 C77.2650826,124.623543 80.4478162,130.200095 82.6532362,137.379991 Z M50.237938,131.249077 C51.112605,131.49937 51.5502352,131.624251 51.5502352,131.624251 C51.0599545,125.034005 48.8843886,118.879764 45.0262231,113.162029 C47.8647297,119.134398 49.6021345,125.163226 50.237938,131.249077 Z M36.1947377,126.565117 C37.1139359,126.906627 37.5732696,127.078194 37.5732696,127.078194 C36.9781875,122.04729 35.0572553,117.079372 31.8153445,112.17388 C34.2281812,116.998991 35.6881559,121.795373 36.1947377,126.565117 Z M20.9087195,120.085074 C22.001118,120.594372 22.546232,120.849537 22.546232,120.849537 C21.7437643,117.25528 20.498798,114.199051 18.8102463,111.681975 C20.5178003,114.632309 21.2176526,117.433904 20.9087195,120.085074 L20.9087195,120.085074 Z M64.0015223,134.654405 C65.1449692,134.88137 65.7155998,134.994822 65.7155998,134.994822 C64.8555787,128.764572 62.5030121,122.419185 58.6611477,115.957098 C61.90793,124.323285 63.6898661,130.555752 64.0015223,134.654405" id="path52" fill="#6AB536"></path>
                            <path d="M96.9027604,136.718674 C91.5683503,40.5293499 92.1389809,-4.59027013 98.6092182,1.36038839 C109.127113,-1.86631434 123.022636,2.37895433 133.004626,6.93041421 C148.77224,15.2309287 160.076302,26.3976492 166.911408,40.4299821 C175.480671,57.2443614 176.311369,75.7494907 169.399161,95.9436839 C160.507405,116.692238 145.587883,130.924399 124.644403,138.643416 C113.306147,141.841326 104.058735,141.20012 96.9027604,136.718674" id="path54" fill="#342A75"></path>
                            <path d="M95.9423099,131.668221 C98.6515635,131.786044 100.006768,131.845221 100.006768,131.845221 C97.7166263,151.036619 101.930948,164.233382 111.052917,173.910774 C110.091373,177.599527 103.965894,178.836908 101.687182,176.472943 C94.1728338,167.750006 93.1418078,152.638837 95.9423099,131.668221" id="path56" fill="#6AB536"></path>
                            <path d="M65.1118363,137.052596 C126.917182,150.329147 149.530739,86.1191459 142.660876,45.1937617 C137.210266,8.58044294 100.228269,-8.35991969 66.0386541,5.47805916 C5.46200169,29.996247 5.79699768,117.973057 65.1118363,137.052596" id="path58" fill="#4D389B"></path>
                        </g>
                    </g>
                    <g id="g62-Clipped">
                        <mask id="mask-5" fill="white">
                            <use xlink:href="#path-4"></use>
                        </mask>
                        <g id="path64"></g>
                        <g id="g62" mask="url(#mask-5)">
                            <g transform="translate(29.354385, 1.249123)">
                                <path d="M67.5483752,135.469551 C91.3211177,128.057288 106.423605,108.571628 112.855307,77.0141963 C116.185718,53.8658278 113.922714,36.0779447 106.059299,23.6543257 C97.5301948,10.4434471 85.3167094,2.58056274 69.4182807,0.0629245598 C85.1983551,-0.276399642 99.1362231,7.69943665 111.231354,23.993119 C129.459022,58.2935308 113.238632,130.285004 67.5483752,135.469551" id="path68" fill="#5C47A7" fill-rule="evenodd"></path>
                                <path d="M76.5123612,10.3810222 C116.439821,31.2788775 77.5602503,130.418005 42.7397038,129.90549 C-4.21180154,128.045359 -16.6831901,47.6469764 27.7680618,16.0384866 C45.9126631,5.8881774 62.028283,2.35253538 76.5123612,10.3810222" id="path70" fill="#5C47A7" fill-rule="evenodd"></path>
                                <path d="M14.4138463,101.580163 C12.6894635,87.7666139 25.7966337,86.4461975 28.9076989,98.576054 C30.6972234,105.082141 32.6713683,109.555999 36.0658594,117.576336 C38.0057783,122.897161 35.2948696,124.19372 28.0243193,121.288447 C20.7374991,117.564937 16.0822996,110.702694 14.4138463,101.580163" id="path72" fill="#FFFFFF" fill-rule="evenodd"></path>
                                <path d="M147.994005,119.173121 L128.458381,110.920947 L132.551101,101.532384 L154.39857,108.501053 C153.945201,110.531127 153.440274,112.397223 152.918485,114.014649 C151.756051,116.562673 150.042536,118.19259 147.994005,119.173121" id="path74" fill="#595657" fill-rule="nonzero"></path>
                            </g>
                        </g>
                    </g>
                    <g id="g78-Clipped" transform="translate(38.098245, 71.199998)">
                        <mask id="mask-7" fill="white">
                            <use xlink:href="#path-6"></use>
                        </mask>
                        <g id="path80"></g>
                        <g id="g78" mask="url(#mask-7)">
                            <g transform="translate(-38.098245, -71.199998)" id="g90" fill="url(#linearGradient-8)" fill-rule="nonzero">
                                <polygon id="path98" points="0 0.228901749 191.115785 0.228901749 191.115785 177.771125 0 177.771125"></polygon>
                            </g>
                        </g>
                    </g>
                    <g id="g102-Clipped">
                        <mask id="mask-10" fill="white">
                            <use xlink:href="#path-9"></use>
                        </mask>
                        <g id="path104"></g>
                        <g id="g102" mask="url(#mask-10)" fill-rule="nonzero">
                            <g transform="translate(11.554386, 58.396490)">
                                <path d="M38.0026868,35.3156988 C37.8360226,35.5198679 37.6736678,35.9085949 37.3680075,35.6083682 C36.8511205,35.1006935 36.8836914,35.6068068 36.7924742,35.8738381 C36.4873447,36.7702398 36.4124286,36.6567882 35.4828938,36.5183229 C33.8947904,36.2816142 32.5428648,35.405823 31.0025403,35.0860475 C30.6490698,35.0127553 30.271741,35.1517514 29.7907038,34.8189226 C30.0665101,35.3287521 30.3672989,35.4063851 30.6930701,35.4308054 C31.2224171,35.469903 31.6703525,35.7229128 32.1112304,35.9818872 C32.3148374,36.1018966 32.5021434,36.297884 32.351749,36.5579514 C32.2018855,36.8185808 31.9678936,36.7349521 31.7382111,36.6345226 C30.1066694,35.9199931 28.4713491,35.2114595 26.8365285,34.5007398 C25.7240597,34.4399388 24.624051,34.4692619 23.6858348,35.1816054 C23.2960149,35.4780535 22.9126903,35.4400489 22.5049454,35.2847517 C21.1627942,34.7743914 19.835289,34.2173451 18.4893405,33.7270644 C16.7443253,33.09073 15.0503431,32.3474395 13.3400754,31.6345652 C12.1798058,31.151342 11.5233887,31.2371255 10.645449,32.7731094 C10.5292618,32.9750925 10.4000401,33.1070311 10.1410563,33.09073 C10.5873554,33.1667392 10.9136638,33.4593774 11.2388854,33.7254406 C12.2107529,34.5191956 13.2385436,35.2462163 14.2750219,35.9384489 C15.8495537,36.9895857 17.4148575,38.0695148 19.0415152,39.0310583 C20.6947791,40.0089029 22.3442458,41.006827 24.0534205,41.8923614 C24.1359562,41.9352688 24.2163061,41.9824856 24.2966559,42.0292028 C24.608312,42.2094512 24.9546938,42.4021909 24.7223257,42.8332944 C24.5187187,43.2111852 24.1766776,43.2068445 23.8270169,43.0075782 C22.1753644,42.0292028 20.5128756,41.0676281 18.8753725,40.0653632 C17.5940286,39.2808204 16.3637207,38.4115559 15.0747759,37.6400352 C12.195551,35.9151216 9.52698759,33.8997244 6.92303502,31.7952648 C5.02165156,30.2587501 3.12569554,28.7080891 1.7010148,26.6867274 C1.32801112,26.1584422 0.949583134,25.6176657 0.788870998,24.9699331 C0.658022264,24.5393917 0.898543978,24.0518278 0.548346162,23.641897 C0.443560375,23.5192019 0.519572619,23.2770282 0.678111281,23.139125 C0.843164119,22.9957882 1.01853471,23.04847 1.20367969,23.108178 C1.5522474,23.2211299 1.73847599,23.5479629 2.04686879,23.7184682 C2.41715562,23.9231369 2.61858604,23.8769819 2.63379099,23.4209271 C2.63759144,23.3041966 2.65550699,23.1831254 2.62510334,23.0723594 C2.44755927,22.4235338 2.58818239,21.9745366 3.32821269,21.8415051 C3.67026622,21.7801419 3.63823247,21.5532075 3.48783809,21.3170296 C3.40042448,21.1790953 3.28043374,21.0618339 3.21147904,20.9136254 C3.01873628,20.4960749 3.15935939,20.0307767 3.55841977,19.838037 C3.97648555,19.6360539 4.3684915,19.6116335 4.62041771,20.1127816 C4.9472663,20.7621381 5.41474113,21.2518567 6.13413904,21.4739195 C6.43221721,21.5656988 6.63527773,21.7980668 6.82856386,22.0380545 C7.49366865,22.8611328 8.30916783,23.5561134 8.87817136,24.4628204 C9.03019584,24.7049941 9.29515352,24.8385566 9.56390853,24.923778 C10.103592,25.0948141 10.5830116,25.3798639 11.066775,25.6611039 C14.130055,27.4446639 17.3296174,28.9426431 20.619863,30.2560333 C22.26171,30.9118852 23.8384152,31.7187248 25.4704878,32.4017452 C25.9949944,32.620529 26.5878593,32.6324894 27.0564365,32.9115434 C28.2058481,33.5951258 29.5805701,33.4534128 30.7603978,34.0083044 C31.1583683,34.1950795 31.5530911,34.0636718 31.7528883,33.6238869 C31.9076234,33.2823767 32.1562925,33.2031171 32.4918381,33.2818458 C32.5591659,33.278036 32.6232146,33.2905272 32.6851087,33.3160406 C33.1194599,34.1581679 33.9827599,34.1022384 34.7243953,34.2265574 C35.0192195,34.2759602 35.2841896,34.3742349 35.5632437,34.4464655 C36.1485514,34.6310546 36.7349208,34.8156437 37.3207594,35.000264 C37.4689991,35.1191493 37.6340394,35.1229591 37.8164738,35.1001626 C37.9462264,35.0838616 38.0917492,35.1142777 38.0026868,35.3156988" id="path108" fill="#231F20"></path>
                                <path d="M93.7889471,61.6093272 C93.1520819,61.5718535 92.5146858,61.533849 91.8772584,61.4964065 C92.4191279,61.0131834 93.2731531,61.5398448 93.6537608,60.7471515 C93.8861601,60.3350346 94.2884713,60.3306939 94.6842871,60.3268841 C95.2185369,60.3214816 95.7522559,60.4018315 96.2865057,60.3562073 C101.619292,60.2574017 106.897772,59.6357445 112.14312,58.6991522 C112.411338,58.685568 112.682273,58.7181701 112.949398,58.6671122 C113.065066,58.6486564 113.17527,58.606842 113.289815,58.5829526 C113.751334,58.6660505 114.198177,58.6519354 114.659665,58.5243375 C115.450204,58.3055224 116.275468,58.4472354 117.082276,58.3625449 C117.275578,58.3419031 117.428689,58.4803371 117.586672,58.5748333 C117.773447,58.6861301 117.93524,58.8305599 117.897235,59.0721715 C117.845116,59.3973806 117.583424,59.2589466 117.396118,59.2708757 C117.303808,59.2768403 117.21206,59.2693143 117.131679,59.3262431 C109.833461,60.2812911 102.58299,61.6842434 95.1805324,61.6554823 C94.7162959,61.6539209 94.2526215,61.6256283 93.7889471,61.6093272" id="path110" fill="#5F5C5D"></path>
                                <path d="M131.884537,60.2307953 C131.16676,60.0250336 130.468532,59.7491961 129.721431,59.6569171 C128.641534,59.2230968 127.472573,59.4131196 126.363352,59.1823754 C126.231414,59.1720701 126.099475,59.1612027 125.967536,59.1508975 C125.741133,58.9885427 125.470198,59.0954989 125.228587,59.0281712 C125.085812,58.9880119 124.959838,58.9136266 124.98048,58.7447764 C124.999466,58.5873245 125.134653,58.5558154 125.271494,58.5498508 C125.178653,58.5444171 125.055396,58.516187 124.999466,58.5721164 C124.420685,59.1503354 123.72736,58.9304585 123.04868,58.8886441 C122.654488,58.8647547 122.245682,58.9320824 121.85964,58.9646533 C121.055549,59.0314501 120.415404,58.5487578 119.651472,58.5123771 C119.226895,58.4917666 118.807752,58.2034378 118.384268,58.045455 C117.863041,57.8510915 117.366233,57.7701796 116.831453,57.7946 C116.572447,57.8065603 116.321092,57.7734273 116.076202,57.6903607 C115.556629,57.5150151 115.069596,57.5041477 114.520669,57.6974182 C114.008154,57.8776979 113.419036,57.7419494 112.867955,57.7050379 C112.529161,57.6822101 112.232713,57.7245866 111.923774,57.8434719 C111.056695,58.1779245 109.831275,57.7060996 109.344273,56.8629105 C109.895886,56.3362803 110.62019,56.1560007 111.311891,56.1907575 C112.352161,56.2423463 113.382125,56.2461561 114.422956,56.2358196 C115.803643,56.2233284 117.199007,56.1880407 118.578101,56.4557277 C119.404989,56.6164274 120.23678,56.7310031 121.100611,56.7288172 C122.756573,56.7239456 124.356074,57.1360312 125.890434,57.7696487 C126.468685,58.0079814 127.062642,58.0546985 127.670747,57.9189501 C128.100226,57.8228614 128.509064,57.8548701 128.867937,58.125274 C129.409244,58.5330189 130.075433,58.4146645 130.678103,58.5498508 C131.658134,58.7697277 132.544199,59.2616322 133.532911,59.4451596 C133.853249,59.5048989 134.049236,59.7459483 134.052484,60.0994188 C133.977037,60.4208181 133.758222,60.5842659 133.448189,60.5104115 C132.930771,60.3871543 132.371008,60.5094746 131.884537,60.2307953" id="path112" fill="#636060"></path>
                                <path d="M109.428964,56.9090656 L109.56415,56.936234 C110.778172,58.154035 112.180063,57.3705852 113.527648,57.3613417 C114.484288,57.3553772 115.462133,56.8656274 116.417181,57.4156473 C116.718501,57.5888382 117.050236,57.3705852 117.371667,57.3613417 C118.092692,57.3407 118.674721,57.9547687 119.416387,57.7565954 L119.484246,57.7658389 C119.816013,57.781047 119.398462,58.2615533 119.787221,58.2484999 C120.097253,58.2381947 120.053815,57.8928747 120.253081,57.7842947 L120.386081,57.7761442 C120.280749,58.3582042 120.957805,58.2430975 121.104951,58.5889484 C121.146766,58.6872231 121.096801,58.8365245 121.269992,58.8153519 C121.410081,58.7985199 121.429067,58.6676743 121.447555,58.5514747 C121.471975,58.4016112 121.537679,58.2789161 121.703281,58.2675178 C121.922627,58.2528719 121.944331,58.4135715 121.986676,58.5840456 C122.086574,58.9847329 122.292367,59.0759501 122.520395,58.6801656 C122.700643,58.3668856 122.834768,58.4852399 123.067667,58.6193333 C123.500956,58.8680024 123.98037,59.2681589 124.348486,58.4928284 C124.439141,58.3011817 126.097289,58.3885891 126.228697,58.5661519 L126.254741,58.7447764 C126.185789,58.7958031 126.088608,58.8462989 126.008789,58.8376175 C125.761775,58.8104491 125.517977,58.7561747 125.144989,58.6899399 C125.397999,59.0732333 125.779668,58.9380469 125.967536,59.1508975 C123.01664,58.920122 120.073363,59.0808529 117.131679,59.3262431 C117.302184,59.2600083 117.472658,59.1937736 117.681699,59.1128929 C117.42488,58.7290063 117.075219,58.7616084 116.696797,58.7420596 C115.528368,58.6812273 114.386045,58.985295 113.222518,58.9494452 C113.148664,58.749648 113.189385,58.468408 112.864707,58.4477663 C112.415679,58.1643715 111.972646,58.0329638 111.469343,58.3592659 C111.204373,58.531395 110.894372,58.4488592 110.594676,58.3586413 C109.89751,58.1501628 109.219392,58.1376715 108.489686,58.3429024 C107.713793,58.5611554 106.879848,58.5970052 106.312414,57.7918207 C106.310279,57.6131649 106.379262,57.4448768 106.5557,57.4242351 C107.423341,57.3243365 108.195392,56.8584761 109.068998,56.784653 C109.218299,56.7721617 109.338277,56.7814052 109.428964,56.9089719" id="path114" fill="#6C696A"></path>
                                <path d="M2.91612084,17.3969701 C2.76192288,16.7318747 2.60772804,16.066748 2.4535332,15.4022147 C2.7320626,14.7142916 2.9715007,14.0079126 3.29835241,13.3444411 C3.74465149,12.4388271 4.40323898,12.1814765 5.33492843,12.4589067 C5.75082386,12.97036 5.32950099,13.4736628 5.27846183,13.9645056 C5.19647878,14.7495793 4.89405991,15.4917768 4.46187592,16.1704564 C4.15783007,16.6471841 4.09538955,17.1548276 4.36469105,17.6765862 C4.42930192,17.9100473 4.46676312,18.1407915 4.31908245,18.3590757 C3.80491541,18.7304399 3.14578455,18.4573504 2.97855824,17.8014673 C2.94489438,17.6695287 3.00950526,17.5213203 2.91612084,17.3969701" id="path116" fill="#4F4C4C"></path>
                                <path d="M131.884537,60.2307953 C132.353083,60.205282 132.822191,60.1526003 133.289676,60.1661845 C133.489473,60.172149 133.687646,60.2574017 133.892315,60.1802995 C134.16325,59.8404132 134.485773,60.0320911 134.786562,60.1064764 C135.055842,60.1738041 135.30832,60.299216 135.566764,60.4012694 C135.820867,60.6532174 136.173244,60.7438725 136.461542,60.940422 L136.502794,61.0365108 C136.646662,61.2716269 136.88284,61.3926981 137.128823,61.4480655 C138.643072,61.7895756 140.004241,62.5594725 141.487013,62.98839 C141.660734,63.0383549 141.851319,63.1094925 141.977824,63.2300016 C142.740663,63.9548363 143.680503,64.1394566 144.680051,64.1541026 C144.801685,64.1562886 144.939588,64.1486689 144.992238,64.257811 C145.238191,64.7752289 145.834335,64.8012731 146.202451,65.1433454 C144.601856,64.8072689 143.086514,64.195917 141.54619,63.6730654 C138.459014,62.6257072 135.387577,61.5300704 132.311269,60.4507034 C132.161437,60.3980216 132.025688,60.3051806 131.884537,60.2307953" id="path118" fill="#6C696A"></path>
                                <path d="M4.13936804,18.3026153 C4.141554,18.1060659 4.10082011,17.9220076 3.98625994,17.7585599 C3.71641819,17.0288536 3.99657457,16.3154171 4.46133568,15.89846 C5.17367605,15.2594087 5.11720945,14.4227463 5.33818552,13.6647786 C5.43157306,13.3439102 5.47066435,12.9877228 5.57653688,12.6565492 C6.21721195,13.7576197 6.09070392,14.9026905 5.83226354,16.0814252 C5.61508793,17.0674203 5.53147477,18.0805525 5.14326927,19.0306978 C5.09060626,19.1588265 5.24371436,19.3716458 5.30126769,19.5453988 C4.92772065,19.46177 4.8582257,19.0062462 4.50585441,18.8954802 C4.10896439,18.8678122 4.14534197,18.5724571 4.13936804,18.3026153" id="path120" fill="#B3B1B2"></path>
                                <path d="M0.788870998,24.9699331 C0.774212542,24.6067194 1.0625132,24.2581517 0.835563207,23.8840394 C0.435959463,21.8724521 2.96118294,25.7903257 3.04805319,24.2727976 C3.17944529,23.4659892 2.38349176,21.9712577 3.77885559,22.2720465 C5.48315246,22.1200282 2.62944716,20.7230405 3.72618945,20.1111577 C4.56232101,19.7587802 4.53463108,21.4250788 5.31646952,21.4815391 C7.65058034,22.7693847 8.48073796,25.4031913 11.2519168,26.175805 C15.7561693,28.0734098 31.2332845,37.3631359 34.6429837,34.3623058 C25.5997095,29.461154 11.8084323,26.3468411 4.50368406,18.7168557 C3.39716739,19.400969 2.5425738,18.3460223 3.22234017,17.3247708 C3.17673157,15.7773887 2.88571407,15.1893642 2.4535332,15.4022147 L2.33625619,15.4206705 C1.23082625,16.2790677 0.87357089,17.3948154 1.19064822,18.7440241 C1.34538642,19.4053097 1.23245636,20.028622 0.92840738,20.6285756 C0.772582437,20.9369528 0.161770768,22.1797675 0.131910488,22.5364545 L0.788870998,24.9699331" id="path122" fill="#656263"></path>
                                <path d="M6.25575676,20.3771897 C14.7131767,25.6306878 26.3088053,30.3657063 34.7243953,34.2265574 C29.131573,33.2943371 19.1006955,27.8002891 12.9811899,24.9900127 L12.9828138,24.9906373 C11.0059614,24.2305148 9.22347886,23.021364 7.38507617,21.9772847 C6.75960604,21.6129781 6.28779051,21.1536444 6.25575676,20.3771897" id="path124" fill="#817E7F"></path>
                                <path d="M60.3681364,57.2326821 C61.3975385,57.1018052 62.3878742,57.3781737 63.3722454,57.5828736 C67.2966145,58.3989256 71.1982182,59.3262431 75.1665876,59.9213252 C75.3218536,59.9446525 75.4673764,60.033715 75.6177707,60.0917992 C74.2131634,60.0679097 72.8666715,59.6710322 71.4973519,59.4305136 C67.929139,58.8039536 64.3348819,58.3055224 60.8220364,57.390134 C60.6678322,57.3499435 60.5190616,57.2858635 60.3681364,57.2326821" id="path126" fill="#211D1D"></path>
                                <path d="M5.57653688,12.6565492 C5.72367417,13.5757474 5.46088997,14.4526003 5.30506815,15.3408515 C5.27411801,15.5172901 5.17041584,15.6530386 5.02436528,15.7198354 C4.13502421,16.1270182 4.02318088,16.9218975 3.98625994,17.758029 C3.64311966,17.3524389 3.75333601,16.9099683 3.97322846,16.5277368 C4.64267708,15.3620242 4.91957637,14.0622182 5.31375267,12.8020407 C5.34741653,12.6961776 5.32950099,12.5740134 5.33492843,12.4589067 C5.4152845,12.5246106 5.49564056,12.5908453 5.57653688,12.6565492" id="path128" fill="#848282"></path>
                                <path d="M131.693422,33.0364244 L131.66897,33.1059381 M131.929037,31.9543406 C134.727916,21.4467823 146.927848,9.09211486 154.848286,9.57805485 C140.736134,14.0073818 130.538576,30.0426519 131.208013,43.9099445 C130.239411,46.8217434 130.470718,40.0756685 130.650404,38.7340794" id="path130" fill="#595657"></path>
                                <path d="M126.363352,59.1823754 C126.845482,59.2062648 127.328706,59.2535129 127.810274,59.2410217 C127.973159,59.236681 128.477555,59.5705715 128.260395,58.9217771 C128.218581,58.796334 128.458568,58.7860287 128.594848,58.8110112 C128.907566,58.8674715 129.219753,58.9282726 129.573754,58.9956003 C129.45159,59.2100747 129.123664,59.0564013 129.091093,59.3501326 C129.221939,59.5754743 129.556922,59.4571199 129.721431,59.6569171 C128.602436,59.4989031 127.482879,59.3403582 126.363352,59.1823754" id="path132" fill="#6C696A"></path>
                                <path d="M38.0026868,35.3156988 C37.8001727,35.1560921 37.4554149,35.3064865 37.3207594,35.000264 C38.6221892,35.0621581 39.9019155,35.393363 41.2142127,35.3309068 C40.5898074,35.5811998 39.955659,35.4981331 39.3144531,35.4112567 C38.8811636,35.3520795 38.4403169,35.3455528 38.0026868,35.3156988" id="path134" fill="#817E7F"></path>
                                <path d="M58.0551982,56.6533389 C58.8581968,56.7212288 59.7193108,56.5545333 60.3692294,57.2337438 C59.5759739,57.1267877 58.7892452,56.9954112 58.0551982,56.6533389" id="path136" fill="#211D1D"></path>
                                <path d="M94.0099482,59.3561283 C94.513251,58.6763557 95.2706566,59.0488129 95.8010966,59.1177645 C96.7317242,59.2383048 97.5895593,58.999941 98.4745628,58.9386091 C99.9752589,58.8349006 101.465619,58.5807978 102.966315,58.4656912 C103.598308,58.4173813 104.222682,58.3918368 104.790065,58.1084421 C105.318881,57.844034 105.885733,57.9455564 106.429757,57.8510915 C106.676803,57.7457593 106.878224,57.8592108 107.085078,57.9765035 C107.303331,58.0997607 107.521616,58.1165926 107.736059,57.9471803 C107.923396,57.7989719 108.121569,57.6143515 108.212224,58.0449242 C108.235021,58.1529421 108.377296,58.1073491 108.447871,58.0557603 C108.924037,57.7055687 109.433304,57.7104715 109.999594,57.7891975 C110.233617,57.8217684 110.418737,57.8011266 110.595207,57.9900877 C110.806402,58.2170221 111.125647,58.2865357 111.365635,58.1296147 C111.954721,57.7451972 112.466736,57.9335961 112.988495,58.2387568 C113.213275,58.4857708 113.17146,58.718701 112.951021,58.9423876 C112.729521,59.0737954 112.487347,59.0542466 112.245735,59.0390385 C111.971553,58.5064126 111.482365,58.750741 111.127302,58.8147898 C110.637021,58.9022284 110.108174,58.9043831 109.66027,59.1801894 C109.557092,59.2442694 109.426778,59.2540438 109.332313,59.2377427 C107.375,58.907662 105.44701,59.2714066 103.539131,59.5863104 C102.561287,59.7475722 101.605708,59.7106606 100.63873,59.7448553 C100.474221,59.7508511 100.299375,59.7329262 100.161472,59.8192406 C99.1516186,60.4479866 97.9940565,60.1824855 96.9108797,60.3627339 C96.6801355,60.4012694 96.4092007,60.282915 96.3282888,60.628235 C95.4449404,60.8486739 94.5387643,60.5581904 93.6537608,60.7471515 C92.4750261,60.6667704 91.2963226,60.5864206 90.1170258,60.5049778 C89.9394942,60.4924866 89.6962588,60.5657788 89.6321788,60.3415613 C89.5610725,60.0939852 89.7988742,59.9511792 89.9720651,59.8751701 C90.4145669,59.6808066 90.8809581,59.4750136 91.3495353,59.8121831 C91.5194472,59.9349094 91.7067844,59.9886529 91.8712938,59.892002 C92.5358584,59.5043368 93.2948878,59.5238855 94.0099482,59.3561283" id="path138" fill="#797677"></path>
                                <path d="M46.4128743,45.7684518 C46.5339455,45.7836287 46.5697953,45.8661645 46.543189,45.9655322 C46.5019055,46.1197364 46.4666178,46.3043255 46.2711613,46.326029 C46.1245767,46.3423301 46.0784217,46.2147322 46.0979704,46.091475 C46.1251076,45.9166603 46.231002,45.8004606 46.4128743,45.7684518" id="path140" fill="#787677"></path>
                                <path d="M30.9596329,38.7932566 C30.8266326,38.4164587 30.6930701,38.0396608 30.5595077,37.6633938 C30.9368364,37.8409254 31.0546599,38.2025464 31.1692357,38.5554548 C31.2159217,38.7004155 31.1757312,38.8431903 30.9596329,38.7932566" id="path142" fill="#817E7F"></path>
                                <path d="M162.108499,11.8508025 C162.016751,11.8443071 161.926627,11.8372495 161.835941,11.830192 C161.767551,11.7161783 161.484656,11.7747934 161.580776,11.547859 C161.623122,11.4463366 161.760494,11.4571727 161.852242,11.550045 C163.27365,11.5799302 164.578359,12.0441355 165.850465,12.6277881 C166.506348,13.0382498 167.275152,13.2397021 167.887035,13.7305137 L167.886411,13.7295768 C169.072203,14.5505003 170.165685,15.4735084 171.148963,16.5344196 C171.465491,16.8759298 171.71797,17.2549136 171.99921,17.6170655 C172.219649,18.2419704 172.638792,18.7567027 173.008001,19.2833329 C174.471755,21.3731153 175.174886,23.7832664 175.861154,26.1727446 C176.701626,29.0997516 177.149562,32.1179757 177.246743,35.1693016 C177.331996,37.8155994 177.525829,40.4705786 177.197871,43.109288 C176.966596,44.9731978 176.858547,46.8474441 176.565878,48.7113851 C176.379134,49.8977082 176.043026,51.1024871 176.186925,52.3631955 C176.260217,53.0006229 176.030004,53.7026299 175.819902,54.3362474 C175.193872,56.2267947 174.938677,58.2356652 173.981474,60.0208803 C173.471676,60.9710255 172.743562,61.6285325 171.85478,62.2670216 C170.732506,63.0732991 169.480479,63.4989689 168.278416,64.0788117 C167.694764,64.3606138 167.096965,64.4936142 166.451949,64.3562731 C166.280944,64.3198924 166.124554,64.2840426 166.164183,64.0538293 C168.782281,63.2681935 171.012684,61.9027149 172.536707,59.5848739 C173.668756,57.862115 174.022195,55.8537754 174.482091,53.8780067 C175.504966,49.4877774 175.635843,45.0112336 175.774277,40.5482428 C175.867118,37.5571559 175.728684,34.5547019 175.311165,31.565801 C174.867008,28.3901249 174.17259,25.2920818 173.025895,22.3042738 C171.515987,18.3695683 169.022238,15.2481979 165.294418,13.1736235 C164.62061,12.7984495 163.947895,12.4362976 163.215472,12.193593 C162.856037,12.0464464 162.401075,12.2115179 162.108406,11.8509899" id="path144" fill="#4B4849"></path>
                                <path d="M167.2339,64.9625349 C167.126382,65.5804134 166.31848,65.5842233 166.174613,66.1700619 L166.176174,66.1685005 C165.340043,66.5072938 164.399672,66.2027264 163.573315,66.5882057 C163.346349,66.6940689 163.135153,66.6826706 162.90113,66.6164359 C162.430398,66.4823425 161.94068,66.3884085 161.459081,66.4931787 C160.281439,66.7489053 159.091306,66.5632232 157.945704,66.4247892 C157.043338,66.316178 156.12033,66.3954661 155.235326,66.162005 C155.004582,66.1011727 154.841696,66.1635664 154.685868,66.3129303 C152.828485,66.0148583 150.980845,65.6798748 149.185325,65.0940363 C147.751957,64.6260212 146.300132,64.2155594 144.857521,63.7763054 C144.725051,63.7361149 144.57194,63.704637 144.476382,63.6166675 C144.327081,63.4803882 143.966553,63.3875472 144.195673,63.1003426 C144.354218,62.9005454 144.605073,62.9298686 144.795627,63.1584268 C145.197407,63.6411191 145.836458,63.7469823 146.326208,63.6661016 C146.945148,63.5634861 147.542916,63.6563272 148.137436,63.7491682 C148.653792,63.8295181 149.167962,63.9098679 149.691345,63.8626198 C149.911253,63.8431023 150.091501,63.9690451 150.277714,64.0640721 C150.588839,64.222617 150.953708,64.5619412 151.205625,64.4935205 C151.982017,64.283418 152.656356,64.5711847 153.383346,64.65803 C154.147809,64.7503401 154.949215,64.6678043 155.728324,64.7905307 C156.028582,64.8377475 156.226755,64.7449065 156.335897,64.4620426 C158.089041,64.6585921 159.840561,64.8703496 161.59536,65.0462573 C163.476133,65.2340942 165.355251,65.0630893 167.2339,64.9626286" id="path146" fill="#7F7C7D"></path>
                                <path d="M170.501855,64.178523 C170.213557,64.4814977 169.686896,64.5661882 169.658666,65.1085885 C169.654325,65.1900314 169.572352,65.2307528 169.503931,65.1932791 C168.918092,64.8686008 168.521746,65.1699517 168.033089,65.4951608 C167.676371,65.7329626 167.662818,65.1742924 167.512954,64.9549464 C168.460945,64.5102587 169.501745,64.4228514 170.501855,64.178523" id="path148" fill="#7F7C7D"></path>
                                <path d="M171.999303,17.6168782 C171.139813,16.8089768 170.398709,15.8881235 169.528913,15.0851249 C169.17816,14.7620705 168.762826,14.5752954 168.414259,14.2761305 C168.219333,14.1099972 168.009761,13.9634126 167.886504,13.7293895 C169.019084,14.2207632 169.875295,15.0688238 170.704931,15.9418982 C171.191933,16.4538824 171.852688,16.8393617 171.999303,17.6168782" id="path150" fill="#5D5A5B"></path>
                                <path d="M161.852242,11.5500137 C161.650821,11.6320187 161.782197,11.7335411 161.835941,11.830192 C161.373922,11.7568997 160.911871,11.6830453 160.450351,11.609753 C160.316789,11.5342748 160.183789,11.4587966 159.866168,11.2791102 C160.169674,11.3377253 160.450351,11.3257962 160.712605,11.3138359 C161.134465,11.2948492 161.508546,11.2758313 161.852242,11.5500137" id="path152" fill="#5D5A5B"></path>
                                <path d="M158.724345,64.3142714 C159.795561,64.3761654 160.866809,64.4385903 161.938025,64.5010465 C160.853756,64.6666489 159.782539,64.6014759 158.724345,64.3142714" id="path154" fill="#636060"></path>
                                <path d="M167.887035,13.7304825 C167.200236,13.3775741 166.433056,13.1734362 165.850465,12.6277569 C166.593225,12.877519 167.335422,13.1283741 167.887035,13.7304825" id="path156" fill="#5D5A5B"></path>
                                <path d="M164.186884,64.3680149 C164.368787,64.3718247 164.551222,64.3761654 164.733094,64.3805061 C164.907909,64.4836524 164.95678,64.6128742 164.777625,64.7480917 C164.628854,64.8599194 164.451854,64.928871 164.268889,64.8365921 C164.045733,64.7236401 164.114153,64.5417679 164.186884,64.3680149" id="path158" fill="#4B4849"></path>
                                <path d="M104.741755,8.44275839 C104.689604,8.57198014 104.637485,8.70173276 104.584834,8.83042364 C104.208567,8.88416715 104.09293,8.53397558 103.857283,8.36674926 C102.151356,7.1549128 100.479655,5.89473529 98.6455677,4.86801883 C96.4347141,3.63010693 94.151099,2.56922695 91.7301117,1.81722381 C90.5937535,1.46487751 89.4617048,1.07936699 88.2677932,0.961012608 C88.0674339,0.940932959 87.9219111,0.895870855 87.8426543,0.705848053 C87.9941417,0.459333673 88.2151115,0.470201041 88.4355504,0.480506304 C88.519148,0.484847005 88.6022146,0.48865683 88.6815027,0.4789449 C91.3088139,1.11365541 93.8774475,1.92424241 96.3473067,3.02915396 C99.4214603,4.40496901 102.188829,6.25801142 104.741755,8.44282084" id="path160" fill="#A19FA0"></path>
                                <path d="M106.737042,10.3821464 C105.987786,10.2431503 105.617515,9.60194432 105.11365,9.14207977 C105.021902,9.05901311 105.152748,8.94228258 105.270009,8.89828223 C105.758666,9.39290362 106.247854,9.88752502 106.737042,10.3821464" id="path162" fill="#A19FA0"></path>
                                <path d="M47.9390837,21.326804 C47.9255307,20.6025002 48.1785405,19.9715995 48.6058342,19.399876 C48.591157,20.1138434 48.4282714,20.776784 47.9390837,21.326804" id="path164" fill="#787677"></path>
                                <path d="M4.13936804,18.3026153 C4.26207561,18.5002266 4.38369333,18.697869 4.50585441,18.8954802 C4.18714698,19.1463353 3.88310113,19.6040451 3.45580433,19.4199869 C2.94218066,19.1989858 2.62944716,18.6962451 2.43887162,18.1532827 C2.28087633,17.7026617 2.8227333,17.6907013 2.91612084,17.3969701 C3.31355423,17.7134978 3.48240753,18.3373409 4.13936804,18.3026153" id="path166" fill="#737071"></path>
                                <path d="M154.685931,66.3128366 C154.741329,65.9686096 154.918861,65.8247419 155.271769,65.9425654 C155.446615,66.0006496 155.654563,66.1206278 155.801679,66.0728489 C156.909307,65.7145068 158.025586,66.0272559 159.089744,66.1635352 C160.421059,66.3334783 161.71487,65.9702334 163.060831,66.1928583 C163.834537,66.3204562 164.813444,66.1103226 165.669655,65.8969412 C166.013882,65.8111577 166.075776,65.9501538 166.176237,66.1684068 C165.934094,66.4208857 165.558358,66.5403331 165.398189,66.9095425 C165.698978,67.0952246 166.003577,66.9182239 166.276666,67.0115959 C165.589867,67.3259688 164.858506,67.1804773 164.146162,67.2032738 C162.545037,67.2537695 160.954216,67.1614594 159.366644,66.9149762 C157.812204,66.6738955 156.246897,66.510479 154.685931,66.3128366" id="path168" fill="#939191"></path>
                                <path d="M96.3282888,60.628235 C95.8548713,60.1526003 96.2582755,60.000582 96.6225821,60.000582 C97.5466519,60.0012066 98.4473944,59.7199041 99.376367,59.8062185 C99.5099607,59.8187097 99.6543593,59.6596339 99.7998821,59.5928371 C99.987188,59.5059606 100.23314,59.3148448 100.363986,59.3723982 C101.10456,59.6970764 101.801164,59.1074592 102.59876,59.3512255 C103.003226,59.4750136 103.733495,59.2220038 104.305749,59.096061 C105.650617,58.7985199 107.067153,58.6351034 108.375641,58.7252277 C109.585323,58.8088252 110.65276,58.2620842 111.809229,58.4206291 C111.899885,58.4331203 111.995442,58.4027042 112.087753,58.4081378 C112.298417,58.4206291 112.561732,58.4325582 112.63287,58.6426919 C112.734392,58.9402329 112.361404,58.8881133 112.245735,59.0390385 C109.424623,59.4902217 106.609475,59.9940866 103.764442,60.2628353 C101.294052,60.4962964 98.8176968,60.7188901 96.3282888,60.628235" id="path170" fill="#949293"></path>
                                <path d="M112.951021,58.9423876 C112.963513,58.7078336 112.976004,58.4732796 112.988495,58.2387568 C113.325665,58.2403182 113.666644,58.2289824 113.957096,58.5221515 C113.783905,58.8044845 113.4082,58.7262894 113.222518,58.9494452 C113.131832,58.9466347 113.041708,58.9445736 112.951021,58.9423876" id="path172" fill="#949293"></path>
                                <path d="M135.542344,60.6999034 C135.984283,60.4642564 136.367046,60.3974908 136.502794,61.0365108 C136.149355,61.0202409 135.802942,60.9811434 135.542344,60.6999034" id="path174" fill="#636060"></path>
                                <path d="M113.429904,22.8133538 C113.302868,22.3920559 113.17527,21.9712577 113.047141,21.5499286 C112.506365,19.8961525 111.627888,18.3807792 111.03824,16.7438038 C112.148554,18.6300104 113.131301,20.573177 113.986419,22.5804549 C114.147681,23.8427871 114.822551,24.9384552 115.129304,26.162252 C115.710802,28.4854954 116.310225,30.8157964 116.544779,33.1879118 C116.683775,34.6022935 116.880293,36.0280423 116.998679,37.4462026 C117.242445,40.3667141 117.075781,43.2497207 116.930258,46.1479666 C116.712536,46.249489 116.641398,46.4395118 116.628938,46.6604816 C116.507305,48.8371405 115.620147,50.7684093 114.554895,52.5948454 C113.416882,54.5451007 111.672388,55.8058091 109.488141,56.4567895 C107.95325,56.9144993 106.371642,57.2027968 104.870415,57.7832017 C104.399152,57.9656361 103.86815,57.9221979 103.365909,58.0324329 C102.90008,58.1350484 102.405989,58.0970438 101.94016,58.2892213 C101.737084,58.3728501 101.48245,58.3055224 101.297861,58.125274 C101.340737,57.9097066 101.566079,57.9705389 101.673566,57.8630207 C101.700735,57.6203161 101.843509,57.4699217 102.075909,57.4498421 C103.47071,57.327147 104.805804,56.8737779 106.193579,56.7119852 C107.365787,56.4698428 108.415831,55.9089867 109.470216,55.385573 C113.389745,53.4385966 115.27211,50.1483447 115.628828,45.8802796 C115.686913,45.2325469 115.743935,44.5848143 115.95079,43.964781 C116.074047,43.5950407 116.005095,43.2328887 115.961095,42.8653344 C115.89486,42.3142214 115.815041,41.7609849 116.050688,41.2256421 C116.107149,41.1588453 116.173383,41.1051018 116.249424,41.0638495 C116.342796,38.8285443 116.105525,36.6090093 115.923653,34.38835 C115.674983,31.3495154 115.152663,28.3551807 114.307288,25.4216783 C114.262788,25.2663811 114.19927,25.1170797 114.144433,24.9644994 C113.801268,24.2820411 113.366917,23.6304987 113.429904,22.8133538" id="path176" fill="#4C4849"></path>
                                <path d="M50.986631,45.4611364 C51.3232384,45.4583259 51.5659429,45.5208445 51.5637882,45.9579125 C51.5616022,46.2913034 51.7608685,46.6018666 52.0084447,46.8032876 C53.0004043,47.612282 53.8202348,48.6378742 55.1124523,49.0689777 C55.8769154,49.3241735 56.4312449,49.9805875 57.1566105,50.3709696 C58.8267189,51.2706191 60.5950708,51.8895594 62.3905911,52.4281811 C63.9004995,52.8809882 65.4022885,53.3913485 66.9800867,53.5960485 C67.336805,53.6422036 67.5914387,53.916386 67.8422625,54.1623383 C66.6255545,53.8577397 65.397417,53.5922387 64.1947928,53.2404232 C61.2889585,52.3901766 58.4184119,51.4318808 55.7362954,50.0039461 C54.4033565,49.2943195 53.1328738,48.453816 52.0936973,47.3559932 C51.6034166,46.8380444 51.0680738,46.2587013 50.986631,45.4611364" id="path178" fill="#828080"></path>
                                <path d="M68.4020569,54.196533 C69.0600948,53.9907713 69.7023937,54.2312899 70.308874,54.3730029 C72.0479028,54.7785618 73.8086662,55.0386292 75.567275,55.3188074 C75.847422,55.3633074 76.1248521,55.3812323 76.3007911,55.6445474 C74.3092522,55.3747056 72.3220852,55.0706691 70.356653,54.6422825 C69.7040176,54.5005695 69.0237141,54.47668 68.4020569,54.196533" id="path180" fill="#828080"></path>
                                <path d="M136.569029,55.4333519 C136.910539,55.917106 137.252611,56.3997982 137.594121,56.8830214 C137.221664,57.4786344 136.828003,57.5888382 136.295939,57.170788 C136.04727,56.9747695 135.840416,56.8982295 135.541782,56.9921323 C135.252953,57.0833495 134.991231,56.9763933 134.758863,56.7999547 C134.244162,56.4079488 133.662133,56.3172625 133.038821,56.4101035 C132.709802,56.4595063 132.389464,56.4910154 132.12287,56.2266074 C131.997989,56.1033502 131.834572,56.0333056 131.677121,56.121806 C130.851294,56.5854803 130.160155,56.026779 129.427169,55.8280747 C128.842955,55.6700919 128.304895,55.1027091 127.671278,55.7792028 C127.490498,55.9719425 127.262471,55.701039 127.074041,55.5663835 C126.756982,55.338887 126.537074,55.1320323 125.993612,55.3263958 C125.634708,55.4545246 124.813253,55.7574993 124.373468,55.0815365 C124.223074,54.8502302 123.990675,54.8046372 123.757776,54.9072527 C122.745174,55.3513783 121.782007,54.9566555 120.808503,54.7498007 C120.632596,54.7123271 120.481108,54.5624635 120.279125,54.6536807 C119.034718,55.2183467 117.769637,54.9403544 116.512208,54.7253492 C116.163609,54.666172 115.824285,54.6222028 115.474624,54.6640172 C115.281884,54.6873446 115.092955,54.6792253 114.993025,54.4761492 C114.888255,54.2622369 114.927352,54.0477625 115.106508,53.9066116 C115.515908,53.5840881 115.578863,53.2621267 115.21999,52.849479 C115.029968,52.6301331 115.123902,52.3662871 115.25203,52.1295471 C115.383407,51.8846878 115.511536,51.6387356 115.64132,51.3933142 C115.979551,51.849931 115.591355,52.4585661 115.958378,52.9173689 C116.239087,52.867966 116.236933,52.4857345 116.580597,52.4406724 C116.595806,52.7990145 116.656607,53.1475822 116.322154,53.4108973 C116.22822,53.4852825 116.12779,53.5515173 116.15168,53.6872657 C116.188061,53.8946513 116.395446,54.1091257 116.514894,54.0314927 C116.713067,53.9028018 116.887913,54.0483246 117.055139,54.1943783 C117.275578,54.386025 117.482964,54.5782337 117.71427,54.1406036 C118.107369,53.3962513 118.62588,53.4505257 119.222555,53.7724871 C119.623804,53.9896783 120.00819,54.0526653 120.408878,53.8088678 C121.066947,53.4081804 121.720113,53.8343811 122.277159,53.9842446 C123.357057,54.274166 124.474991,54.3241309 125.53915,54.6439064 C125.694447,54.6911544 125.847558,54.7448979 126.001731,54.7970176 C126.112497,54.8344913 126.251493,54.8909516 126.281909,54.7253492 C126.443702,53.8360362 127.043094,54.3116397 127.329767,54.4881095 C127.839597,54.8024513 128.2984,54.8339604 128.850012,54.6987428 C129.392413,54.5657425 129.938623,54.6607383 130.497855,54.7443671 C131.477854,54.8909516 132.35961,55.2797098 133.26741,55.6206579 C133.593712,55.7433842 133.955864,55.6912646 134.306056,55.6565077 C134.582393,55.6288084 134.87831,55.5859323 135.137846,55.6543218 C135.603145,55.7770481 136.103731,56.276541 136.370856,55.4138032 C136.375196,55.4013119 136.500608,55.4262944 136.569029,55.4333519" id="path182" fill="#636060"></path>
                                <path d="M49.9077949,50.5506872 C49.9561359,50.596811 50.0538486,50.6614219 50.1124949,50.7521082 C50.2389998,50.9459408 50.4165314,51.2081942 50.1304198,51.3520619 C49.7791352,51.5295934 49.5049216,51.9568871 49.0227914,51.7831654 C48.9571188,51.7598068 48.8995654,51.6430763 48.8854504,51.5616334 C48.8534104,51.3645531 49.6596879,50.5305763 49.9077949,50.5506872" id="path184" fill="#656263"></path>
                                <path d="M28.974121,38.5679461 C28.9502003,38.8296373 28.9073242,39.0723418 28.6086902,39.178205 C27.7877667,39.4670334 25.9216709,38.237272 25.8646797,37.362605 C25.8342636,36.9010854 25.9531801,36.7914124 26.4760316,36.891311 C27.3648137,37.0618163 28.01798,37.6042166 28.7493414,38.0353201 C28.9817095,38.1715994 28.9811786,38.3561885 28.974121,38.5679461" id="path186" fill="#6F6C6D"></path>
                                <path d="M130.366447,48.4755507 C131.366557,47.343502 130.890954,46.0095013 130.877901,44.7379255 C131.18303,44.9773824 131.257977,45.3058392 131.237867,45.669615 C131.204234,46.2940202 131.168384,46.9178322 131.133627,47.5416753 C130.936547,47.9016725 130.818193,48.3256872 130.366447,48.4755507" id="path188" fill="#9D9B9C"></path>
                                <path d="M84.3118839,29.2271621 C85.2137193,29.4394505 86.1128378,29.6604203 86.9831641,29.9818508 C87.6010427,30.2093473 88.3546385,30.0372182 88.8536006,30.6154684 C87.6900739,30.2658077 86.456534,30.2212764 85.3087463,29.8070049 C84.9444396,29.6756284 84.5600221,29.5643315 84.3118839,29.2271621" id="path190" fill="#828080"></path>
                                <path d="M113.429904,22.8133538 C113.837118,23.4741398 113.939202,24.2364169 114.144433,24.9644994 C113.549913,24.5323341 113.478776,23.704884 112.863083,23.2775903 C112.72518,23.1814703 112.811494,23.0169608 113.010761,23.0218636 C113.191571,23.0262043 113.3197,22.9415138 113.429904,22.8133538" id="path192" fill="#787677"></path>
                                <path d="M115.960564,46.1055901 C116.056122,44.4702698 116.152211,42.8338252 116.247769,41.1985049 C116.364499,42.8463165 116.248393,44.4811059 115.960564,46.1055901" id="path194" fill="#858283"></path>
                                <path d="M167.2339,64.9625349 C167.326741,64.9597243 167.419582,64.9571012 167.512954,64.9549464 C167.805592,65.0971903 168.052107,65.0114068 168.362108,64.9185657 C169.088035,64.7019366 169.831857,64.5542591 170.501855,64.178523 C170.59632,64.134023 170.690816,64.0900226 170.785812,64.0455226 C172.085087,63.5459984 173.125356,62.6642739 174.135241,61.7450756 C174.362175,61.5387518 174.586955,61.427455 174.88612,61.3269943 C175.928013,60.9762718 177.083951,60.7390009 177.423276,59.408248 C177.501471,59.0987778 177.718662,58.7762543 178.121504,58.7192319 C178.266496,59.1861852 178.165504,59.6482357 178.034097,60.0874585 C177.72244,61.1261041 177.370625,62.1522584 177.035079,63.1838777 C176.457953,62.7994602 176.005677,63.25717 175.504529,63.4032237 C175.274316,63.4705514 175.063121,63.5557728 174.908916,63.7403931 C174.68523,64.0085798 174.406144,64.0704738 174.060856,64.1209696 C173.194308,64.2469437 172.478155,64.787158 171.776679,65.2437749 C170.962282,65.7731531 170.068035,65.9886892 169.18631,66.2829826 C168.41532,66.540864 167.618848,66.6467583 166.80823,66.7243913 C166.28591,66.7743562 166.065471,66.6206829 166.003046,66.1385527 C165.991085,65.304045 166.783248,65.3121956 167.2339,64.9625349" id="path196" fill="#939191"></path>
                                <path d="M166.174613,66.1700619 C166.31795,66.3980892 166.474308,66.4914611 166.791398,66.4871204 C168.127585,66.4691955 169.237337,65.8122506 170.440492,65.3784303 C171.590996,64.9636278 172.595978,64.3647672 173.594995,63.709977 C173.739956,63.6144191 173.88982,63.5959633 174.058139,63.6594812 C174.161847,63.6985788 174.349684,63.7539461 174.379569,63.7132247 C175.021306,62.8358409 176.322205,63.0139346 176.931371,62.037183 C177.188753,62.4459897 176.465542,62.8733146 177.035079,63.1838777 C176.905858,63.5612065 176.783693,63.9412833 176.531777,64.2615896 C175.634844,64.5705289 174.823695,65.0667742 173.97832,65.4832317 C172.694815,66.1151941 171.317345,66.4219787 169.958924,66.8080201 C169.461586,66.949171 169.028327,66.5050454 168.545104,66.7260152 C167.78876,66.8215731 167.03301,66.9166001 166.276666,67.012158 C166.087736,67.121831 165.870545,67.0051004 165.675651,67.0865432 C165.503521,67.1587425 165.310782,67.2238843 165.207636,66.9942331 C165.0974,66.7493738 165.19352,66.5457668 165.413397,66.4181689 C165.621907,66.2976285 165.802156,66.1076057 166.071435,66.1141324 L166.174613,66.1700619" id="path198" fill="#B2B0B1"></path>
                                <path d="M178.121504,58.7192319 C177.8951,59.1682603 177.972733,59.8045946 177.717038,60.1075381 C177.372811,60.5158452 176.928685,60.971369 176.362396,61.158675 C175.798791,61.34545 175.406255,61.8308592 174.680889,61.8172749 C174.270958,61.8096865 173.909899,62.6213665 173.338176,62.7940265 C172.53627,63.0367311 172.037839,63.8147472 171.196836,63.9749159 C171.059994,64.0009914 170.922653,64.022164 170.785812,64.0455226 C172.741501,63.0432265 173.958771,61.2705339 175.342206,59.6721252 C175.387268,59.6205364 175.443728,59.5249785 175.481733,59.5304122 C176.281484,59.6552932 176.675113,58.967901 177.260952,58.6665813 C177.58944,58.4971691 177.690432,58.03134 178.132371,58.0361736 C178.128562,58.263708 178.124783,58.4917666 178.121504,58.7192319" id="path200" fill="#7F7C7D"></path>
                                <path d="M168.545104,66.7260152 C169.175443,66.5919218 169.807967,66.464324 170.436713,66.3220801 C172.393464,65.8779545 174.192794,65.04073 175.954089,64.1101335 C176.206568,63.976571 176.458484,63.7523223 176.531777,64.2615896 C176.466635,64.5933566 176.202758,64.7801005 175.952465,64.9229064 C172.454296,66.9133211 168.702556,67.9964979 164.665235,68.0404983 C165.612133,67.9079976 166.525335,67.5610537 167.501025,67.6164523 C167.934283,67.6408727 168.318701,67.4736464 168.683538,67.261358 C168.817663,67.183725 169.015836,67.1267025 168.956097,66.9166001 C168.900167,66.7227675 168.697122,66.7591482 168.545104,66.7260152" id="path202" fill="#797777"></path>
                                <path d="M81.5293067,0.065703858 C78.364498,-0.00543368407 74.9195423,0.226965608 71.3046123,1.22488979" id="path204" fill="#6A6868"></path>
                            </g>
                        </g>
                    </g>
                    <g id="g208-Clipped">
                        <mask id="mask-12" fill="white">
                            <use xlink:href="#path-11"></use>
                        </mask>
                        <g id="path210"></g>
                        <g id="g208" mask="url(#mask-12)" fill="#231F20" fill-rule="nonzero">
                            <g transform="translate(20.610526, 55.585964)">
                                <path d="M29.5204561,52.0749605 C29.3776501,52.3697847 29.1268263,52.1634608 28.911821,52.1021289 C27.785206,51.7806984 26.8149499,51.128625 25.7687158,50.6356275 C25.4326394,50.4776447 25.0721113,50.4108479 24.6920657,50.3820868 C24.2267675,50.346237 23.7831727,50.1990903 23.4753264,49.7870047 C23.356972,49.6290219 23.2092945,49.4552689 22.9014482,49.5372426 C23.04313,49.82935 23.1783475,50.1079044 23.3135338,50.3858654 C21.8942805,49.8744121 20.6074967,49.0909623 19.288142,48.3808048 C17.7641185,47.560943 16.1939087,46.8171216 14.7708768,45.8181045 C15.0418116,45.8018034 15.3463789,45.7122413 15.3979677,45.4630101 C15.4560519,45.1855799 15.0960859,45.1719957 14.9114968,45.0628536 C13.5226597,44.2381515 12.0300829,43.5925736 10.7254053,42.6228796 C10.6510201,42.5675123 10.5619795,42.4681446 10.4930248,42.4784498 C9.806204,42.5810653 9.54124632,41.9632179 9.08843307,41.6727344 C7.58610999,40.7084741 6.05664034,39.7811253 4.59666876,38.7555018 C3.13669718,37.7304405 1.74730729,36.6049184 0.330227465,35.5190247 C0.286248975,35.4853609 0.281905151,35.4012012 0.249871397,35.3143247 C0.682052264,35.1226781 0.850365312,35.6026223 1.24345488,35.672136 C1.05939664,34.9625093 1.5312153,34.6682472 2.00249058,34.3810114 C2.18328861,34.2708076 2.34834457,34.1584177 2.46344811,33.9694567 C2.65022007,33.6621725 2.92983621,33.6301325 3.25505781,33.7289381 C4.65422209,34.1518911 5.95945547,34.8153626 7.32115543,35.3322496 C9.04988514,35.9892258 10.7720913,36.6646265 12.4970362,37.3319078 C12.6056162,37.3737222 12.7283113,37.3916159 12.8222453,37.4546029 C13.2842958,37.7641043 13.7240807,37.8677815 14.1551842,37.8200026 C14.7003014,37.2336331 15.5999508,36.9366542 16.6424063,36.9485833 L16.677694,36.9485833 C17.5496441,36.9643222 18.5182452,37.1929117 19.4640497,37.6565861 C21.8372581,38.8190197 23.1555198,40.9956786 22.4100745,42.5175474 C22.3525212,42.6353709 22.2803219,42.7439509 22.2021268,42.8471284 C22.2721714,43.1555056 22.0408651,43.4285951 21.8237051,43.68326 C21.5630756,43.9900133 21.1884637,44.1442175 20.7991746,44.2484568 C20.6590854,44.2859305 20.523337,44.3635635 20.5694921,44.5367543 C20.6161781,44.7115691 20.7796258,44.7050736 20.916436,44.6773743 C21.7313949,44.5117719 22.5832654,44.5161126 23.3401401,44.0823235 C23.9634212,43.7250431 25.8778579,44.2234743 26.2540937,44.8304855 C26.5217807,45.2610269 26.4099218,45.7317589 26.2834169,46.184035 C26.2215229,46.4071908 26.0787481,46.6200413 26.0673186,46.8421041 C26.0390885,47.3834114 25.6150737,47.8883381 25.9495264,48.4638714 C26.5190639,49.4444016 27.0071586,50.5015342 28.0191979,51.1117931 C28.3596463,51.3164931 28.8222277,51.3289531 29.1821937,51.5499541 C29.3749333,51.6688394 29.6518326,51.8034948 29.5204561,52.0749605" id="path214"></path>
                                <path d="M145.909969,14.9018786 C141.429584,15.5973589 136.680482,22.5828594 134.507071,25.4192113 C133.841444,26.9638765 133.150804,28.4993295 132.531864,30.0629814 C131.306974,33.1550599 130.26886,36.3122489 129.328489,39.5036639 C128.651995,41.8014253 128.05963,44.1176112 127.593239,46.4669301 C127.543836,46.7128823 127.414083,46.9430644 127.321242,47.1803353 C127.181684,48.0132192 127.042157,48.8455409 126.902099,49.6784247 C127.202326,49.9477356 127.195268,50.2968342 127.136091,50.6470258 C126.713669,53.1418674 126.758762,55.5964874 127.752346,57.9718817 L127.756686,58.1086919 C127.743102,58.2509357 127.663283,58.3589849 127.58565,58.4713747 L128.381591,59.6169764 C128.552627,59.5691975 128.72638,59.5431532 128.903381,59.6039543 C132.32935,64.0571707 139.007535,63.9550861 143.546535,66.1279664 C164.72129,70.9731575 168.029435,59.814088 167.919762,41.2204583 C167.839943,27.6479898 161.426728,11.1354611 145.909969,14.9018786 M133.453217,26.5865165 C133.442912,26.6576541 133.433668,26.7293225 133.425549,26.80046 C133.515673,26.6554993 133.616103,26.5165032 133.714939,26.376945 C133.607421,26.4860871 133.520545,26.5561316 133.453217,26.5865165 M81.0636025,4.28461603 C79.9804569,3.86328692 62.4064862,-1.25230804 50.7304984,11.6268348 C50.7304984,11.6268348 50.9509373,10.6446496 48.8654956,13.7334491 C46.7794918,16.8222487 45.2733933,34.2751483 45.0746578,34.6959153 C44.9139582,35.0385184 44.4660227,45.6704269 44.2330926,51.4793475 C55.9172309,60.6746399 73.7740655,60.1289918 87.9258771,60.4965462 C93.026264,60.7012462 98.0675049,60.625768 102.67708,57.8464386 C106.196983,56.1948172 106.112262,51.2469794 107.851322,48.9346033 C107.571705,48.6772216 107.578201,48.3357114 107.592878,47.9936704 C107.664546,46.3192213 107.83068,44.6491441 107.753047,42.9687305 C107.717197,42.2010196 107.724254,41.4327467 107.565179,40.6764341 C107.541289,40.5624204 107.516869,40.4478446 107.514152,40.3311141 C107.452789,37.251558 106.916353,34.2355198 106.284922,31.2335655 C105.946128,29.6215726 105.571485,28.0171993 104.953076,26.4790295 C104.843403,26.2053779 104.662061,25.8948148 104.798341,25.5880615 L103.088073,22.1832651 L98.1738989,14.1993095 C98.1738989,14.1993095 93.2808977,8.49731382 81.0636025,4.28461603 M44.1266985,54.1517208 C45.7680146,55.0351004 47.499455,55.9445242 48.5478749,55.4379425 C47.2377637,54.5225541 45.5551641,53.7081573 44.1869687,52.6347548 C44.1630792,53.2308987 44.1429684,53.7445067 44.1266985,54.1517208 M136.97312,66.7013138 C144.322396,68.1368369 151.92359,70.3797305 159.474287,69.3188193 C160.353326,69.1977481 160.324534,70.2141281 159.582336,70.2896063 C142.744067,73.8561953 128.771973,62.3143321 113.201471,59.9954294 L113.180829,59.9926189 C109.696245,59.6798697 105.992283,59.3617182 102.134118,59.300355 L102.097206,59.3012919 C99.127854,59.5336599 97.0690186,61.3655609 94.1974103,61.6245353 C89.7686142,62.3015911 86.0277414,62.676203 81.6575916,62.2000686 L80.2958917,62.2483784 L72.0165498,62.0887406 C64.9664384,61.6126062 57.7708354,61.23687 50.0675577,58.5476961 C50.0675577,58.5476961 38.1988303,55.7086274 35.8164096,53.3343573 C33.9313272,51.4568633 35.8088212,39.8091057 36.4934654,37.002077 C37.9887278,30.8662922 41.3441214,20.5634339 43.22758,15.819734 C43.1151902,15.8941193 43.0255968,16.0282126 42.9354726,16.1590582 C42.2443018,17.1602613 41.8734684,18.3134515 41.3783162,19.4069648 C40.880447,20.5075044 40.2555109,21.5890261 39.9938197,22.7482121 C39.626765,24.3781299 38.7195271,25.7664362 38.2553219,27.3529158 C37.7221338,29.1717635 37.0695296,30.9661908 36.4402528,32.7606181 C36.2838938,33.2063676 35.9863528,33.5685195 35.6443117,33.891043 C35.2197037,34.8694184 34.9813711,35.941197 34.2174388,36.7507222 C36.8496215,30.119754 38.0929671,22.9778945 41.2941565,16.5760466 C42.6504228,13.5382737 44.3807701,10.499439 46.8316427,8.22503629 C49.8840616,5.00648409 53.5869299,2.89605993 57.8582428,1.75317504 C58.3311606,1.59787785 58.8051403,1.44314277 59.2780582,1.28840769 L59.3220273,1.27757155 C60.9182813,1.0115084 62.5101946,0.713967351 64.1124131,0.487563847 C68.0346274,-0.0662347352 73.7621364,0.254102801 75.8752462,0.565228056 C77.9878563,0.876322083 83.4004302,2.23315047 85.4750358,2.86782975 C87.549048,3.50254026 90.2393462,4.75509813 92.4496689,6.07120511 C93.0664545,6.43822861 93.6576956,6.84815948 94.2598352,7.23851035 C96.4674411,8.66048049 98.3438421,10.4603415 100.112756,12.3796499 C103.884045,16.4718073 106.391878,21.3012907 108.358965,26.4554211 C109.464407,29.3520431 110.423765,32.294789 111.327224,35.2576146 L111.890266,37.5743626 C111.997753,38.3974408 112.170975,39.2053422 112.305631,40.0230179 L113.164559,45.2065027 C113.316046,45.4415876 113.17705,45.6761417 113.057041,45.907448 C112.692734,46.610548 112.236648,47.2637143 111.919027,47.9912346 C111.395114,49.1911419 111.625858,49.8388745 112.818708,50.3259075 C115.200598,51.2977563 117.68782,51.4975847 120.224976,51.2494464 C120.531729,51.2195924 120.807566,51.0887468 121.052426,50.9008787 C121.212032,50.8020731 121.345064,50.6533026 121.489494,50.5267977 C121.563879,50.4610938 121.597543,50.3617261 121.58449,50.2640135 C117.752431,20.9540346 161.934372,-11.1582888 169.032262,33.9168062 L169.035073,33.9357928 C172.104854,64.1418612 173.407939,73.8192838 136.973214,66.7013138" id="path216"></path>
                            </g>
                        </g>
                    </g>
                    <g id="g220-Clipped" transform="translate(155.203505, 70.263156)">
                        <mask id="mask-14" fill="white">
                            <use xlink:href="#path-13"></use>
                        </mask>
                        <g id="path222"></g>
                        <g id="g220" mask="url(#mask-14)" fill="url(#linearGradient-15)" fill-rule="nonzero">
                            <g id="g232">
                                <polygon id="path240" points="0.204575083 0.207291925 31.8765827 0.207291925 31.8765827 51.3883177 0.204575083 51.3883177"></polygon>
                            </g>
                        </g>
                    </g>
                    <g id="g244-Clipped" transform="translate(147.396488, 69.638595)">
                        <mask id="mask-17" fill="white">
                            <use xlink:href="#path-16"></use>
                        </mask>
                        <g id="path246"></g>
                        <g id="g244" mask="url(#mask-17)">
                            <g transform="translate(-147.396488, -69.638595)" id="g256" fill="url(#linearGradient-18)" fill-rule="nonzero">
                                <polygon id="path264" points="0 0.228901749 191.115785 0.228901749 191.115785 177.771125 0 177.771125"></polygon>
                            </g>
                        </g>
                    </g>
                    <g id="g268-Clipped" transform="translate(157.701750, 102.740348)">
                        <mask id="mask-20" fill="white">
                            <use xlink:href="#path-19"></use>
                        </mask>
                        <g id="path270"></g>
                        <g id="g268" mask="url(#mask-20)">
                            <g transform="translate(-157.701750, -102.740348)" id="g280" fill="url(#linearGradient-21)" fill-rule="nonzero">
                                <polygon id="path288" points="0 0.228901749 191.115785 0.228901749 191.115785 177.771125 0 177.771125"></polygon>
                            </g>
                        </g>
                    </g>
                    <g id="g292-Clipped" transform="translate(173.315785, 69.950875)">
                        <mask id="mask-23" fill="white">
                            <use xlink:href="#path-22"></use>
                        </mask>
                        <g id="path294"></g>
                        <g id="g292" mask="url(#mask-23)">
                            <g transform="translate(-173.315785, -69.950875)" id="g304" fill="url(#linearGradient-24)" fill-rule="nonzero">
                                <polygon id="path312" points="0 0.228901749 191.115785 0.228901749 191.115785 177.771125 0 177.771125"></polygon>
                            </g>
                        </g>
                    </g>
                    <g id="g316-Clipped" transform="translate(171.754382, 69.950875)">
                        <mask id="mask-26" fill="white">
                            <use xlink:href="#path-25"></use>
                        </mask>
                        <g id="path318"></g>
                        <g id="g316" mask="url(#mask-26)">
                            <g transform="translate(-171.754382, -112.000000)" id="g328" fill="url(#linearGradient-27)" fill-rule="nonzero">
                                <polygon id="path336" points="0 0.3665 191.115785 0.3665 191.115785 284.63355 0 284.63355"></polygon>
                            </g>
                        </g>
                    </g>
                    <g id="g340-Clipped" transform="translate(148.333330, 113.982453)">
                        <mask id="mask-29" fill="white">
                            <use xlink:href="#path-28"></use>
                        </mask>
                        <g id="path342"></g>
                        <g id="g340" mask="url(#mask-29)">
                            <g transform="translate(-158.333333, -113.982453)" id="g352" fill="url(#linearGradient-30)" fill-rule="nonzero">
                                <polygon id="path360" points="0 0.228901749 204 0.228901749 204 177.771125 0 177.771125"></polygon>
                            </g>
                        </g>
                    </g>
                    <g id="g364-Clipped" transform="translate(147.084207, 69.638595)">
                        <mask id="mask-32" fill="white">
                            <use xlink:href="#path-31"></use>
                        </mask>
                        <g id="path366"></g>
                        <g id="g364" mask="url(#mask-32)">
                            <g transform="translate(-147.084207, -69.638595)" id="g376" fill="url(#linearGradient-33)" fill-rule="nonzero">
                                <polygon id="path384" points="0 0.228901749 191.115785 0.228901749 191.115785 177.771125 0 177.771125"></polygon>
                            </g>
                        </g>
                    </g>
                    <g id="g388-Clipped" transform="translate(60.894735, 58.084209)">
                        <mask id="mask-35" fill="white">
                            <use xlink:href="#path-34"></use>
                        </mask>
                        <g id="path390"></g>
                        <g id="g388" mask="url(#mask-35)">
                            <g transform="translate(-60.894735, -58.084209)" id="g400" fill="url(#linearGradient-36)" fill-rule="nonzero">
                                <polygon id="path408" points="0 0.228901749 191.115785 0.228901749 191.115785 177.771125 0 177.771125"></polygon>
                            </g>
                        </g>
                    </g>
                    <g id="g412-Clipped">
                        <mask id="mask-38" fill="white">
                            <use xlink:href="#path-37"></use>
                        </mask>
                        <g id="path414"></g>
                        <g id="g412" mask="url(#mask-38)" fill="#141211" fill-rule="nonzero">
                            <g transform="translate(156.764908, 119.603506)" id="path418">
                                <path d="M0.223124556,0.205761749 C3.30214974,1.05113682 7.15706754,2.20326521 11.0586401,2.87323221 C7.15759842,2.20326521 3.30214974,1.05057471 0.223124556,0.205761749"></path>
                            </g>
                        </g>
                    </g>
                    <g id="g422-Clipped" transform="translate(154.578944, 74.635086)">
                        <mask id="mask-40" fill="white">
                            <use xlink:href="#path-39"></use>
                        </mask>
                        <g id="path424"></g>
                        <g id="g422" mask="url(#mask-40)">
                            <g transform="translate(-154.578944, -74.635086)" id="g434" fill="url(#linearGradient-41)" fill-rule="nonzero">
                                <polygon id="path442" points="0 0.228901749 191.115785 0.228901749 191.115785 177.771125 0 177.771125"></polygon>
                            </g>
                        </g>
                    </g>
                    <g id="g446-Clipped" transform="translate(150.519294, 116.168418)">
                        <mask id="mask-43" fill="white">
                            <use xlink:href="#path-42"></use>
                        </mask>
                        <g id="path448"></g>
                        <g id="g446" mask="url(#mask-43)">
                            <g transform="translate(-150.519294, -116.168418)" id="g458" fill="url(#linearGradient-44)" fill-rule="nonzero">
                                <polygon id="path466" points="0 0.228901749 191.115785 0.228901749 191.115785 177.771125 0 177.771125"></polygon>
                            </g>
                        </g>
                    </g>
                    <g id="g470-Clipped" transform="translate(179.561399, 72.761402)">
                        <mask id="mask-46" fill="white">
                            <use xlink:href="#path-45"></use>
                        </mask>
                        <g id="path472"></g>
                        <g id="g470" mask="url(#mask-46)">
                            <g transform="translate(-179.561399, -72.761402)" id="g482" fill="url(#linearGradient-47)" fill-rule="nonzero">
                                <polygon id="path490" points="0 0.228901749 191.115785 0.228901749 191.115785 177.771125 0 177.771125"></polygon>
                            </g>
                        </g>
                    </g>
                    <g id="g494-Clipped" transform="translate(170.192978, 122.414032)">
                        <mask id="mask-49" fill="white">
                            <use xlink:href="#path-48"></use>
                        </mask>
                        <g id="path496"></g>
                        <g id="g494" mask="url(#mask-49)">
                            <g transform="translate(-170.192978, -196.000000)" id="g506" fill="url(#linearGradient-50)" fill-rule="nonzero">
                                <polygon id="path514" points="0 0.3665 191.115785 0.3665 191.115785 284.63355 0 284.63355"></polygon>
                            </g>
                        </g>
                    </g>
                    <g id="g518-Clipped" transform="translate(149.270172, 115.543857)">
                        <mask id="mask-52" fill="white">
                            <use xlink:href="#path-51"></use>
                        </mask>
                        <g id="path520"></g>
                        <g id="g518" mask="url(#mask-52)">
                            <g transform="translate(-149.270172, -115.543857)" id="g530" fill="url(#linearGradient-53)" fill-rule="nonzero">
                                <polygon id="path538" points="0 0.228901749 191.115785 0.228901749 191.115785 177.771125 0 177.771125"></polygon>
                            </g>
                        </g>
                    </g>
                    <g id="g542-Clipped">
                        <mask id="mask-55" fill="white">
                            <use xlink:href="#path-54"></use>
                        </mask>
                        <g id="path544"></g>
                        <g id="g542" mask="url(#mask-55)" fill-rule="nonzero">
                            <g transform="translate(98.680699, 77.757893)">
                                <path d="M25.9235446,1.81391364 C26.1645941,2.40734064 26.3969934,3.01488273 26.6195871,3.638195 C27.0034425,4.71103532 27.3748067,5.80995108 27.7239365,6.92298193 C27.7226874,6.92017141 27.7223751,6.91757948 27.7217505,6.91539351 C27.3731828,5.80454863 27.0029116,4.70888058 26.6201179,3.638195 C26.3980551,3.01597571 26.1662179,2.41005748 25.9251685,1.81825434 L25.9236071,1.81391364" id="path548" fill="#272525"></path>
                                <path d="M14.5939386,38.3257099 C14.4348628,38.3441657 14.275787,38.3615285 14.1134323,38.3778296 C14.1140568,38.3778296 14.1149937,38.3778296 14.1162428,38.3778296 C14.2775046,38.3615285 14.4360495,38.3441657 14.5940323,38.3257099" id="path550" fill="#3E2C87"></path>
                                <path d="M22.6381956,35.993223 C20.5076918,37.1410107 17.8559603,37.9483499 14.5939386,38.3257099 C17.8559603,37.9483499 20.5076918,37.1410107 22.6381956,35.993223" id="path552" fill="#272525"></path>
                                <path d="M25.2122941,0.164977891 C25.4576843,0.701975772 25.6944243,1.25087155 25.9235446,1.81391364 L25.925106,1.81825434 C25.6959857,1.25411927 25.4576218,0.702506649 25.2122317,0.164977891 M27.7216881,6.91539351 C27.7223126,6.91757948 27.7226249,6.92029632 27.723874,6.92298193 C29.0530031,11.1606622 30.0650424,15.6247459 30.2594059,19.8211427 C30.0650424,15.62256 29.0519102,11.1546976 27.7216881,6.91539351 M0.275868765,38.2165678 C2.81855186,38.307785 5.3101146,38.3881348 7.68766367,38.5048654 C8.53844119,38.5466797 9.35830292,38.5667906 10.1509962,38.5667906 C11.561006,38.5667906 12.8814537,38.5021797 14.1160867,38.3778296 C14.1151498,38.3778296 14.1139007,38.3778296 14.1132761,38.3778296 C12.8791741,38.5021797 11.5598194,38.5667906 10.1514334,38.5667906 C9.35874012,38.5667906 8.53834751,38.5461489 7.68756998,38.5043345 C5.3105518,38.3881348 2.81845818,38.307785 0.275868765,38.2165678" id="path554" fill="#141211"></path>
                            </g>
                        </g>
                    </g>
                    <g id="g558-Clipped" transform="translate(64.642104, 63.705262)">
                        <mask id="mask-57" fill="white">
                            <use xlink:href="#path-56"></use>
                        </mask>
                        <g id="path560"></g>
                        <g id="g558" mask="url(#mask-57)">
                            <g transform="translate(-64.642104, -63.705262)" id="g570" fill="url(#linearGradient-58)" fill-rule="nonzero">
                                <polygon id="path578" points="0 0.228901749 191.115785 0.228901749 191.115785 177.771125 0 177.771125"></polygon>
                            </g>
                        </g>
                    </g>
                </g>
            </g>
        </g>
    </g>
</svg>